G04 (created by PCBNEW (2013-07-07 BZR 4022)-stable) date 27/12/2022 09:16:34*
%MOIN*%
G04 Gerber Fmt 3.4, Leading zero omitted, Abs format*
%FSLAX34Y34*%
G01*
G70*
G90*
G04 APERTURE LIST*
%ADD10C,0.00590551*%
%ADD11C,0.00393701*%
G04 APERTURE END LIST*
G54D10*
G54D11*
X-34150Y-43000D02*
X-34150Y-28500D01*
X-34150Y-43000D02*
X-32850Y-49000D01*
X-10400Y-30000D02*
X-11975Y-39475D01*
X-11975Y-39450D02*
X-10850Y-44300D01*
X-11500Y0D02*
X-17150Y0D01*
X-2950Y-26350D02*
X-8550Y-26350D01*
X6000Y-1750D02*
X0Y-1750D01*
X6000Y-1750D02*
X6000Y-22200D01*
X0Y0D02*
X-12000Y0D01*
X0Y-1750D02*
X0Y0D01*
X-8550Y-26350D02*
X-10400Y-30000D01*
X-50Y-26350D02*
X-3450Y-26350D01*
X-50Y-22200D02*
X-50Y-26350D01*
X5950Y-22200D02*
X-50Y-22200D01*
X-12750Y-44700D02*
X-10850Y-44300D01*
X-12300Y-46900D02*
X-12750Y-44700D01*
X-30400Y-50750D02*
X-12300Y-46900D01*
X-30850Y-48550D02*
X-30400Y-50750D01*
X-32850Y-49000D02*
X-30850Y-48550D01*
X-34150Y-28500D02*
X-17150Y0D01*
X-21650Y-7500D02*
X-34150Y-28500D01*
M02*
