G04 (created by PCBNEW (2013-07-07 BZR 4022)-stable) date 27/12/2022 09:16:34*
%MOIN*%
G04 Gerber Fmt 3.4, Leading zero omitted, Abs format*
%FSLAX34Y34*%
G01*
G70*
G90*
G04 APERTURE LIST*
%ADD10C,0.00590551*%
%ADD11C,0.00393701*%
%ADD12O,0.1X0.0629921*%
%ADD13R,0.0984252X0.0787402*%
%ADD14O,0.0984252X0.0787402*%
%ADD15C,0.16*%
G04 APERTURE END LIST*
G54D10*
G54D11*
X-34150Y-43000D02*
X-34150Y-28500D01*
X-34150Y-43000D02*
X-32850Y-49000D01*
X-10400Y-30000D02*
X-11975Y-39475D01*
X-11975Y-39450D02*
X-10850Y-44300D01*
X-11500Y0D02*
X-17150Y0D01*
X-2950Y-26350D02*
X-8550Y-26350D01*
X6000Y-1750D02*
X0Y-1750D01*
X6000Y-1750D02*
X6000Y-22200D01*
X0Y0D02*
X-12000Y0D01*
X0Y-1750D02*
X0Y0D01*
X-8550Y-26350D02*
X-10400Y-30000D01*
X-50Y-26350D02*
X-3450Y-26350D01*
X-50Y-22200D02*
X-50Y-26350D01*
X5950Y-22200D02*
X-50Y-22200D01*
X-12750Y-44700D02*
X-10850Y-44300D01*
X-12300Y-46900D02*
X-12750Y-44700D01*
X-30400Y-50750D02*
X-12300Y-46900D01*
X-30850Y-48550D02*
X-30400Y-50750D01*
X-32850Y-49000D02*
X-30850Y-48550D01*
X-34150Y-28500D02*
X-17150Y0D01*
X-21650Y-7500D02*
X-34150Y-28500D01*
G54D10*
G36*
X-30053Y-50482D02*
X-30503Y-48364D01*
X-29848Y-48225D01*
X-29398Y-50343D01*
X-30053Y-50482D01*
X-30053Y-50482D01*
G37*
G36*
X-29075Y-50274D02*
X-29525Y-48156D01*
X-28870Y-48017D01*
X-28420Y-50135D01*
X-29075Y-50274D01*
X-29075Y-50274D01*
G37*
G36*
X-28096Y-50066D02*
X-28547Y-47948D01*
X-27892Y-47809D01*
X-27442Y-49927D01*
X-28096Y-50066D01*
X-28096Y-50066D01*
G37*
G36*
X-27118Y-49858D02*
X-27569Y-47740D01*
X-26914Y-47601D01*
X-26464Y-49719D01*
X-27118Y-49858D01*
X-27118Y-49858D01*
G37*
G36*
X-26140Y-49651D02*
X-26590Y-47533D01*
X-25936Y-47393D01*
X-25486Y-49511D01*
X-26140Y-49651D01*
X-26140Y-49651D01*
G37*
G36*
X-25162Y-49443D02*
X-25612Y-47325D01*
X-24958Y-47185D01*
X-24507Y-49303D01*
X-25162Y-49443D01*
X-25162Y-49443D01*
G37*
G36*
X-25162Y-49443D02*
X-25612Y-47325D01*
X-24958Y-47185D01*
X-24507Y-49303D01*
X-25162Y-49443D01*
X-25162Y-49443D01*
G37*
G36*
X-24184Y-49235D02*
X-24634Y-47117D01*
X-23979Y-46978D01*
X-23529Y-49096D01*
X-24184Y-49235D01*
X-24184Y-49235D01*
G37*
G36*
X-23206Y-49027D02*
X-23656Y-46909D01*
X-23001Y-46770D01*
X-22551Y-48888D01*
X-23206Y-49027D01*
X-23206Y-49027D01*
G37*
G36*
X-22228Y-48819D02*
X-22678Y-46701D01*
X-22023Y-46562D01*
X-21573Y-48680D01*
X-22228Y-48819D01*
X-22228Y-48819D01*
G37*
G36*
X-21249Y-48611D02*
X-21700Y-46493D01*
X-21045Y-46354D01*
X-20595Y-48472D01*
X-21249Y-48611D01*
X-21249Y-48611D01*
G37*
G36*
X-20271Y-48403D02*
X-20721Y-46285D01*
X-20067Y-46146D01*
X-19617Y-48264D01*
X-20271Y-48403D01*
X-20271Y-48403D01*
G37*
G36*
X-19293Y-48195D02*
X-19743Y-46077D01*
X-19089Y-45938D01*
X-18638Y-48056D01*
X-19293Y-48195D01*
X-19293Y-48195D01*
G37*
G36*
X-18315Y-47987D02*
X-18765Y-45869D01*
X-18111Y-45730D01*
X-17660Y-47848D01*
X-18315Y-47987D01*
X-18315Y-47987D01*
G37*
G36*
X-18315Y-47987D02*
X-18765Y-45869D01*
X-18111Y-45730D01*
X-17660Y-47848D01*
X-18315Y-47987D01*
X-18315Y-47987D01*
G37*
G36*
X-17337Y-47779D02*
X-17787Y-45661D01*
X-17132Y-45522D01*
X-16682Y-47640D01*
X-17337Y-47779D01*
X-17337Y-47779D01*
G37*
G36*
X-17337Y-47779D02*
X-17787Y-45661D01*
X-17132Y-45522D01*
X-16682Y-47640D01*
X-17337Y-47779D01*
X-17337Y-47779D01*
G37*
G36*
X-16359Y-47571D02*
X-16809Y-45453D01*
X-16154Y-45314D01*
X-15704Y-47432D01*
X-16359Y-47571D01*
X-16359Y-47571D01*
G37*
G36*
X-15381Y-47364D02*
X-15831Y-45245D01*
X-15176Y-45106D01*
X-14726Y-47224D01*
X-15381Y-47364D01*
X-15381Y-47364D01*
G37*
G36*
X-14402Y-47156D02*
X-14853Y-45038D01*
X-14198Y-44898D01*
X-13748Y-47016D01*
X-14402Y-47156D01*
X-14402Y-47156D01*
G37*
G36*
X-13424Y-46948D02*
X-13874Y-44830D01*
X-13220Y-44691D01*
X-12770Y-46809D01*
X-13424Y-46948D01*
X-13424Y-46948D01*
G37*
G54D12*
X4350Y-3450D03*
X2350Y-3450D03*
X4350Y-4450D03*
X2350Y-4450D03*
X4350Y-5450D03*
X2350Y-5450D03*
X4350Y-6450D03*
X2350Y-6450D03*
X4350Y-7450D03*
X2350Y-7450D03*
X4350Y-8450D03*
X2350Y-8450D03*
X4350Y-9450D03*
X2350Y-9450D03*
X4350Y-10450D03*
X2350Y-10450D03*
X4350Y-11450D03*
X2350Y-11450D03*
X4350Y-12450D03*
X2350Y-12450D03*
X4350Y-13450D03*
X2350Y-13450D03*
X4350Y-14450D03*
X4350Y-15450D03*
X2350Y-14450D03*
X2350Y-15450D03*
X4350Y-16450D03*
X2350Y-16450D03*
X4350Y-17450D03*
X2350Y-17450D03*
X4350Y-18450D03*
X2350Y-18450D03*
X4350Y-19450D03*
X2350Y-19450D03*
X4350Y-20450D03*
X2350Y-20450D03*
G54D13*
X-11900Y-26450D03*
G54D14*
X-11900Y-27450D03*
X-11900Y-28450D03*
G54D13*
X-16900Y-13450D03*
G54D14*
X-16900Y-14450D03*
G54D15*
X-3950Y-23400D03*
X-3950Y-2500D03*
M02*
