G04 (created by PCBNEW (2013-07-07 BZR 4022)-stable) date 07/01/2023 15:27:14*
%MOIN*%
G04 Gerber Fmt 3.4, Leading zero omitted, Abs format*
%FSLAX34Y34*%
G01*
G70*
G90*
G04 APERTURE LIST*
%ADD10C,0.00590551*%
%ADD11C,0.00393701*%
%ADD12R,0.19685X0.15748*%
%ADD13O,0.19685X0.15748*%
%ADD14R,0.0649606X1.87008*%
%ADD15R,0.0787402X0.0787402*%
%ADD16C,0.0787402*%
%ADD17C,0.0748031*%
%ADD18R,0.09X0.062*%
%ADD19O,0.09X0.062*%
%ADD20C,0.19685*%
%ADD21O,0.0905512X0.0629921*%
%ADD22O,0.137795X0.177165*%
%ADD23R,0.062X0.09*%
%ADD24O,0.062X0.09*%
%ADD25O,0.07X0.0984252*%
%ADD26R,0.0629921X0.0787402*%
%ADD27O,0.0629921X0.0787402*%
%ADD28O,0.0787402X0.0629921*%
%ADD29C,0.0629921*%
%ADD30O,0.0629921X0.0905512*%
%ADD31R,0.0866142X0.0866142*%
%ADD32C,0.0866142*%
%ADD33C,0.0669291*%
%ADD34C,0.0708661*%
%ADD35R,0.035X0.055*%
%ADD36C,0.0984252*%
%ADD37C,0.11811*%
%ADD38R,0.0944882X0.0629921*%
%ADD39O,0.0944882X0.0629921*%
%ADD40R,0.0708661X0.0708661*%
%ADD41O,0.0905512X0.0708661*%
%ADD42C,0.110236*%
%ADD43R,0.045X0.02*%
%ADD44R,0.0669291X0.0669291*%
%ADD45O,0.0629921X0.0708661*%
%ADD46R,0.055X0.055*%
%ADD47C,0.055*%
%ADD48C,0.1*%
%ADD49C,0.16*%
%ADD50O,0.0708661X0.0905512*%
%ADD51R,0.07X0.07*%
%ADD52C,0.07*%
%ADD53R,0.0905512X0.0590551*%
%ADD54O,0.0905512X0.0590551*%
%ADD55C,0.0393701*%
%ADD56C,0.023622*%
%ADD57C,0.015748*%
%ADD58C,0.0275591*%
G04 APERTURE END LIST*
G54D10*
G54D11*
X8000Y-45750D02*
X8000Y-47750D01*
X10000Y-45750D02*
X8000Y-45750D01*
X10000Y-47750D02*
X10000Y-45750D01*
X8000Y-47750D02*
X10000Y-47750D01*
X8500Y-54000D02*
X0Y-54000D01*
X9500Y-54000D02*
X10750Y-54000D01*
X9500Y-51000D02*
X9500Y-54000D01*
X8500Y-51000D02*
X9500Y-51000D01*
X8500Y-54000D02*
X8500Y-51000D01*
X88500Y-1250D02*
X88500Y-25500D01*
X67000Y-1250D02*
X88500Y-1250D01*
X67000Y0D02*
X67000Y-1250D01*
X47750Y0D02*
X67000Y0D01*
X46500Y0D02*
X2000Y0D01*
X47750Y-3750D02*
X47750Y0D01*
X46500Y-3750D02*
X47750Y-3750D01*
X46500Y0D02*
X46500Y-3750D01*
X0Y-2000D02*
X2000Y0D01*
X0Y-54000D02*
X0Y-2000D01*
X10750Y-62000D02*
X10750Y-54000D01*
X79750Y-62000D02*
X10750Y-62000D01*
X82750Y-25500D02*
X88500Y-25500D01*
X82750Y-54000D02*
X82750Y-25500D01*
X79750Y-54000D02*
X82750Y-54000D01*
X79750Y-62000D02*
X79750Y-54000D01*
G54D12*
X82500Y-4750D03*
G54D13*
X82500Y-6750D03*
X82500Y-8750D03*
X82500Y-10750D03*
X82500Y-12750D03*
X82500Y-14750D03*
X82500Y-16750D03*
G54D14*
X14250Y-32200D03*
G54D15*
X54250Y-52000D03*
G54D16*
X54250Y-49000D03*
X57250Y-49000D03*
X57250Y-52000D03*
G54D17*
X10250Y-10500D03*
X10250Y-8500D03*
G54D18*
X48500Y-58250D03*
G54D19*
X48500Y-57250D03*
X48500Y-56250D03*
X48500Y-55250D03*
X48500Y-54250D03*
X48500Y-53250D03*
X48500Y-52250D03*
X48500Y-51250D03*
X45500Y-51250D03*
X45500Y-52250D03*
X45500Y-53250D03*
X45500Y-54250D03*
X45500Y-55250D03*
X45500Y-56250D03*
X45500Y-57250D03*
X45500Y-58250D03*
G54D20*
X64000Y-5000D03*
X54000Y-5000D03*
G54D21*
X7112Y-6550D03*
X8387Y-6550D03*
X8368Y-5763D03*
X7131Y-5763D03*
G54D22*
X5388Y-4700D03*
X10112Y-4700D03*
G54D23*
X2750Y-28200D03*
G54D24*
X3750Y-28200D03*
X4750Y-28200D03*
X5750Y-28200D03*
X5750Y-25200D03*
X4750Y-25200D03*
X3750Y-25200D03*
X2750Y-25200D03*
G54D25*
X32750Y-2500D03*
X31750Y-2500D03*
X30750Y-2500D03*
G54D23*
X64250Y-52000D03*
G54D24*
X65250Y-52000D03*
X66250Y-52000D03*
X67250Y-52000D03*
X68250Y-52000D03*
X69250Y-52000D03*
X70250Y-52000D03*
X71250Y-52000D03*
X71250Y-49000D03*
X70250Y-49000D03*
X69250Y-49000D03*
X68250Y-49000D03*
X67250Y-49000D03*
X66250Y-49000D03*
X65250Y-49000D03*
X64250Y-49000D03*
G54D26*
X56500Y-26578D03*
G54D27*
X56500Y-25421D03*
X55500Y-26578D03*
X55500Y-25421D03*
X54500Y-26578D03*
X54500Y-25421D03*
X53500Y-26578D03*
X53500Y-25421D03*
X52500Y-26578D03*
X52500Y-25421D03*
X51500Y-26578D03*
G54D28*
X50421Y-25500D03*
G54D16*
X51500Y-25500D03*
G54D28*
X50421Y-24500D03*
X51578Y-24500D03*
X50421Y-23500D03*
X51578Y-23500D03*
X50421Y-22500D03*
X51578Y-22500D03*
X50421Y-21500D03*
X51578Y-21500D03*
X50421Y-20500D03*
X51578Y-20500D03*
X50421Y-19500D03*
X51578Y-19500D03*
X50421Y-18500D03*
X51578Y-18500D03*
X50421Y-17500D03*
X51578Y-17500D03*
X50421Y-16500D03*
X51578Y-16500D03*
X50421Y-15500D03*
G54D27*
X51500Y-14421D03*
G54D16*
X51500Y-15500D03*
G54D27*
X52500Y-14421D03*
X52500Y-15578D03*
X53500Y-14421D03*
X53500Y-15578D03*
X54500Y-14421D03*
X54500Y-15578D03*
X55500Y-14421D03*
X55500Y-15578D03*
X56500Y-14421D03*
X56500Y-15578D03*
X57500Y-14421D03*
X57500Y-15578D03*
X58500Y-14421D03*
X58500Y-15578D03*
X59500Y-14421D03*
X59500Y-15578D03*
X60500Y-14421D03*
X60500Y-15578D03*
X61500Y-14421D03*
G54D28*
X62578Y-15500D03*
G54D29*
X61500Y-15500D03*
G54D28*
X62578Y-16500D03*
X61421Y-16500D03*
X62578Y-17500D03*
X61421Y-17500D03*
X62578Y-18500D03*
X61421Y-18500D03*
X62578Y-19500D03*
X61421Y-19500D03*
X62578Y-20500D03*
X61421Y-20500D03*
X62578Y-21500D03*
X61421Y-21500D03*
X62578Y-22500D03*
X61421Y-22500D03*
X62578Y-23500D03*
X61421Y-23500D03*
X62578Y-24500D03*
X61421Y-24500D03*
X62578Y-25500D03*
G54D27*
X61500Y-26578D03*
G54D29*
X61500Y-25500D03*
G54D27*
X60500Y-26578D03*
X60500Y-25421D03*
X59500Y-26578D03*
X59500Y-25421D03*
X58500Y-26578D03*
X58500Y-25421D03*
X57500Y-26578D03*
X57500Y-25421D03*
G54D18*
X50000Y-42700D03*
G54D19*
X50000Y-41700D03*
X50000Y-40700D03*
X50000Y-39700D03*
X50000Y-38700D03*
X50000Y-37700D03*
X50000Y-36700D03*
X50000Y-35700D03*
X50000Y-34700D03*
X50000Y-33700D03*
X50000Y-32700D03*
X50000Y-31700D03*
X56000Y-31700D03*
X56000Y-32700D03*
X56000Y-33700D03*
X56000Y-34700D03*
X56000Y-35700D03*
X56000Y-36700D03*
X56000Y-37700D03*
X56000Y-38700D03*
X56000Y-39700D03*
X56000Y-40700D03*
X56000Y-41700D03*
X56000Y-42700D03*
G54D18*
X6250Y-44450D03*
G54D19*
X6250Y-43450D03*
X6250Y-42450D03*
X6250Y-41450D03*
X6250Y-40450D03*
X6250Y-39450D03*
X6250Y-38450D03*
X6250Y-37450D03*
X3250Y-37450D03*
X3250Y-38450D03*
X3250Y-39450D03*
X3250Y-40450D03*
X3250Y-41450D03*
X3250Y-42450D03*
X3250Y-43450D03*
X3250Y-44450D03*
G54D23*
X65250Y-58000D03*
G54D24*
X66250Y-58000D03*
X67250Y-58000D03*
X68250Y-58000D03*
X69250Y-58000D03*
X70250Y-58000D03*
X71250Y-58000D03*
X71250Y-55000D03*
X70250Y-55000D03*
X69250Y-55000D03*
X68250Y-55000D03*
X67250Y-55000D03*
X66250Y-55000D03*
X65250Y-55000D03*
G54D25*
X60000Y-2500D03*
X59000Y-2500D03*
X58000Y-2500D03*
G54D24*
X37250Y-46750D03*
X36250Y-46750D03*
X35250Y-46750D03*
X34250Y-46750D03*
X33250Y-46750D03*
X32250Y-46750D03*
X31250Y-46750D03*
X30250Y-46750D03*
X29250Y-46750D03*
X28250Y-46750D03*
X27250Y-46750D03*
X26250Y-46750D03*
X25250Y-46750D03*
G54D23*
X38250Y-46750D03*
G54D24*
X25250Y-49750D03*
X26250Y-49750D03*
X27250Y-49750D03*
X28250Y-49750D03*
X29250Y-49750D03*
X30250Y-49750D03*
X31250Y-49750D03*
X32250Y-49750D03*
X33250Y-49750D03*
X34250Y-49750D03*
X35250Y-49750D03*
X36250Y-49750D03*
X37250Y-49750D03*
X38250Y-49750D03*
G54D20*
X36750Y-5000D03*
X26750Y-5000D03*
G54D30*
X32600Y-7450D03*
X33600Y-7450D03*
X34600Y-7450D03*
X35600Y-7450D03*
X36600Y-7450D03*
G54D17*
X73250Y-48250D03*
X73250Y-52250D03*
X62250Y-46750D03*
X66250Y-46750D03*
X63000Y-58000D03*
X63000Y-54000D03*
G54D31*
X45750Y-5000D03*
G54D32*
X43750Y-5000D03*
G54D31*
X73000Y-5000D03*
G54D32*
X71000Y-5000D03*
G54D33*
X71250Y-53250D03*
X69250Y-53250D03*
X64250Y-47750D03*
X66250Y-47750D03*
G54D15*
X30750Y-5750D03*
G54D16*
X31750Y-5750D03*
G54D15*
X58000Y-5750D03*
G54D16*
X59000Y-5750D03*
G54D34*
X12500Y-8500D03*
X12500Y-9500D03*
X12500Y-11750D03*
X12500Y-10750D03*
G54D35*
X8875Y-12200D03*
X9625Y-12200D03*
G54D26*
X42500Y-41250D03*
G54D27*
X37500Y-41250D03*
X36500Y-41250D03*
X35500Y-41250D03*
X34500Y-41250D03*
X33500Y-41250D03*
X32500Y-41250D03*
X31500Y-41250D03*
X30500Y-41250D03*
X29500Y-41250D03*
X28500Y-41250D03*
X27500Y-41250D03*
X26500Y-41250D03*
X25500Y-41250D03*
X24500Y-41250D03*
X41500Y-41250D03*
X40500Y-41250D03*
X39500Y-41250D03*
X38500Y-41250D03*
X23500Y-41250D03*
X22500Y-41250D03*
X21500Y-41250D03*
X20500Y-41250D03*
G54D26*
X42500Y-42250D03*
G54D27*
X37500Y-42250D03*
X36500Y-42250D03*
X35500Y-42250D03*
X34500Y-42250D03*
X33500Y-42250D03*
X32500Y-42250D03*
X31500Y-42250D03*
X30500Y-42250D03*
X29500Y-42250D03*
X28500Y-42250D03*
X27500Y-42250D03*
X26500Y-42250D03*
X25500Y-42250D03*
X24500Y-42250D03*
X41500Y-42250D03*
X40500Y-42250D03*
X39500Y-42250D03*
X38500Y-42250D03*
X23500Y-42250D03*
X22500Y-42250D03*
X21500Y-42250D03*
X20500Y-42250D03*
G54D36*
X19450Y-5200D03*
X14500Y-6150D03*
X16500Y-5250D03*
X13550Y-5200D03*
X18500Y-6150D03*
G54D37*
X14500Y-1250D03*
X18500Y-1250D03*
G54D36*
X16500Y-7250D03*
G54D38*
X17750Y-14450D03*
G54D39*
X17750Y-13450D03*
X17750Y-12450D03*
X17750Y-11450D03*
X17750Y-10450D03*
X17750Y-9450D03*
G54D40*
X60450Y-49350D03*
G54D41*
X60450Y-50350D03*
X60450Y-51350D03*
G54D33*
X1750Y-21200D03*
X3750Y-21200D03*
G54D42*
X77750Y-8750D03*
X78750Y-4750D03*
X79750Y-8750D03*
G54D18*
X60250Y-42700D03*
G54D19*
X60250Y-41700D03*
X60250Y-40700D03*
X60250Y-39700D03*
X60250Y-38700D03*
X60250Y-37700D03*
X60250Y-36700D03*
X60250Y-35700D03*
X60250Y-34700D03*
X60250Y-33700D03*
X60250Y-32700D03*
X60250Y-31700D03*
X66250Y-31700D03*
X66250Y-32700D03*
X66250Y-33700D03*
X66250Y-34700D03*
X66250Y-35700D03*
X66250Y-36700D03*
X66250Y-37700D03*
X66250Y-38700D03*
X66250Y-39700D03*
X66250Y-40700D03*
X66250Y-41700D03*
X66250Y-42700D03*
G54D23*
X6250Y-17950D03*
G54D24*
X7250Y-17950D03*
X8250Y-17950D03*
X9250Y-17950D03*
X10250Y-17950D03*
X11250Y-17950D03*
X12250Y-17950D03*
X13250Y-17950D03*
X13250Y-14950D03*
X12250Y-14950D03*
X11250Y-14950D03*
X10250Y-14950D03*
X9250Y-14950D03*
X8250Y-14950D03*
X7250Y-14950D03*
X6250Y-14950D03*
G54D43*
X8000Y-12200D03*
X8000Y-11700D03*
X8000Y-11200D03*
X8000Y-10700D03*
X8000Y-10200D03*
X8000Y-9700D03*
X8000Y-9200D03*
X8000Y-8700D03*
X6000Y-8700D03*
X6000Y-9200D03*
X6000Y-9700D03*
X6000Y-10200D03*
X6000Y-10700D03*
X6000Y-11200D03*
X6000Y-11700D03*
X6000Y-12200D03*
G54D40*
X1500Y-15450D03*
G54D34*
X2500Y-15450D03*
G54D40*
X8250Y-19700D03*
G54D34*
X9250Y-19700D03*
G54D40*
X1500Y-17700D03*
G54D34*
X2500Y-17700D03*
G54D40*
X17250Y-16450D03*
G54D34*
X17250Y-17450D03*
G54D26*
X42250Y-51500D03*
G54D27*
X37250Y-51500D03*
X36250Y-51500D03*
X35250Y-51500D03*
X34250Y-51500D03*
X33250Y-51500D03*
X32250Y-51500D03*
X31250Y-51500D03*
X30250Y-51500D03*
X29250Y-51500D03*
X28250Y-51500D03*
X27250Y-51500D03*
X41250Y-51500D03*
X40250Y-51500D03*
X39250Y-51500D03*
X38250Y-51500D03*
X26250Y-51500D03*
G54D33*
X4750Y-34950D03*
X5750Y-34950D03*
X6750Y-34950D03*
X7750Y-34950D03*
X8750Y-34950D03*
X9750Y-34950D03*
X10750Y-33700D03*
X10750Y-32700D03*
G54D23*
X8750Y-30450D03*
G54D24*
X7750Y-30450D03*
X6750Y-30450D03*
X5750Y-30450D03*
X4750Y-30450D03*
X3750Y-30450D03*
X2750Y-30450D03*
X1750Y-30450D03*
X1750Y-33450D03*
X2750Y-33450D03*
X3750Y-33450D03*
X4750Y-33450D03*
X5750Y-33450D03*
X6750Y-33450D03*
X7750Y-33450D03*
X8750Y-33450D03*
G54D44*
X8250Y-29200D03*
G54D33*
X8250Y-28200D03*
G54D45*
X2750Y-34950D03*
X1750Y-34950D03*
G54D17*
X7500Y-40450D03*
X7500Y-36450D03*
G54D46*
X2750Y-23200D03*
G54D47*
X3750Y-23200D03*
G54D48*
X1500Y-28200D03*
X1500Y-23200D03*
G54D49*
X21750Y-34800D03*
X46850Y-43900D03*
X61150Y-10250D03*
X68100Y-43900D03*
G54D17*
X74500Y-53450D03*
X74500Y-57450D03*
X74500Y-52250D03*
X74500Y-48250D03*
G54D33*
X73250Y-55450D03*
X73250Y-57450D03*
G54D17*
X16300Y-57550D03*
X16300Y-53550D03*
X17500Y-57550D03*
X17500Y-53550D03*
G54D40*
X19700Y-51500D03*
G54D50*
X20700Y-51500D03*
X21700Y-51500D03*
G54D17*
X8750Y-40450D03*
X8750Y-36450D03*
X5750Y-19950D03*
X1750Y-19950D03*
G54D51*
X5750Y-22450D03*
G54D52*
X7750Y-22450D03*
G54D40*
X61750Y-54000D03*
G54D34*
X61750Y-57000D03*
G54D40*
X60500Y-54000D03*
G54D34*
X60500Y-57000D03*
G54D53*
X19250Y-8450D03*
G54D54*
X19250Y-9450D03*
X19250Y-10450D03*
X19250Y-11450D03*
X19250Y-12450D03*
G54D48*
X20750Y-48950D03*
G54D16*
X27250Y-10950D03*
G54D29*
X45500Y-33100D03*
X15200Y-51350D03*
X14200Y-51400D03*
X67850Y-15050D03*
X66850Y-15050D03*
X65950Y-15050D03*
X65050Y-15050D03*
X64150Y-15050D03*
X47250Y-14750D03*
X46250Y-14750D03*
X45250Y-14750D03*
X44400Y-14750D03*
X43500Y-14750D03*
X19500Y-25200D03*
X18750Y-24450D03*
X52750Y-33950D03*
X32000Y-21950D03*
X12250Y-23700D03*
X33000Y-22950D03*
X35650Y-21800D03*
G54D16*
X75000Y-10250D03*
G54D29*
X48250Y-14800D03*
X17950Y-38900D03*
X22600Y-48500D03*
X16700Y-40200D03*
X44500Y-28200D03*
X43600Y-28800D03*
X54500Y-33450D03*
X27000Y-36800D03*
X28000Y-35800D03*
X29000Y-35100D03*
X42200Y-29400D03*
X40950Y-30000D03*
X17200Y-39450D03*
X17900Y-38050D03*
X23000Y-39550D03*
X24000Y-38900D03*
X25000Y-38350D03*
X26000Y-37650D03*
X45250Y-36800D03*
X46250Y-36750D03*
X12750Y-46450D03*
X44200Y-36800D03*
X12750Y-47450D03*
G54D16*
X53750Y-41700D03*
X29750Y-22450D03*
X42350Y-15050D03*
X58500Y-24000D03*
G54D29*
X20000Y-54250D03*
X39750Y-8200D03*
X42300Y-8600D03*
X46850Y-29500D03*
X23250Y-23100D03*
X24150Y-23050D03*
X47950Y-29450D03*
G54D16*
X17000Y-50950D03*
X1250Y-50250D03*
X12250Y-41400D03*
X59250Y-21250D03*
X69050Y-19100D03*
X55000Y-23950D03*
X55000Y-21250D03*
G54D29*
X45250Y-22750D03*
X23000Y-46700D03*
X54500Y-29200D03*
X43850Y-22150D03*
G54D55*
X2750Y-23200D02*
X2750Y-22450D01*
X3000Y-22200D02*
X4750Y-22200D01*
X2750Y-22450D02*
X3000Y-22200D01*
X4750Y-25200D02*
X4750Y-22200D01*
X27250Y-23450D02*
X27250Y-10950D01*
X24750Y-25950D02*
X27250Y-23450D01*
X18250Y-25950D02*
X24750Y-25950D01*
X17250Y-24950D02*
X18250Y-25950D01*
X17250Y-21950D02*
X17250Y-24950D01*
X16500Y-21200D02*
X17250Y-21950D01*
X5750Y-21200D02*
X16500Y-21200D01*
X4750Y-22200D02*
X5750Y-21200D01*
G54D56*
X46250Y-28700D02*
X52000Y-28700D01*
X53000Y-27700D02*
X53000Y-27200D01*
X52000Y-28700D02*
X53000Y-27700D01*
G54D57*
X53000Y-27200D02*
X53000Y-25950D01*
X53000Y-25950D02*
X53450Y-25500D01*
X53450Y-25500D02*
X53500Y-25500D01*
G54D56*
X46250Y-28700D02*
X45500Y-29450D01*
X45500Y-29450D02*
X45500Y-33100D01*
G54D58*
X38250Y-49750D02*
X41250Y-49750D01*
X42250Y-50750D02*
X42250Y-51500D01*
X41250Y-49750D02*
X42250Y-50750D01*
X17650Y-51700D02*
X15550Y-51700D01*
X15550Y-51700D02*
X15200Y-51350D01*
X26250Y-49750D02*
X26250Y-49350D01*
X17700Y-51700D02*
X17650Y-51700D01*
X18800Y-50600D02*
X17700Y-51700D01*
X22600Y-50600D02*
X18800Y-50600D01*
X24250Y-48950D02*
X22600Y-50600D01*
X25850Y-48950D02*
X24250Y-48950D01*
X26250Y-49350D02*
X25850Y-48950D01*
G54D56*
X19100Y-52275D02*
X15075Y-52275D01*
X15075Y-52275D02*
X14200Y-51400D01*
G54D57*
X15075Y-52275D02*
X18275Y-52275D01*
X14200Y-51400D02*
X15075Y-52275D01*
G54D56*
X22775Y-52275D02*
X19100Y-52275D01*
X19100Y-52275D02*
X18275Y-52275D01*
X25250Y-49800D02*
X25250Y-49750D01*
X22775Y-52275D02*
X25250Y-49800D01*
X62500Y-17500D02*
X67100Y-17500D01*
X67850Y-16750D02*
X67850Y-15050D01*
X67100Y-17500D02*
X67850Y-16750D01*
X63250Y-17000D02*
X66300Y-17000D01*
X66300Y-17000D02*
X66850Y-16450D01*
X66850Y-16450D02*
X66850Y-15050D01*
G54D57*
X61500Y-16500D02*
X62000Y-17000D01*
X62000Y-17000D02*
X63250Y-17000D01*
G54D56*
X62500Y-16500D02*
X65600Y-16500D01*
X65950Y-16150D02*
X65950Y-15050D01*
X65600Y-16500D02*
X65950Y-16150D01*
X63250Y-16000D02*
X63650Y-16000D01*
X63500Y-16000D02*
X63650Y-16000D01*
X65050Y-15750D02*
X65050Y-15050D01*
X64800Y-16000D02*
X65050Y-15750D01*
X63650Y-16000D02*
X64800Y-16000D01*
G54D57*
X61500Y-15500D02*
X62000Y-16000D01*
X62000Y-16000D02*
X63250Y-16000D01*
X63250Y-16000D02*
X63500Y-16000D01*
G54D56*
X62500Y-15500D02*
X63700Y-15500D01*
X63700Y-15500D02*
X64150Y-15050D01*
X63750Y-15500D02*
X62500Y-15500D01*
X64150Y-15050D02*
X63750Y-15500D01*
X47250Y-14750D02*
X47250Y-14400D01*
X50500Y-14000D02*
X51000Y-14500D01*
X47650Y-14000D02*
X50500Y-14000D01*
X47250Y-14400D02*
X47650Y-14000D01*
X51500Y-14500D02*
X51000Y-14500D01*
X52125Y-13625D02*
X46725Y-13625D01*
X46725Y-13625D02*
X46250Y-14100D01*
X46250Y-14100D02*
X46250Y-14750D01*
X52500Y-14000D02*
X52500Y-14500D01*
X52125Y-13625D02*
X52500Y-14000D01*
X45250Y-14750D02*
X45250Y-13800D01*
X45250Y-13800D02*
X45925Y-13125D01*
X52375Y-13125D02*
X45925Y-13125D01*
X52500Y-15500D02*
X53000Y-15000D01*
G54D57*
X53000Y-15000D02*
X53000Y-13750D01*
G54D56*
X53000Y-13750D02*
X52375Y-13125D01*
X44400Y-14750D02*
X44400Y-13400D01*
X44400Y-13400D02*
X45175Y-12625D01*
X52625Y-12625D02*
X53500Y-13500D01*
X53500Y-13500D02*
X53500Y-14500D01*
X52625Y-12625D02*
X45175Y-12625D01*
X43500Y-14750D02*
X43500Y-13300D01*
X43500Y-13300D02*
X44675Y-12125D01*
X53875Y-12125D02*
X44675Y-12125D01*
X54500Y-12750D02*
X53875Y-12125D01*
X54500Y-14500D02*
X54500Y-12750D01*
X50000Y-39700D02*
X51750Y-39700D01*
X51750Y-39700D02*
X53500Y-37950D01*
X53500Y-28950D02*
X55000Y-27450D01*
X53500Y-37950D02*
X53500Y-28950D01*
X55000Y-27450D02*
X55000Y-27200D01*
G54D57*
X55500Y-25500D02*
X55450Y-25500D01*
X55000Y-25950D02*
X55000Y-27200D01*
X55450Y-25500D02*
X55000Y-25950D01*
G54D56*
X50000Y-39700D02*
X50000Y-40700D01*
X69250Y-39200D02*
X70500Y-37950D01*
X70500Y-37950D02*
X70500Y-24100D01*
X63300Y-23000D02*
X69400Y-23000D01*
G54D57*
X63300Y-23000D02*
X62000Y-23000D01*
X62000Y-23000D02*
X61500Y-22500D01*
G54D56*
X69400Y-23000D02*
X70500Y-24100D01*
X69250Y-39200D02*
X67000Y-39200D01*
G54D57*
X60250Y-39700D02*
X63700Y-39700D01*
X64200Y-39200D02*
X67000Y-39200D01*
X63700Y-39700D02*
X64200Y-39200D01*
G54D56*
X9625Y-15825D02*
X15375Y-15825D01*
X15375Y-15825D02*
X16000Y-15200D01*
X26000Y-17950D02*
X26000Y-23950D01*
X23250Y-15200D02*
X16000Y-15200D01*
X26000Y-17950D02*
X23250Y-15200D01*
X26000Y-23950D02*
X24750Y-25200D01*
X24750Y-25200D02*
X19500Y-25200D01*
X9250Y-15450D02*
X9625Y-15825D01*
X9250Y-14950D02*
X9250Y-15450D01*
X8750Y-16200D02*
X15750Y-16200D01*
X15750Y-16200D02*
X16250Y-15700D01*
X18750Y-24450D02*
X24500Y-24450D01*
X25250Y-23700D02*
X25250Y-18200D01*
X24500Y-24450D02*
X25250Y-23700D01*
X25250Y-18200D02*
X22750Y-15700D01*
X16250Y-15700D02*
X22750Y-15700D01*
X8250Y-14950D02*
X8250Y-15700D01*
X8250Y-15700D02*
X8750Y-16200D01*
X52750Y-33950D02*
X52750Y-28700D01*
X54000Y-27450D02*
X54000Y-27200D01*
X52750Y-28700D02*
X54000Y-27450D01*
G54D57*
X54000Y-26000D02*
X54000Y-27200D01*
X54000Y-26000D02*
X54500Y-25500D01*
G54D56*
X67750Y-29200D02*
X67750Y-33700D01*
X67750Y-33700D02*
X67250Y-34200D01*
X67000Y-34200D02*
X67250Y-34200D01*
G54D57*
X67000Y-34200D02*
X63750Y-34200D01*
X63250Y-34700D02*
X60250Y-34700D01*
X63750Y-34200D02*
X63250Y-34700D01*
G54D56*
X61500Y-27700D02*
X61500Y-26500D01*
X62000Y-28200D02*
X61500Y-27700D01*
X66750Y-28200D02*
X62000Y-28200D01*
X67750Y-29200D02*
X66750Y-28200D01*
X17675Y-42025D02*
X13125Y-42025D01*
X7800Y-41950D02*
X6900Y-41950D01*
X8400Y-42550D02*
X7800Y-41950D01*
X12600Y-42550D02*
X8400Y-42550D01*
X13125Y-42025D02*
X12600Y-42550D01*
G54D57*
X5750Y-41950D02*
X6900Y-41950D01*
X5750Y-41950D02*
X5250Y-41450D01*
X5250Y-41450D02*
X5250Y-38700D01*
X5250Y-38700D02*
X5500Y-38450D01*
X5500Y-38450D02*
X6250Y-38450D01*
G54D56*
X18600Y-31100D02*
X18600Y-39300D01*
X32000Y-23400D02*
X32000Y-21950D01*
X18600Y-31100D02*
X19350Y-30350D01*
X19350Y-30350D02*
X25050Y-30350D01*
X25050Y-30350D02*
X32000Y-23400D01*
X18600Y-39300D02*
X18450Y-39450D01*
X18450Y-39450D02*
X18450Y-41250D01*
X18450Y-41250D02*
X17675Y-42025D01*
X12250Y-23700D02*
X9000Y-23700D01*
X9000Y-23700D02*
X7750Y-22450D01*
X18300Y-42400D02*
X13550Y-42400D01*
X8100Y-42950D02*
X7550Y-42400D01*
X13000Y-42950D02*
X8100Y-42950D01*
X13550Y-42400D02*
X13000Y-42950D01*
X7550Y-42400D02*
X6300Y-42400D01*
X6300Y-42400D02*
X6250Y-42450D01*
X33000Y-23450D02*
X25500Y-30950D01*
X25500Y-30950D02*
X19850Y-30950D01*
X18800Y-40000D02*
X18800Y-41900D01*
X18800Y-41900D02*
X18300Y-42400D01*
X33000Y-23450D02*
X33000Y-22950D01*
X18800Y-40000D02*
X19150Y-39650D01*
X19850Y-30950D02*
X19150Y-31650D01*
X19150Y-31650D02*
X19150Y-39650D01*
X6250Y-43450D02*
X13250Y-43450D01*
X13250Y-43450D02*
X13800Y-42900D01*
X18600Y-42900D02*
X13800Y-42900D01*
X35650Y-21800D02*
X26000Y-31450D01*
X26000Y-31450D02*
X20350Y-31450D01*
X19250Y-40300D02*
X19250Y-42250D01*
X19650Y-39900D02*
X19250Y-40300D01*
X19650Y-39900D02*
X19650Y-32150D01*
X19650Y-32150D02*
X20350Y-31450D01*
X19250Y-42250D02*
X18600Y-42900D01*
G54D58*
X64000Y-56000D02*
X60500Y-56000D01*
X60450Y-52250D02*
X60450Y-51350D01*
X59400Y-53300D02*
X60450Y-52250D01*
X59400Y-54900D02*
X59400Y-53300D01*
X60500Y-56000D02*
X59400Y-54900D01*
X66250Y-58000D02*
X66250Y-57000D01*
X64750Y-56750D02*
X64000Y-56000D01*
X66000Y-56750D02*
X64750Y-56750D01*
X66250Y-57000D02*
X66000Y-56750D01*
X82500Y-8750D02*
X81250Y-8750D01*
X81250Y-8750D02*
X79750Y-10250D01*
X79750Y-10250D02*
X75000Y-10250D01*
X60450Y-50350D02*
X59600Y-50350D01*
X71250Y-50000D02*
X71250Y-49000D01*
X71000Y-50250D02*
X71250Y-50000D01*
X63750Y-50250D02*
X71000Y-50250D01*
X62000Y-48500D02*
X63750Y-50250D01*
X60000Y-48500D02*
X62000Y-48500D01*
X59250Y-49250D02*
X60000Y-48500D01*
X59250Y-50000D02*
X59250Y-49250D01*
X59600Y-50350D02*
X59250Y-50000D01*
X64250Y-52000D02*
X63500Y-52000D01*
X61850Y-49350D02*
X60450Y-49350D01*
X62500Y-50000D02*
X61850Y-49350D01*
X62500Y-51000D02*
X62500Y-50000D01*
X63500Y-52000D02*
X62500Y-51000D01*
G54D56*
X48250Y-14800D02*
X50800Y-14800D01*
X50800Y-14800D02*
X51500Y-15500D01*
X42925Y-23375D02*
X46475Y-23375D01*
X46475Y-23375D02*
X48350Y-21500D01*
X28500Y-41250D02*
X28500Y-37800D01*
X48350Y-21500D02*
X50500Y-21500D01*
X28500Y-37800D02*
X42925Y-23375D01*
X28250Y-23950D02*
X28250Y-18200D01*
X43350Y-11100D02*
X57700Y-11100D01*
X41250Y-13200D02*
X43350Y-11100D01*
X33250Y-13200D02*
X41250Y-13200D01*
X28250Y-18200D02*
X33250Y-13200D01*
X24000Y-28200D02*
X17950Y-28200D01*
X17950Y-28200D02*
X16000Y-30150D01*
X17950Y-38900D02*
X17950Y-40500D01*
X16500Y-41050D02*
X16000Y-40550D01*
X17400Y-41050D02*
X16500Y-41050D01*
X17950Y-40500D02*
X17400Y-41050D01*
X16000Y-30150D02*
X16000Y-40550D01*
X28250Y-23950D02*
X24000Y-28200D01*
X59500Y-14500D02*
X59500Y-12900D01*
X59500Y-12900D02*
X57700Y-11100D01*
X43150Y-23900D02*
X46700Y-23900D01*
X46700Y-23900D02*
X48100Y-22500D01*
X50500Y-22500D02*
X48100Y-22500D01*
X29500Y-37550D02*
X29500Y-41250D01*
X43150Y-23900D02*
X29500Y-37550D01*
X22600Y-48500D02*
X22300Y-48500D01*
X19000Y-47950D02*
X17500Y-49450D01*
X21750Y-47950D02*
X19000Y-47950D01*
X22300Y-48500D02*
X21750Y-47950D01*
X27800Y-54450D02*
X27150Y-54450D01*
X19300Y-55850D02*
X17900Y-54450D01*
X25750Y-55850D02*
X19300Y-55850D01*
X27150Y-54450D02*
X25750Y-55850D01*
X13250Y-54450D02*
X12500Y-53700D01*
X12500Y-53700D02*
X12500Y-51700D01*
X12500Y-51700D02*
X13550Y-50650D01*
X13550Y-50650D02*
X16300Y-50650D01*
X16300Y-50650D02*
X17500Y-49450D01*
X17900Y-54450D02*
X13250Y-54450D01*
X43125Y-59325D02*
X49875Y-59325D01*
X49875Y-59325D02*
X51000Y-58200D01*
X27800Y-54450D02*
X38250Y-54450D01*
X38250Y-54450D02*
X43125Y-59325D01*
X51000Y-58200D02*
X51000Y-47950D01*
X53000Y-45950D02*
X67000Y-45950D01*
X51000Y-47950D02*
X53000Y-45950D01*
X68000Y-46950D02*
X67000Y-45950D01*
X72375Y-23075D02*
X72375Y-46325D01*
X71750Y-46950D02*
X68000Y-46950D01*
X72375Y-46325D02*
X71750Y-46950D01*
X62500Y-20500D02*
X69800Y-20500D01*
X69800Y-20500D02*
X72375Y-23075D01*
X57650Y-11600D02*
X43600Y-11600D01*
X28750Y-18700D02*
X28750Y-24150D01*
X33750Y-13700D02*
X28750Y-18700D01*
X41500Y-13700D02*
X33750Y-13700D01*
X43600Y-11600D02*
X41500Y-13700D01*
X24225Y-28675D02*
X18225Y-28675D01*
X18225Y-28675D02*
X16500Y-30400D01*
X16500Y-40000D02*
X16500Y-30400D01*
X16700Y-40200D02*
X16500Y-40000D01*
X28750Y-24150D02*
X24225Y-28675D01*
X59000Y-13650D02*
X59000Y-12950D01*
X59000Y-12950D02*
X57650Y-11600D01*
G54D57*
X59000Y-15000D02*
X59500Y-15500D01*
X59000Y-13650D02*
X59000Y-15000D01*
G54D56*
X50750Y-28200D02*
X51750Y-28200D01*
X52500Y-27450D02*
X52500Y-26500D01*
X51750Y-28200D02*
X52500Y-27450D01*
X51500Y-28200D02*
X50750Y-28200D01*
X50750Y-28200D02*
X44500Y-28200D01*
X45750Y-28200D02*
X44500Y-28200D01*
G54D57*
X51500Y-28200D02*
X45750Y-28200D01*
G54D56*
X46000Y-33800D02*
X44600Y-33800D01*
X43600Y-32800D02*
X43600Y-28800D01*
X44600Y-33800D02*
X43600Y-32800D01*
X48000Y-27600D02*
X51600Y-27600D01*
X43600Y-27800D02*
X44400Y-27000D01*
X43600Y-28800D02*
X43600Y-27800D01*
G54D57*
X52450Y-25500D02*
X52000Y-25950D01*
X52500Y-25500D02*
X52450Y-25500D01*
G54D56*
X48000Y-27600D02*
X47400Y-27000D01*
X47400Y-27000D02*
X44400Y-27000D01*
X51600Y-27600D02*
X52000Y-27200D01*
G54D57*
X52000Y-27200D02*
X52000Y-25950D01*
G54D56*
X50000Y-32700D02*
X47650Y-32700D01*
X46550Y-33800D02*
X46000Y-33800D01*
X47650Y-32700D02*
X46550Y-33800D01*
G54D57*
X59250Y-32700D02*
X60250Y-32700D01*
X58750Y-33200D02*
X59250Y-32700D01*
X55250Y-33200D02*
X58750Y-33200D01*
X55000Y-33450D02*
X55250Y-33200D01*
X54500Y-33450D02*
X55000Y-33450D01*
G54D56*
X50500Y-19500D02*
X42850Y-19500D01*
X27000Y-36800D02*
X27000Y-35350D01*
X27000Y-35350D02*
X42850Y-19500D01*
X50500Y-20500D02*
X42700Y-20500D01*
X42700Y-20500D02*
X28000Y-35200D01*
X28000Y-35800D02*
X28000Y-35200D01*
X43100Y-21000D02*
X29000Y-35100D01*
X43100Y-21000D02*
X49650Y-21000D01*
G54D57*
X51500Y-21500D02*
X51000Y-21000D01*
X51000Y-21000D02*
X49650Y-21000D01*
G54D56*
X43225Y-24425D02*
X47325Y-24425D01*
X47325Y-24425D02*
X48250Y-23500D01*
X30000Y-40600D02*
X30000Y-37650D01*
X48250Y-23500D02*
X50500Y-23500D01*
X30000Y-37650D02*
X43225Y-24425D01*
G54D57*
X30000Y-41750D02*
X30500Y-42250D01*
X30000Y-40600D02*
X30000Y-41750D01*
G54D56*
X43500Y-24900D02*
X47600Y-24900D01*
X47600Y-24900D02*
X48500Y-24000D01*
X31000Y-40550D02*
X31000Y-37400D01*
X31000Y-37400D02*
X43500Y-24900D01*
X49750Y-24000D02*
X48500Y-24000D01*
G54D57*
X51000Y-24000D02*
X49750Y-24000D01*
X51500Y-23500D02*
X51000Y-24000D01*
X31000Y-41750D02*
X31000Y-40550D01*
X31500Y-42250D02*
X31000Y-41750D01*
G54D56*
X43800Y-25450D02*
X47850Y-25450D01*
X47850Y-25450D02*
X48300Y-25000D01*
X49750Y-25000D02*
X48300Y-25000D01*
G54D57*
X51500Y-24500D02*
X51000Y-25000D01*
X51000Y-25000D02*
X49750Y-25000D01*
G54D56*
X32000Y-37250D02*
X32000Y-40550D01*
X43800Y-25450D02*
X32000Y-37250D01*
G54D57*
X32000Y-41750D02*
X32500Y-42250D01*
X32000Y-40550D02*
X32000Y-41750D01*
G54D56*
X51500Y-26500D02*
X44200Y-26500D01*
X44200Y-26500D02*
X42200Y-28500D01*
X42200Y-29400D02*
X42200Y-28500D01*
X44050Y-25950D02*
X48250Y-25950D01*
X48250Y-25950D02*
X48700Y-25500D01*
X44050Y-25950D02*
X41000Y-29000D01*
X48700Y-25500D02*
X50500Y-25500D01*
X41000Y-29950D02*
X41000Y-29000D01*
X40950Y-30000D02*
X41000Y-29950D01*
X24475Y-29175D02*
X18575Y-29175D01*
X18575Y-29175D02*
X17200Y-30550D01*
X17200Y-39450D02*
X17200Y-30550D01*
X24475Y-29175D02*
X30525Y-23125D01*
X30525Y-23125D02*
X30525Y-19275D01*
X33800Y-16000D02*
X49650Y-16000D01*
X30525Y-19275D02*
X33800Y-16000D01*
G54D57*
X51000Y-16000D02*
X49650Y-16000D01*
G54D56*
X51500Y-16500D02*
X51000Y-16000D01*
X24775Y-29725D02*
X19175Y-29725D01*
X19175Y-29725D02*
X18000Y-30900D01*
X17900Y-38050D02*
X18000Y-30900D01*
X50500Y-16500D02*
X34400Y-16500D01*
X34400Y-16500D02*
X31150Y-19750D01*
X31150Y-19750D02*
X31150Y-23350D01*
X31150Y-23350D02*
X24775Y-29725D01*
G54D57*
X51000Y-17000D02*
X49650Y-17000D01*
X51500Y-17500D02*
X51000Y-17000D01*
G54D56*
X23000Y-35650D02*
X23000Y-39550D01*
X23000Y-35650D02*
X41650Y-17000D01*
X49650Y-17000D02*
X41650Y-17000D01*
X24000Y-35500D02*
X42000Y-17500D01*
X24000Y-38900D02*
X24000Y-35500D01*
X42000Y-17500D02*
X50500Y-17500D01*
X42350Y-18000D02*
X49600Y-18000D01*
G54D57*
X51000Y-18000D02*
X49600Y-18000D01*
X51500Y-18500D02*
X51000Y-18000D01*
G54D56*
X25000Y-38350D02*
X25000Y-35350D01*
X25000Y-35350D02*
X42350Y-18000D01*
X42250Y-19000D02*
X49650Y-19000D01*
X26000Y-37650D02*
X26000Y-35250D01*
X26000Y-35250D02*
X42250Y-19000D01*
G54D57*
X51500Y-19500D02*
X51000Y-19000D01*
X51000Y-19000D02*
X49650Y-19000D01*
G54D56*
X3250Y-47700D02*
X3250Y-44450D01*
X40000Y-44450D02*
X40000Y-42950D01*
X22350Y-45450D02*
X39000Y-45450D01*
X39000Y-45450D02*
X40000Y-44450D01*
X18200Y-46500D02*
X21300Y-46500D01*
X21300Y-46500D02*
X22350Y-45450D01*
X15500Y-49200D02*
X18200Y-46500D01*
X4750Y-49200D02*
X15500Y-49200D01*
G54D57*
X40000Y-41750D02*
X40000Y-42950D01*
X40000Y-41750D02*
X39500Y-41250D01*
G54D56*
X3250Y-47700D02*
X4750Y-49200D01*
X71500Y-22950D02*
X71500Y-39200D01*
X71500Y-39200D02*
X70000Y-40700D01*
X66250Y-40700D02*
X70000Y-40700D01*
X63300Y-21000D02*
X69550Y-21000D01*
X69550Y-21000D02*
X71500Y-22950D01*
X62000Y-21000D02*
X61500Y-20500D01*
G54D57*
X62000Y-21000D02*
X63300Y-21000D01*
X63800Y-41200D02*
X58350Y-41200D01*
X64300Y-40700D02*
X63800Y-41200D01*
X57850Y-40700D02*
X56000Y-40700D01*
X66250Y-40700D02*
X64300Y-40700D01*
X58350Y-41200D02*
X57850Y-40700D01*
G54D56*
X3250Y-43450D02*
X3500Y-43450D01*
X3500Y-43450D02*
X4000Y-43950D01*
X4000Y-43950D02*
X4000Y-47200D01*
X4000Y-47200D02*
X5500Y-48700D01*
X15250Y-48700D02*
X5500Y-48700D01*
X17925Y-46025D02*
X15250Y-48700D01*
X17925Y-46025D02*
X21075Y-46025D01*
X21075Y-46025D02*
X22050Y-45050D01*
G54D57*
X39000Y-41750D02*
X38500Y-41250D01*
X39000Y-42950D02*
X39000Y-41750D01*
G54D56*
X38250Y-45050D02*
X39000Y-44300D01*
X22050Y-45050D02*
X38250Y-45050D01*
X39000Y-44300D02*
X39000Y-42950D01*
X70975Y-23225D02*
X70975Y-38475D01*
X70975Y-38475D02*
X69750Y-39700D01*
G54D57*
X63300Y-22000D02*
X62000Y-22000D01*
X62000Y-22000D02*
X61500Y-21500D01*
G54D56*
X69750Y-22000D02*
X63300Y-22000D01*
X70975Y-23225D02*
X69750Y-22000D01*
X66250Y-39700D02*
X69750Y-39700D01*
G54D57*
X56000Y-39700D02*
X57900Y-39700D01*
X57900Y-39700D02*
X58400Y-40200D01*
X58400Y-40200D02*
X63750Y-40200D01*
X63750Y-40200D02*
X64250Y-39700D01*
X64250Y-39700D02*
X66250Y-39700D01*
G54D56*
X3250Y-42450D02*
X3750Y-42450D01*
X3750Y-42450D02*
X4500Y-43200D01*
X4500Y-43200D02*
X4500Y-46950D01*
X5750Y-48200D02*
X15000Y-48200D01*
X4500Y-46950D02*
X5750Y-48200D01*
X38000Y-43700D02*
X38000Y-42950D01*
X21750Y-44650D02*
X20800Y-45600D01*
X17600Y-45600D02*
X15000Y-48200D01*
X20800Y-45600D02*
X17600Y-45600D01*
X37050Y-44650D02*
X38000Y-43700D01*
X21750Y-44650D02*
X37050Y-44650D01*
G54D57*
X37500Y-41250D02*
X38000Y-41750D01*
X38000Y-41750D02*
X38000Y-42950D01*
G54D56*
X69975Y-24725D02*
X69975Y-37225D01*
X69975Y-37225D02*
X68500Y-38700D01*
X68500Y-38700D02*
X66250Y-38700D01*
X69975Y-24725D02*
X68750Y-23500D01*
X68750Y-23500D02*
X62500Y-23500D01*
G54D57*
X66250Y-38700D02*
X64200Y-38700D01*
X64200Y-38700D02*
X63700Y-39200D01*
X63700Y-39200D02*
X58550Y-39200D01*
X58550Y-39200D02*
X58050Y-38700D01*
X58050Y-38700D02*
X56000Y-38700D01*
G54D56*
X5000Y-45450D02*
X5000Y-42700D01*
X5000Y-42700D02*
X3750Y-41450D01*
X3250Y-41450D02*
X3750Y-41450D01*
X20150Y-44250D02*
X15700Y-44250D01*
X5500Y-45950D02*
X5000Y-45450D01*
X7250Y-45950D02*
X5500Y-45950D01*
X8000Y-45200D02*
X7250Y-45950D01*
X14750Y-45200D02*
X8000Y-45200D01*
X15700Y-44250D02*
X14750Y-45200D01*
X69375Y-26575D02*
X69375Y-36575D01*
X69375Y-36575D02*
X68250Y-37700D01*
X34500Y-41250D02*
X34500Y-37400D01*
X45250Y-35650D02*
X45250Y-36800D01*
X44400Y-34800D02*
X45250Y-35650D01*
X37100Y-34800D02*
X44400Y-34800D01*
X34500Y-37400D02*
X37100Y-34800D01*
X67800Y-25000D02*
X63300Y-25000D01*
X34475Y-43425D02*
X35000Y-42900D01*
G54D57*
X34500Y-41300D02*
X35000Y-41800D01*
X35000Y-41800D02*
X35000Y-42900D01*
G54D56*
X34500Y-41250D02*
X34500Y-41300D01*
X20975Y-43425D02*
X20150Y-44250D01*
X34475Y-43425D02*
X20975Y-43425D01*
G54D57*
X62000Y-25000D02*
X63300Y-25000D01*
X62000Y-25000D02*
X61500Y-24500D01*
G54D56*
X66250Y-37700D02*
X68250Y-37700D01*
X67800Y-25000D02*
X69375Y-26575D01*
G54D57*
X56000Y-37700D02*
X58050Y-37700D01*
X64000Y-37700D02*
X66250Y-37700D01*
X63500Y-38200D02*
X64000Y-37700D01*
X58550Y-38200D02*
X63500Y-38200D01*
X58050Y-37700D02*
X58550Y-38200D01*
G54D56*
X5500Y-45200D02*
X5500Y-42450D01*
X4500Y-40950D02*
X4000Y-40450D01*
X4500Y-41450D02*
X4500Y-40950D01*
X5500Y-42450D02*
X4500Y-41450D01*
X3250Y-40450D02*
X4000Y-40450D01*
X19925Y-43775D02*
X15175Y-43775D01*
X5750Y-45450D02*
X5500Y-45200D01*
X7000Y-45450D02*
X5750Y-45450D01*
X7750Y-44700D02*
X7000Y-45450D01*
X14250Y-44700D02*
X7750Y-44700D01*
X15175Y-43775D02*
X14250Y-44700D01*
X20650Y-43050D02*
X19925Y-43775D01*
X33800Y-43050D02*
X20650Y-43050D01*
X68775Y-27175D02*
X68775Y-35675D01*
X68775Y-35675D02*
X67750Y-36700D01*
X33500Y-41250D02*
X33500Y-41400D01*
G54D57*
X34000Y-41900D02*
X34000Y-42850D01*
X33500Y-41400D02*
X34000Y-41900D01*
X34000Y-42850D02*
X33800Y-43050D01*
G54D56*
X33500Y-41250D02*
X33500Y-37200D01*
X46250Y-35000D02*
X46250Y-36750D01*
X45550Y-34300D02*
X46250Y-35000D01*
X36400Y-34300D02*
X45550Y-34300D01*
X33500Y-37200D02*
X36400Y-34300D01*
X66250Y-36700D02*
X67750Y-36700D01*
X67100Y-25500D02*
X62500Y-25500D01*
X68775Y-27175D02*
X67100Y-25500D01*
G54D57*
X66250Y-36700D02*
X64000Y-36700D01*
X64000Y-36700D02*
X63500Y-37200D01*
X63500Y-37200D02*
X58750Y-37200D01*
X58750Y-37200D02*
X58250Y-36700D01*
X58250Y-36700D02*
X56000Y-36700D01*
G54D56*
X16798Y-44651D02*
X15000Y-46450D01*
X15000Y-46450D02*
X12750Y-46450D01*
X17749Y-44651D02*
X16798Y-44651D01*
X68250Y-28450D02*
X68250Y-34700D01*
X68250Y-34700D02*
X67250Y-35700D01*
X35500Y-41250D02*
X35500Y-37350D01*
X44200Y-35850D02*
X44200Y-36800D01*
X43800Y-35450D02*
X44200Y-35850D01*
X37400Y-35450D02*
X43800Y-35450D01*
X35500Y-37350D02*
X37400Y-35450D01*
X21250Y-43850D02*
X35600Y-43850D01*
X21250Y-43850D02*
X20450Y-44650D01*
X20450Y-44650D02*
X17749Y-44651D01*
G54D57*
X35500Y-41250D02*
X36000Y-41750D01*
X36000Y-41750D02*
X36000Y-42950D01*
G54D56*
X35600Y-43850D02*
X36000Y-43450D01*
X36000Y-43450D02*
X36000Y-42950D01*
X63450Y-27450D02*
X67250Y-27450D01*
X66250Y-35700D02*
X67250Y-35700D01*
X63450Y-27450D02*
X61500Y-25500D01*
X67250Y-27450D02*
X68250Y-28450D01*
G54D57*
X56000Y-35700D02*
X58250Y-35700D01*
X58250Y-35700D02*
X58750Y-36200D01*
X58750Y-36200D02*
X63400Y-36200D01*
X63400Y-36200D02*
X63900Y-35700D01*
X63900Y-35700D02*
X66250Y-35700D01*
G54D56*
X20650Y-45150D02*
X17050Y-45150D01*
X14750Y-47450D02*
X12750Y-47450D01*
X17050Y-45150D02*
X14750Y-47450D01*
G54D57*
X37000Y-41700D02*
X37000Y-42950D01*
G54D56*
X37000Y-43700D02*
X37000Y-42950D01*
X36450Y-44250D02*
X37000Y-43700D01*
G54D57*
X36500Y-41250D02*
X36550Y-41250D01*
X36550Y-41250D02*
X37000Y-41700D01*
X58800Y-35200D02*
X63750Y-35200D01*
X63750Y-35200D02*
X64250Y-34700D01*
X66250Y-34700D02*
X64250Y-34700D01*
X58300Y-34700D02*
X56000Y-34700D01*
X58800Y-35200D02*
X58300Y-34700D01*
G54D56*
X21550Y-44250D02*
X20650Y-45150D01*
X21550Y-44250D02*
X36450Y-44250D01*
X3250Y-37450D02*
X3000Y-37450D01*
X3000Y-37450D02*
X2500Y-37950D01*
X2500Y-47700D02*
X2500Y-37950D01*
G54D57*
X42000Y-41750D02*
X42000Y-42950D01*
X42500Y-41250D02*
X42000Y-41750D01*
G54D56*
X15750Y-49700D02*
X4500Y-49700D01*
X4500Y-49700D02*
X2500Y-47700D01*
X18500Y-46950D02*
X15750Y-49700D01*
X21500Y-46950D02*
X22625Y-45825D01*
X18500Y-46950D02*
X21500Y-46950D01*
X40375Y-45825D02*
X42000Y-44200D01*
X22625Y-45825D02*
X40375Y-45825D01*
X42000Y-44200D02*
X42000Y-42950D01*
X53750Y-39450D02*
X54250Y-38950D01*
X53750Y-39450D02*
X53750Y-41700D01*
X55250Y-33700D02*
X54250Y-34700D01*
X56000Y-33700D02*
X55250Y-33700D01*
X54250Y-38950D02*
X54250Y-34700D01*
G54D57*
X66250Y-33700D02*
X63000Y-33700D01*
X58250Y-33700D02*
X58750Y-34200D01*
X58750Y-34200D02*
X62500Y-34200D01*
X56000Y-33700D02*
X58250Y-33700D01*
X63000Y-33700D02*
X62500Y-34200D01*
G54D56*
X8875Y-12200D02*
X8000Y-12200D01*
X12500Y-10750D02*
X12200Y-10750D01*
X8000Y-12750D02*
X8000Y-12200D01*
X8300Y-13050D02*
X8000Y-12750D01*
X9900Y-13050D02*
X8300Y-13050D01*
X12200Y-10750D02*
X9900Y-13050D01*
G54D55*
X6250Y-39450D02*
X8250Y-39450D01*
X8750Y-38950D02*
X8750Y-36450D01*
X8250Y-39450D02*
X8750Y-38950D01*
X8750Y-36450D02*
X10250Y-36450D01*
X11500Y-32700D02*
X10750Y-32700D01*
X11750Y-32950D02*
X11500Y-32700D01*
X11750Y-34950D02*
X11750Y-32950D01*
X10250Y-36450D02*
X11750Y-34950D01*
X42350Y-15050D02*
X33650Y-15050D01*
X29750Y-18950D02*
X29750Y-22450D01*
X33650Y-15050D02*
X29750Y-18950D01*
X50500Y-15500D02*
X42800Y-15500D01*
X42800Y-15500D02*
X42350Y-15050D01*
G54D57*
X58500Y-14500D02*
X58500Y-14550D01*
X58000Y-15050D02*
X58000Y-17500D01*
X58500Y-14550D02*
X58000Y-15050D01*
G54D55*
X56800Y-17500D02*
X56800Y-22500D01*
X60250Y-42700D02*
X56000Y-42700D01*
X60250Y-42700D02*
X66250Y-42700D01*
X66250Y-42700D02*
X66250Y-41700D01*
X56000Y-41700D02*
X56000Y-42700D01*
G54D58*
X55950Y-42750D02*
X56000Y-42700D01*
X50050Y-42750D02*
X50000Y-42700D01*
X55950Y-42750D02*
X50050Y-42750D01*
G54D55*
X50000Y-46950D02*
X50000Y-42700D01*
X48500Y-48450D02*
X50000Y-46950D01*
X48500Y-51250D02*
X48500Y-48450D01*
X51500Y-22500D02*
X56800Y-22500D01*
X56800Y-22500D02*
X58500Y-22500D01*
X58500Y-25500D02*
X58500Y-24000D01*
X58500Y-24000D02*
X58500Y-22500D01*
X55500Y-15500D02*
X55500Y-16200D01*
X56800Y-17500D02*
X58000Y-17500D01*
X58000Y-17500D02*
X61500Y-17500D01*
X55500Y-16200D02*
X56800Y-17500D01*
G54D58*
X27700Y-50600D02*
X25300Y-50600D01*
X21650Y-54250D02*
X20000Y-54250D01*
X25300Y-50600D02*
X21650Y-54250D01*
X28250Y-49750D02*
X28250Y-50050D01*
X28250Y-50050D02*
X27700Y-50600D01*
G54D56*
X46100Y-55750D02*
X46750Y-55750D01*
X44750Y-55750D02*
X44950Y-55750D01*
X36250Y-46750D02*
X36250Y-47500D01*
X36250Y-47500D02*
X37000Y-48250D01*
X37000Y-48250D02*
X43500Y-48250D01*
X43500Y-48250D02*
X44500Y-49250D01*
X44500Y-49250D02*
X44500Y-55500D01*
X44500Y-55500D02*
X44750Y-55750D01*
G54D57*
X44950Y-55750D02*
X46100Y-55750D01*
G54D56*
X46750Y-55750D02*
X47250Y-56250D01*
X47250Y-56250D02*
X48500Y-56250D01*
X45500Y-55250D02*
X46500Y-55250D01*
X37250Y-47250D02*
X37750Y-47750D01*
X37250Y-46750D02*
X37250Y-47250D01*
X37750Y-47750D02*
X45250Y-47750D01*
X46500Y-55250D02*
X46750Y-55000D01*
X46750Y-55000D02*
X46750Y-49250D01*
X46750Y-49250D02*
X45250Y-47750D01*
X44000Y-56750D02*
X44000Y-49500D01*
X44000Y-56750D02*
X44500Y-57250D01*
X44500Y-57250D02*
X45500Y-57250D01*
X44000Y-49500D02*
X43250Y-48750D01*
X43250Y-48750D02*
X36000Y-48750D01*
X36000Y-48750D02*
X35250Y-48000D01*
X35250Y-48000D02*
X35250Y-46750D01*
X38250Y-9700D02*
X29500Y-9700D01*
X10250Y-14950D02*
X10250Y-13950D01*
X14500Y-13450D02*
X10750Y-13450D01*
X10750Y-13450D02*
X10250Y-13950D01*
X29500Y-9700D02*
X26800Y-7000D01*
X26800Y-7000D02*
X18100Y-7000D01*
X18100Y-7000D02*
X15750Y-9350D01*
X15750Y-9350D02*
X15750Y-12200D01*
X15750Y-12200D02*
X14500Y-13450D01*
X39750Y-8200D02*
X38250Y-9700D01*
X29250Y-10200D02*
X40700Y-10200D01*
X26500Y-7450D02*
X29250Y-10200D01*
X18450Y-7450D02*
X26500Y-7450D01*
X16250Y-9650D02*
X18450Y-7450D01*
X16250Y-12450D02*
X16250Y-9650D01*
X14750Y-13950D02*
X16250Y-12450D01*
X11250Y-14200D02*
X11250Y-14950D01*
X11500Y-13950D02*
X11250Y-14200D01*
X11500Y-13950D02*
X14750Y-13950D01*
X40700Y-10200D02*
X42300Y-8600D01*
X23250Y-18950D02*
X23250Y-23100D01*
X50750Y-30200D02*
X47550Y-30200D01*
X47550Y-30200D02*
X46850Y-29500D01*
X51000Y-37700D02*
X51500Y-37200D01*
X51500Y-37200D02*
X51500Y-30950D01*
X50000Y-37700D02*
X51000Y-37700D01*
X51500Y-30950D02*
X50750Y-30200D01*
X22850Y-18550D02*
X15850Y-18550D01*
X15850Y-18550D02*
X14350Y-17050D01*
X6750Y-15950D02*
X6750Y-15650D01*
G54D57*
X7500Y-11200D02*
X8000Y-11200D01*
X6750Y-11950D02*
X7500Y-11200D01*
X6750Y-15650D02*
X6750Y-11950D01*
G54D56*
X7850Y-17050D02*
X6750Y-15950D01*
X14350Y-17050D02*
X7850Y-17050D01*
X23250Y-18950D02*
X22850Y-18550D01*
G54D57*
X8000Y-10200D02*
X7500Y-10200D01*
X7500Y-10200D02*
X7000Y-9700D01*
X7000Y-8200D02*
X7750Y-7450D01*
X7000Y-9700D02*
X7000Y-8200D01*
X7750Y-6263D02*
X8250Y-5763D01*
X7750Y-7450D02*
X7750Y-6263D01*
G54D56*
X10250Y-8500D02*
X8950Y-8500D01*
X8950Y-8500D02*
X8750Y-8700D01*
X8750Y-8700D02*
X8000Y-8700D01*
G54D57*
X8000Y-9700D02*
X7600Y-9700D01*
X8250Y-7700D02*
X8250Y-6550D01*
X7450Y-8500D02*
X8250Y-7700D01*
X7450Y-9550D02*
X7450Y-8500D01*
X7600Y-9700D02*
X7450Y-9550D01*
G54D56*
X24150Y-18800D02*
X24150Y-23050D01*
X49000Y-41200D02*
X49500Y-41700D01*
X49000Y-38700D02*
X49000Y-41200D01*
X49500Y-38200D02*
X49000Y-38700D01*
X49500Y-41700D02*
X50000Y-41700D01*
G54D57*
X51250Y-38200D02*
X49500Y-38200D01*
G54D56*
X52000Y-37450D02*
X51250Y-38200D01*
X52000Y-30700D02*
X50750Y-29450D01*
X52000Y-37450D02*
X52000Y-30700D01*
X50750Y-29450D02*
X47950Y-29450D01*
X16100Y-18100D02*
X14600Y-16600D01*
X23450Y-18100D02*
X16100Y-18100D01*
X24150Y-18800D02*
X23450Y-18100D01*
X14600Y-16600D02*
X8150Y-16600D01*
X8150Y-16600D02*
X7750Y-16200D01*
X7750Y-16200D02*
X7750Y-15700D01*
G54D57*
X7500Y-11700D02*
X7250Y-11950D01*
X7250Y-11950D02*
X7250Y-13450D01*
X7250Y-13450D02*
X7750Y-13950D01*
X7750Y-13950D02*
X7750Y-15700D01*
X8000Y-11700D02*
X7500Y-11700D01*
G54D56*
X8000Y-10700D02*
X8750Y-10700D01*
X8750Y-10700D02*
X9625Y-11575D01*
X9625Y-11575D02*
X9625Y-12200D01*
X10250Y-10500D02*
X10250Y-9950D01*
X10250Y-9950D02*
X9500Y-9200D01*
X9500Y-9200D02*
X8000Y-9200D01*
X4750Y-34950D02*
X2750Y-34950D01*
G54D58*
X70750Y-56450D02*
X69950Y-56450D01*
X69250Y-57150D02*
X69250Y-58000D01*
X69950Y-56450D02*
X69250Y-57150D01*
X72250Y-56450D02*
X73250Y-55450D01*
X70750Y-56450D02*
X72250Y-56450D01*
X70250Y-58000D02*
X70250Y-58600D01*
X65250Y-58800D02*
X65250Y-58000D01*
X65550Y-59100D02*
X65250Y-58800D01*
X69750Y-59100D02*
X65550Y-59100D01*
X70250Y-58600D02*
X69750Y-59100D01*
X60500Y-54000D02*
X60500Y-53350D01*
X67250Y-52500D02*
X67250Y-52000D01*
X66800Y-52950D02*
X67250Y-52500D01*
X60900Y-52950D02*
X66800Y-52950D01*
X60500Y-53350D02*
X60900Y-52950D01*
G54D55*
X22175Y-49975D02*
X17975Y-49975D01*
X23650Y-48500D02*
X29550Y-48500D01*
X29550Y-48500D02*
X30250Y-49200D01*
X30250Y-49200D02*
X30250Y-49750D01*
X22175Y-49975D02*
X23650Y-48500D01*
X17975Y-49975D02*
X17000Y-50950D01*
X1250Y-50250D02*
X500Y-49500D01*
X500Y-49500D02*
X500Y-28200D01*
G54D57*
X6000Y-12200D02*
X5750Y-12200D01*
X5750Y-12200D02*
X5250Y-12700D01*
G54D55*
X1475Y-11675D02*
X4475Y-11675D01*
X5250Y-13200D02*
X6250Y-14200D01*
X5250Y-12450D02*
X5250Y-12700D01*
X5250Y-12700D02*
X5250Y-13200D01*
X4475Y-11675D02*
X5250Y-12450D01*
X1500Y-28200D02*
X500Y-28200D01*
X8750Y-33450D02*
X8750Y-32200D01*
X10250Y-37950D02*
X10250Y-41450D01*
X12500Y-35700D02*
X10250Y-37950D01*
X12500Y-32450D02*
X12500Y-35700D01*
X11750Y-31700D02*
X12500Y-32450D01*
X9250Y-31700D02*
X11750Y-31700D01*
X8750Y-32200D02*
X9250Y-31700D01*
X6250Y-41450D02*
X10250Y-41450D01*
X10250Y-41450D02*
X12200Y-41450D01*
X12200Y-41450D02*
X12250Y-41400D01*
X6250Y-14200D02*
X6250Y-14950D01*
X500Y-12650D02*
X1475Y-11675D01*
X500Y-28200D02*
X500Y-12650D01*
X69550Y-18600D02*
X71850Y-18600D01*
X73250Y-47650D02*
X73250Y-48250D01*
X73950Y-46950D02*
X73250Y-47650D01*
X73950Y-20700D02*
X73950Y-46950D01*
X71850Y-18600D02*
X73950Y-20700D01*
X59250Y-21250D02*
X59250Y-23350D01*
X60500Y-24600D02*
X60500Y-25500D01*
X59250Y-23350D02*
X60500Y-24600D01*
X69550Y-18600D02*
X69550Y-7800D01*
X69050Y-19100D02*
X69550Y-18600D01*
X79750Y-8750D02*
X79750Y-8350D01*
X79750Y-8350D02*
X79200Y-7800D01*
X79200Y-7800D02*
X69550Y-7800D01*
X69550Y-7800D02*
X62200Y-7800D01*
X62200Y-7800D02*
X61550Y-7150D01*
X61550Y-7150D02*
X58600Y-7150D01*
X58600Y-7150D02*
X58000Y-6550D01*
X58000Y-6550D02*
X58000Y-5750D01*
G54D58*
X51500Y-25500D02*
X51500Y-25450D01*
X53000Y-23950D02*
X55000Y-23950D01*
X51500Y-25450D02*
X53000Y-23950D01*
G54D55*
X53500Y-15500D02*
X53500Y-19750D01*
X53500Y-19750D02*
X55000Y-21250D01*
X56000Y-32700D02*
X57750Y-32700D01*
X58750Y-31700D02*
X60250Y-31700D01*
X57750Y-32700D02*
X58750Y-31700D01*
X48750Y-35700D02*
X47750Y-36700D01*
X45250Y-42250D02*
X47750Y-39750D01*
X42500Y-42250D02*
X45250Y-42250D01*
X47750Y-36700D02*
X47750Y-39750D01*
X50000Y-33700D02*
X49250Y-33700D01*
X49250Y-33700D02*
X48750Y-34200D01*
X48750Y-34200D02*
X48750Y-35700D01*
X48750Y-35700D02*
X50000Y-35700D01*
G54D56*
X44100Y-22750D02*
X42850Y-22750D01*
X42850Y-22750D02*
X39250Y-26350D01*
X39850Y-25750D02*
X39850Y-25700D01*
X42800Y-22750D02*
X44100Y-22750D01*
X44100Y-22750D02*
X45250Y-22750D01*
X39850Y-25700D02*
X42800Y-22750D01*
X27500Y-38100D02*
X39250Y-26350D01*
X27500Y-41250D02*
X27500Y-38100D01*
X39250Y-26350D02*
X39850Y-25750D01*
X15500Y-50200D02*
X16000Y-50200D01*
X16000Y-50200D02*
X18750Y-47450D01*
X18750Y-47450D02*
X22250Y-47450D01*
X22250Y-47450D02*
X23000Y-46700D01*
X2250Y-36450D02*
X4250Y-36450D01*
X5250Y-37450D02*
X6250Y-37450D01*
X4250Y-36450D02*
X5250Y-37450D01*
X15500Y-50200D02*
X4000Y-50200D01*
X4000Y-50200D02*
X1750Y-47950D01*
X1750Y-36950D02*
X1750Y-47950D01*
X2250Y-36450D02*
X1750Y-36950D01*
X24050Y-47750D02*
X23000Y-46700D01*
X32950Y-47750D02*
X24050Y-47750D01*
X32950Y-47750D02*
X33250Y-47450D01*
X33250Y-47450D02*
X33250Y-46750D01*
X14000Y-43950D02*
X7500Y-43950D01*
X7000Y-44450D02*
X6250Y-44450D01*
X7500Y-43950D02*
X7000Y-44450D01*
X19400Y-43350D02*
X14600Y-43350D01*
X14600Y-43350D02*
X14000Y-43950D01*
X19400Y-43350D02*
X19750Y-43000D01*
X19750Y-43000D02*
X19750Y-40600D01*
X19750Y-40600D02*
X20100Y-40250D01*
X20100Y-40250D02*
X26500Y-40250D01*
X56500Y-29200D02*
X54500Y-29200D01*
X42750Y-22150D02*
X43850Y-22150D01*
X26500Y-41250D02*
X26500Y-38400D01*
X26500Y-38400D02*
X42750Y-22150D01*
X26500Y-40250D02*
X26500Y-41250D01*
X56000Y-31700D02*
X56000Y-31200D01*
X56000Y-31200D02*
X56500Y-30700D01*
X56500Y-30700D02*
X56500Y-26500D01*
X66250Y-31700D02*
X63750Y-31700D01*
X62750Y-30700D02*
X56500Y-30700D01*
X63750Y-31700D02*
X62750Y-30700D01*
G54D57*
X56500Y-26500D02*
X56500Y-29200D01*
M02*
