M48
;DRILL file {Pcbnew (2013-07-07 BZR 4022)-stable} date 28/12/2022 13:18:49
;FORMAT={-:-/ absolute / inch / decimal}
FMAT,2
INCH,TZ
T1C0.020
T2C0.030
T3C0.031
T4C0.032
T5C0.039
T6C0.040
T7C0.045
T8C0.050
T9C0.055
T10C0.059
T11C0.064
T12C0.120
%
G90
G05
M72
T1
X1.225Y-2.37
X1.275Y-4.645
X1.275Y-4.745
X1.42Y-5.14
X1.52Y-5.135
X1.67Y-4.02
X1.72Y-3.945
X1.79Y-3.805
X1.795Y-3.89
X1.875Y-2.445
X1.95Y-2.52
X2.Y-5.425
X2.26Y-4.85
X2.3Y-3.955
X2.3Y-4.67
X2.325Y-2.31
X2.4Y-3.89
X2.415Y-2.305
X2.5Y-3.835
X2.6Y-3.765
X2.7Y-3.68
X2.8Y-3.58
X2.9Y-3.51
X3.2Y-2.195
X3.3Y-2.295
X3.565Y-2.18
X3.975Y-0.82
X4.095Y-3.
X4.22Y-2.94
X4.23Y-0.86
X4.35Y-1.475
X4.36Y-2.88
X4.385Y-2.215
X4.42Y-3.68
X4.44Y-1.475
X4.45Y-2.82
X4.525Y-1.475
X4.525Y-2.275
X4.525Y-3.68
X4.55Y-3.31
X4.625Y-1.475
X4.625Y-3.675
X4.685Y-2.95
X4.725Y-1.475
X4.795Y-2.945
X4.825Y-1.48
X5.275Y-3.395
X5.45Y-2.92
X5.45Y-3.345
X6.415Y-1.505
X6.505Y-1.505
X6.595Y-1.505
X6.685Y-1.505
X6.785Y-1.505
T2
X1.025Y-0.85
X1.025Y-1.05
T3
X0.125Y-5.025
X1.225Y-4.14
X1.7Y-5.095
X2.05Y-4.125
X2.05Y-4.225
X2.15Y-4.125
X2.15Y-4.225
X2.25Y-4.125
X2.25Y-4.225
X2.35Y-4.125
X2.35Y-4.225
X2.45Y-4.125
X2.45Y-4.225
X2.55Y-4.125
X2.55Y-4.225
X2.625Y-5.15
X2.65Y-4.125
X2.65Y-4.225
X2.725Y-1.095
X2.725Y-5.15
X2.75Y-4.125
X2.75Y-4.225
X2.825Y-5.15
X2.85Y-4.125
X2.85Y-4.225
X2.925Y-5.15
X2.95Y-4.125
X2.95Y-4.225
X2.975Y-2.245
X3.025Y-5.15
X3.05Y-4.125
X3.05Y-4.225
X3.125Y-5.15
X3.15Y-4.125
X3.15Y-4.225
X3.225Y-5.15
X3.25Y-4.125
X3.25Y-4.225
X3.325Y-5.15
X3.35Y-4.125
X3.35Y-4.225
X3.425Y-5.15
X3.45Y-4.125
X3.45Y-4.225
X3.525Y-5.15
X3.55Y-4.125
X3.55Y-4.225
X3.625Y-5.15
X3.65Y-4.125
X3.65Y-4.225
X3.725Y-5.15
X3.75Y-4.125
X3.75Y-4.225
X3.825Y-5.15
X3.85Y-4.125
X3.85Y-4.225
X3.925Y-5.15
X3.95Y-4.125
X3.95Y-4.225
X4.025Y-5.15
X4.05Y-4.125
X4.05Y-4.225
X4.125Y-5.15
X4.15Y-4.125
X4.15Y-4.225
X4.235Y-1.505
X5.375Y-4.17
X5.5Y-2.125
X5.5Y-2.395
X5.85Y-2.4
X5.925Y-2.125
X6.905Y-1.91
X7.5Y-1.025
T4
X0.15Y-1.545
X0.15Y-1.77
X0.175Y-1.995
X0.175Y-2.12
X0.175Y-3.045
X0.175Y-3.345
X0.175Y-3.495
X0.25Y-1.545
X0.25Y-1.77
X0.275Y-2.32
X0.275Y-2.52
X0.275Y-2.82
X0.275Y-3.045
X0.275Y-3.345
X0.275Y-3.495
X0.325Y-3.745
X0.325Y-3.845
X0.325Y-3.945
X0.325Y-4.045
X0.325Y-4.145
X0.325Y-4.245
X0.325Y-4.345
X0.325Y-4.445
X0.375Y-2.12
X0.375Y-2.32
X0.375Y-2.52
X0.375Y-2.82
X0.375Y-3.045
X0.375Y-3.345
X0.475Y-2.52
X0.475Y-2.82
X0.475Y-3.045
X0.475Y-3.345
X0.475Y-3.495
X0.575Y-1.995
X0.575Y-2.52
X0.575Y-2.82
X0.575Y-3.045
X0.575Y-3.345
X0.575Y-3.495
X0.625Y-1.495
X0.625Y-1.795
X0.625Y-3.745
X0.625Y-3.845
X0.625Y-3.945
X0.625Y-4.045
X0.625Y-4.145
X0.625Y-4.245
X0.625Y-4.345
X0.625Y-4.445
X0.675Y-3.045
X0.675Y-3.345
X0.675Y-3.495
X0.725Y-0.5763
X0.725Y-0.655
X0.725Y-1.495
X0.725Y-1.795
X0.75Y-3.645
X0.75Y-4.045
X0.775Y-3.045
X0.775Y-3.345
X0.775Y-3.495
X0.825Y-0.5763
X0.825Y-0.655
X0.825Y-1.495
X0.825Y-1.795
X0.825Y-1.97
X0.825Y-2.82
X0.825Y-2.92
X0.875Y-3.045
X0.875Y-3.345
X0.875Y-3.495
X0.875Y-3.645
X0.875Y-4.045
X0.925Y-1.495
X0.925Y-1.795
X0.925Y-1.97
X0.975Y-3.495
X1.025Y-1.495
X1.025Y-1.795
X1.075Y-3.27
X1.075Y-3.37
X1.125Y-1.495
X1.125Y-1.795
X1.225Y-1.495
X1.225Y-1.795
X1.25Y-0.85
X1.25Y-0.95
X1.25Y-1.075
X1.25Y-1.175
X1.325Y-1.495
X1.325Y-1.795
X1.63Y-5.355
X1.63Y-5.755
X1.725Y-1.645
X1.725Y-1.745
X1.75Y-5.355
X1.75Y-5.755
X2.525Y-4.675
X2.525Y-4.975
X2.625Y-4.675
X2.625Y-4.975
X2.725Y-4.675
X2.725Y-4.975
X2.825Y-4.675
X2.825Y-4.975
X2.925Y-4.675
X2.925Y-4.975
X3.025Y-4.675
X3.025Y-4.975
X3.075Y-0.575
X3.125Y-4.675
X3.125Y-4.975
X3.175Y-0.575
X3.225Y-4.675
X3.225Y-4.975
X3.325Y-4.675
X3.325Y-4.975
X3.425Y-4.675
X3.425Y-4.975
X3.525Y-4.675
X3.525Y-4.975
X3.625Y-4.675
X3.625Y-4.975
X3.725Y-4.675
X3.725Y-4.975
X3.825Y-4.675
X3.825Y-4.975
X4.225Y-5.15
X4.25Y-4.125
X4.25Y-4.225
X4.55Y-5.125
X4.55Y-5.225
X4.55Y-5.325
X4.55Y-5.425
X4.55Y-5.525
X4.55Y-5.625
X4.55Y-5.725
X4.55Y-5.825
X4.85Y-5.125
X4.85Y-5.225
X4.85Y-5.325
X4.85Y-5.425
X4.85Y-5.525
X4.85Y-5.625
X4.85Y-5.725
X4.85Y-5.825
X5.Y-3.17
X5.Y-3.27
X5.Y-3.37
X5.Y-3.47
X5.Y-3.57
X5.Y-3.67
X5.Y-3.77
X5.Y-3.87
X5.Y-3.97
X5.Y-4.07
X5.Y-4.17
X5.Y-4.27
X5.05Y-1.55
X5.05Y-1.65
X5.05Y-1.75
X5.05Y-1.85
X5.05Y-1.95
X5.05Y-2.05
X5.05Y-2.15
X5.05Y-2.25
X5.05Y-2.35
X5.05Y-2.45
X5.05Y-2.55
X5.15Y-1.45
X5.15Y-1.55
X5.15Y-1.65
X5.15Y-1.75
X5.15Y-1.85
X5.15Y-1.95
X5.15Y-2.05
X5.15Y-2.15
X5.15Y-2.25
X5.15Y-2.35
X5.15Y-2.45
X5.15Y-2.55
X5.15Y-2.65
X5.25Y-1.45
X5.25Y-1.55
X5.25Y-2.55
X5.25Y-2.65
X5.35Y-1.45
X5.35Y-1.55
X5.35Y-2.55
X5.35Y-2.65
X5.425Y-4.9
X5.425Y-5.2
X5.45Y-1.45
X5.45Y-1.55
X5.45Y-2.55
X5.45Y-2.65
X5.55Y-1.45
X5.55Y-1.55
X5.55Y-2.55
X5.55Y-2.65
X5.6Y-3.17
X5.6Y-3.27
X5.6Y-3.37
X5.6Y-3.47
X5.6Y-3.57
X5.6Y-3.67
X5.6Y-3.77
X5.6Y-3.87
X5.6Y-3.97
X5.6Y-4.07
X5.6Y-4.17
X5.6Y-4.27
X5.65Y-1.45
X5.65Y-1.55
X5.65Y-2.55
X5.65Y-2.65
X5.725Y-4.9
X5.725Y-5.2
X5.75Y-1.45
X5.75Y-1.55
X5.75Y-2.55
X5.75Y-2.65
X5.8Y-0.575
X5.85Y-1.45
X5.85Y-1.55
X5.85Y-2.55
X5.85Y-2.65
X5.9Y-0.575
X5.95Y-1.45
X5.95Y-1.55
X5.95Y-2.55
X5.95Y-2.65
X6.025Y-3.17
X6.025Y-3.27
X6.025Y-3.37
X6.025Y-3.47
X6.025Y-3.57
X6.025Y-3.67
X6.025Y-3.77
X6.025Y-3.87
X6.025Y-3.97
X6.025Y-4.07
X6.025Y-4.17
X6.025Y-4.27
X6.05Y-1.45
X6.05Y-1.55
X6.05Y-2.55
X6.05Y-2.65
X6.05Y-5.4
X6.05Y-5.7
X6.15Y-1.45
X6.15Y-1.55
X6.15Y-1.65
X6.15Y-1.75
X6.15Y-1.85
X6.15Y-1.95
X6.15Y-2.05
X6.15Y-2.15
X6.15Y-2.25
X6.15Y-2.35
X6.15Y-2.45
X6.15Y-2.55
X6.15Y-2.65
X6.175Y-5.4
X6.175Y-5.7
X6.225Y-4.675
X6.25Y-1.55
X6.25Y-1.65
X6.25Y-1.75
X6.25Y-1.85
X6.25Y-1.95
X6.25Y-2.05
X6.25Y-2.15
X6.25Y-2.25
X6.25Y-2.35
X6.25Y-2.45
X6.25Y-2.55
X6.3Y-5.4
X6.3Y-5.8
X6.425Y-4.775
X6.425Y-4.9
X6.425Y-5.2
X6.525Y-4.9
X6.525Y-5.2
X6.525Y-5.5
X6.525Y-5.8
X6.625Y-3.17
X6.625Y-3.27
X6.625Y-3.37
X6.625Y-3.47
X6.625Y-3.57
X6.625Y-3.67
X6.625Y-3.77
X6.625Y-3.87
X6.625Y-3.97
X6.625Y-4.07
X6.625Y-4.17
X6.625Y-4.27
X6.625Y-4.675
X6.625Y-4.775
X6.625Y-4.9
X6.625Y-5.2
X6.625Y-5.5
X6.625Y-5.8
X6.725Y-4.9
X6.725Y-5.2
X6.725Y-5.5
X6.725Y-5.8
X6.825Y-4.9
X6.825Y-5.2
X6.825Y-5.5
X6.825Y-5.8
X6.925Y-4.9
X6.925Y-5.2
X6.925Y-5.325
X6.925Y-5.5
X6.925Y-5.8
X7.025Y-4.9
X7.025Y-5.2
X7.025Y-5.5
X7.025Y-5.8
X7.125Y-4.9
X7.125Y-5.2
X7.125Y-5.325
X7.125Y-5.5
X7.125Y-5.8
X7.325Y-4.825
X7.325Y-5.225
X7.325Y-5.545
X7.325Y-5.745
X7.45Y-4.825
X7.45Y-5.225
X7.45Y-5.345
X7.45Y-5.745
T5
X0.15Y-2.32
X0.15Y-2.82
T6
X0.575Y-2.245
X0.775Y-2.245
X1.875Y-0.92
X1.875Y-1.02
X1.875Y-1.12
X1.875Y-1.22
X1.875Y-1.32
X1.875Y-1.42
X1.97Y-5.15
X2.07Y-5.15
X2.17Y-5.15
X3.26Y-0.745
X3.36Y-0.745
X3.46Y-0.745
X3.56Y-0.745
X3.66Y-0.745
X4.375Y-0.5
X4.575Y-0.5
X6.045Y-4.935
X6.045Y-5.035
X6.045Y-5.135
X7.1Y-0.5
X7.3Y-0.5
T7
X3.075Y-0.25
X3.175Y-0.25
X3.275Y-0.25
X5.8Y-0.25
X5.9Y-0.25
X6.Y-0.25
T8
X7.775Y-0.875
X7.875Y-0.475
X7.975Y-0.875
T9
X1.355Y-0.52
X1.45Y-0.125
X1.45Y-0.615
X1.65Y-0.525
X1.65Y-0.725
X1.85Y-0.125
X1.85Y-0.615
X1.945Y-0.52
T11
X8.25Y-0.475
X8.25Y-0.675
X8.25Y-0.875
X8.25Y-1.075
X8.25Y-1.275
X8.25Y-1.475
X8.25Y-1.675
T12
X2.175Y-3.48
X4.685Y-4.39
X6.115Y-1.025
X6.81Y-4.39
T10
X0.5388Y-0.4858G85X0.5388Y-0.4542
G05
X1.0112Y-0.4858G85X1.0112Y-0.4542
G05
T0
M30
