G04 (created by PCBNEW (2013-07-07 BZR 4022)-stable) date 28/12/2022 13:18:45*
%MOIN*%
G04 Gerber Fmt 3.4, Leading zero omitted, Abs format*
%FSLAX34Y34*%
G01*
G70*
G90*
G04 APERTURE LIST*
%ADD10C,0.00590551*%
%ADD11C,0.011811*%
%ADD12C,0.00787402*%
%ADD13C,0.0137795*%
%ADD14C,0.00393701*%
%ADD15C,0.008*%
%ADD16C,0.0125*%
%ADD17C,0.015*%
%ADD18C,0.005*%
%ADD19C,0.01*%
%ADD20C,0.012*%
%ADD21C,0.006*%
%ADD22C,0.0001*%
%ADD23C,0.0108*%
%ADD24C,0.01125*%
%ADD25C,0.00669291*%
%ADD26C,0.0075*%
G04 APERTURE END LIST*
G54D10*
G54D11*
X44073Y-42689D02*
X43735Y-42689D01*
X43904Y-42689D02*
X43904Y-42098D01*
X43848Y-42182D01*
X43792Y-42239D01*
X43735Y-42267D01*
X44523Y-42379D02*
X44607Y-42407D01*
X44635Y-42435D01*
X44664Y-42492D01*
X44664Y-42576D01*
X44635Y-42632D01*
X44607Y-42660D01*
X44551Y-42689D01*
X44326Y-42689D01*
X44326Y-42098D01*
X44523Y-42098D01*
X44579Y-42126D01*
X44607Y-42154D01*
X44635Y-42210D01*
X44635Y-42267D01*
X44607Y-42323D01*
X44579Y-42351D01*
X44523Y-42379D01*
X44326Y-42379D01*
X44015Y-41439D02*
X43678Y-41439D01*
X43846Y-41439D02*
X43846Y-40848D01*
X43790Y-40932D01*
X43734Y-40989D01*
X43678Y-41017D01*
X44240Y-41270D02*
X44521Y-41270D01*
X44184Y-41439D02*
X44381Y-40848D01*
X44578Y-41439D01*
G54D12*
X42373Y-52675D02*
X42126Y-52675D01*
X42250Y-52675D02*
X42250Y-52242D01*
X42208Y-52304D01*
X42167Y-52345D01*
X42126Y-52365D01*
G54D11*
X85973Y-8410D02*
X86057Y-8439D01*
X86198Y-8439D01*
X86254Y-8410D01*
X86282Y-8382D01*
X86311Y-8326D01*
X86311Y-8270D01*
X86282Y-8214D01*
X86254Y-8185D01*
X86198Y-8157D01*
X86086Y-8129D01*
X86029Y-8101D01*
X86001Y-8073D01*
X85973Y-8017D01*
X85973Y-7960D01*
X86001Y-7904D01*
X86029Y-7876D01*
X86086Y-7848D01*
X86226Y-7848D01*
X86311Y-7876D01*
X86676Y-8157D02*
X86676Y-8439D01*
X86479Y-7848D02*
X86676Y-8157D01*
X86873Y-7848D01*
X87070Y-8439D02*
X87070Y-7848D01*
X87407Y-8439D01*
X87407Y-7848D01*
X88026Y-8382D02*
X87998Y-8410D01*
X87913Y-8439D01*
X87857Y-8439D01*
X87773Y-8410D01*
X87717Y-8354D01*
X87688Y-8298D01*
X87660Y-8185D01*
X87660Y-8101D01*
X87688Y-7989D01*
X87717Y-7932D01*
X87773Y-7876D01*
X87857Y-7848D01*
X87913Y-7848D01*
X87998Y-7876D01*
X88026Y-7904D01*
X85790Y-3848D02*
X85987Y-4439D01*
X86184Y-3848D01*
X86381Y-4439D02*
X86381Y-3848D01*
X86662Y-4439D02*
X86662Y-3848D01*
X86803Y-3848D01*
X86887Y-3876D01*
X86943Y-3932D01*
X86971Y-3989D01*
X87000Y-4101D01*
X87000Y-4185D01*
X86971Y-4298D01*
X86943Y-4354D01*
X86887Y-4410D01*
X86803Y-4439D01*
X86662Y-4439D01*
X87253Y-4129D02*
X87449Y-4129D01*
X87534Y-4439D02*
X87253Y-4439D01*
X87253Y-3848D01*
X87534Y-3848D01*
X87899Y-3848D02*
X88012Y-3848D01*
X88068Y-3876D01*
X88124Y-3932D01*
X88152Y-4045D01*
X88152Y-4242D01*
X88124Y-4354D01*
X88068Y-4410D01*
X88012Y-4439D01*
X87899Y-4439D01*
X87843Y-4410D01*
X87787Y-4354D01*
X87759Y-4242D01*
X87759Y-4045D01*
X87787Y-3932D01*
X87843Y-3876D01*
X87899Y-3848D01*
X85959Y-12214D02*
X86409Y-12214D01*
X87000Y-12439D02*
X86662Y-12439D01*
X86831Y-12439D02*
X86831Y-11848D01*
X86775Y-11932D01*
X86718Y-11989D01*
X86662Y-12017D01*
X87224Y-11904D02*
X87253Y-11876D01*
X87309Y-11848D01*
X87449Y-11848D01*
X87506Y-11876D01*
X87534Y-11904D01*
X87562Y-11960D01*
X87562Y-12017D01*
X87534Y-12101D01*
X87196Y-12439D01*
X87562Y-12439D01*
X87731Y-11848D02*
X87928Y-12439D01*
X88124Y-11848D01*
X85959Y-14214D02*
X86409Y-14214D01*
X86184Y-14439D02*
X86184Y-13989D01*
X86662Y-13904D02*
X86690Y-13876D01*
X86746Y-13848D01*
X86887Y-13848D01*
X86943Y-13876D01*
X86971Y-13904D01*
X87000Y-13960D01*
X87000Y-14017D01*
X86971Y-14101D01*
X86634Y-14439D01*
X87000Y-14439D01*
X87365Y-13848D02*
X87421Y-13848D01*
X87478Y-13876D01*
X87506Y-13904D01*
X87534Y-13960D01*
X87562Y-14073D01*
X87562Y-14214D01*
X87534Y-14326D01*
X87506Y-14382D01*
X87478Y-14410D01*
X87421Y-14439D01*
X87365Y-14439D01*
X87309Y-14410D01*
X87281Y-14382D01*
X87253Y-14326D01*
X87224Y-14214D01*
X87224Y-14073D01*
X87253Y-13960D01*
X87281Y-13904D01*
X87309Y-13876D01*
X87365Y-13848D01*
X87731Y-13848D02*
X87928Y-14439D01*
X88124Y-13848D01*
X86490Y-16214D02*
X86940Y-16214D01*
X86715Y-16439D02*
X86715Y-15989D01*
X87306Y-16101D02*
X87250Y-16073D01*
X87221Y-16045D01*
X87193Y-15989D01*
X87193Y-15960D01*
X87221Y-15904D01*
X87250Y-15876D01*
X87306Y-15848D01*
X87418Y-15848D01*
X87474Y-15876D01*
X87503Y-15904D01*
X87531Y-15960D01*
X87531Y-15989D01*
X87503Y-16045D01*
X87474Y-16073D01*
X87418Y-16101D01*
X87306Y-16101D01*
X87250Y-16129D01*
X87221Y-16157D01*
X87193Y-16214D01*
X87193Y-16326D01*
X87221Y-16382D01*
X87250Y-16410D01*
X87306Y-16439D01*
X87418Y-16439D01*
X87474Y-16410D01*
X87503Y-16382D01*
X87531Y-16326D01*
X87531Y-16214D01*
X87503Y-16157D01*
X87474Y-16129D01*
X87418Y-16101D01*
X87699Y-15848D02*
X87896Y-16439D01*
X88093Y-15848D01*
G54D12*
X61172Y-51609D02*
X61172Y-51215D01*
X61292Y-51215D01*
X61322Y-51234D01*
X61337Y-51253D01*
X61352Y-51290D01*
X61352Y-51346D01*
X61337Y-51384D01*
X61322Y-51403D01*
X61292Y-51421D01*
X61172Y-51421D01*
X61487Y-51609D02*
X61487Y-51215D01*
X61607Y-51215D02*
X61817Y-51609D01*
X61817Y-51215D02*
X61607Y-51609D01*
X61937Y-51403D02*
X62042Y-51403D01*
X62087Y-51609D02*
X61937Y-51609D01*
X61937Y-51215D01*
X62087Y-51215D01*
X62372Y-51609D02*
X62222Y-51609D01*
X62222Y-51215D01*
X61190Y-49346D02*
X61190Y-49609D01*
X61190Y-49384D02*
X61205Y-49365D01*
X61235Y-49346D01*
X61280Y-49346D01*
X61310Y-49365D01*
X61325Y-49403D01*
X61325Y-49609D01*
X61430Y-49215D02*
X61535Y-49609D01*
X61640Y-49215D01*
X61730Y-49590D02*
X61775Y-49609D01*
X61850Y-49609D01*
X61880Y-49590D01*
X61895Y-49571D01*
X61910Y-49534D01*
X61910Y-49496D01*
X61895Y-49459D01*
X61880Y-49440D01*
X61850Y-49421D01*
X61790Y-49403D01*
X61760Y-49384D01*
X61745Y-49365D01*
X61730Y-49328D01*
X61730Y-49290D01*
X61745Y-49253D01*
X61760Y-49234D01*
X61790Y-49215D01*
X61865Y-49215D01*
X61910Y-49234D01*
X62104Y-49421D02*
X62104Y-49609D01*
X62000Y-49215D02*
X62104Y-49421D01*
X62209Y-49215D01*
X62314Y-49609D02*
X62314Y-49215D01*
X62494Y-49609D01*
X62494Y-49215D01*
X62824Y-49571D02*
X62809Y-49590D01*
X62764Y-49609D01*
X62734Y-49609D01*
X62689Y-49590D01*
X62659Y-49553D01*
X62644Y-49515D01*
X62629Y-49440D01*
X62629Y-49384D01*
X62644Y-49309D01*
X62659Y-49271D01*
X62689Y-49234D01*
X62734Y-49215D01*
X62764Y-49215D01*
X62809Y-49234D01*
X62824Y-49253D01*
X61167Y-50346D02*
X61167Y-50609D01*
X61167Y-50384D02*
X61182Y-50365D01*
X61212Y-50346D01*
X61257Y-50346D01*
X61287Y-50365D01*
X61302Y-50403D01*
X61302Y-50609D01*
X61632Y-50571D02*
X61617Y-50590D01*
X61572Y-50609D01*
X61542Y-50609D01*
X61497Y-50590D01*
X61467Y-50553D01*
X61452Y-50515D01*
X61437Y-50440D01*
X61437Y-50384D01*
X61452Y-50309D01*
X61467Y-50271D01*
X61497Y-50234D01*
X61542Y-50215D01*
X61572Y-50215D01*
X61617Y-50234D01*
X61632Y-50253D01*
X61752Y-50590D02*
X61797Y-50609D01*
X61872Y-50609D01*
X61902Y-50590D01*
X61917Y-50571D01*
X61932Y-50534D01*
X61932Y-50496D01*
X61917Y-50459D01*
X61902Y-50440D01*
X61872Y-50421D01*
X61812Y-50403D01*
X61782Y-50384D01*
X61767Y-50365D01*
X61752Y-50328D01*
X61752Y-50290D01*
X61767Y-50253D01*
X61782Y-50234D01*
X61812Y-50215D01*
X61887Y-50215D01*
X61932Y-50234D01*
X62127Y-50421D02*
X62127Y-50609D01*
X62022Y-50215D02*
X62127Y-50421D01*
X62232Y-50215D01*
X62337Y-50609D02*
X62337Y-50215D01*
X62517Y-50609D01*
X62517Y-50215D01*
X62847Y-50571D02*
X62832Y-50590D01*
X62787Y-50609D01*
X62757Y-50609D01*
X62712Y-50590D01*
X62682Y-50553D01*
X62667Y-50515D01*
X62652Y-50440D01*
X62652Y-50384D01*
X62667Y-50309D01*
X62682Y-50271D01*
X62712Y-50234D01*
X62757Y-50215D01*
X62787Y-50215D01*
X62832Y-50234D01*
X62847Y-50253D01*
G54D13*
X76887Y-2981D02*
X77150Y-3768D01*
X77412Y-2981D01*
X77675Y-3768D02*
X77675Y-2981D01*
X78050Y-3768D02*
X78050Y-2981D01*
X78237Y-2981D01*
X78350Y-3018D01*
X78425Y-3093D01*
X78462Y-3168D01*
X78500Y-3318D01*
X78500Y-3431D01*
X78462Y-3581D01*
X78425Y-3656D01*
X78350Y-3731D01*
X78237Y-3768D01*
X78050Y-3768D01*
X78837Y-3356D02*
X79099Y-3356D01*
X79212Y-3768D02*
X78837Y-3768D01*
X78837Y-2981D01*
X79212Y-2981D01*
X79699Y-2981D02*
X79849Y-2981D01*
X79924Y-3018D01*
X79999Y-3093D01*
X80037Y-3243D01*
X80037Y-3506D01*
X79999Y-3656D01*
X79924Y-3731D01*
X79849Y-3768D01*
X79699Y-3768D01*
X79624Y-3731D01*
X79549Y-3656D01*
X79512Y-3506D01*
X79512Y-3243D01*
X79549Y-3093D01*
X79624Y-3018D01*
X79699Y-2981D01*
X11731Y-6737D02*
X12293Y-6737D01*
X12406Y-6774D01*
X12481Y-6849D01*
X12518Y-6962D01*
X12518Y-7037D01*
X11731Y-6212D02*
X11731Y-6062D01*
X11768Y-5987D01*
X11843Y-5912D01*
X11993Y-5874D01*
X12256Y-5874D01*
X12406Y-5912D01*
X12481Y-5987D01*
X12518Y-6062D01*
X12518Y-6212D01*
X12481Y-6287D01*
X12406Y-6362D01*
X12256Y-6399D01*
X11993Y-6399D01*
X11843Y-6362D01*
X11768Y-6287D01*
X11731Y-6212D01*
X12143Y-5387D02*
X12518Y-5387D01*
X11731Y-5649D02*
X12143Y-5387D01*
X11731Y-5124D01*
X12481Y-4899D02*
X12518Y-4787D01*
X12518Y-4599D01*
X12481Y-4524D01*
X12443Y-4487D01*
X12368Y-4449D01*
X12293Y-4449D01*
X12218Y-4487D01*
X12181Y-4524D01*
X12143Y-4599D01*
X12106Y-4749D01*
X12068Y-4824D01*
X12031Y-4862D01*
X11956Y-4899D01*
X11881Y-4899D01*
X11806Y-4862D01*
X11768Y-4824D01*
X11731Y-4749D01*
X11731Y-4562D01*
X11768Y-4449D01*
X11731Y-4225D02*
X11731Y-3775D01*
X12518Y-4000D02*
X11731Y-4000D01*
X12518Y-3512D02*
X11731Y-3512D01*
X12443Y-2687D02*
X12481Y-2725D01*
X12518Y-2837D01*
X12518Y-2912D01*
X12481Y-3025D01*
X12406Y-3100D01*
X12331Y-3137D01*
X12181Y-3175D01*
X12068Y-3175D01*
X11918Y-3137D01*
X11843Y-3100D01*
X11768Y-3025D01*
X11731Y-2912D01*
X11731Y-2837D01*
X11768Y-2725D01*
X11806Y-2687D01*
X12518Y-2350D02*
X11731Y-2350D01*
X12518Y-1900D02*
X12068Y-2237D01*
X11731Y-1900D02*
X12181Y-2350D01*
X3281Y-8393D02*
X3918Y-8393D01*
X3993Y-8355D01*
X4031Y-8318D01*
X4068Y-8243D01*
X4068Y-8093D01*
X4031Y-8018D01*
X3993Y-7980D01*
X3918Y-7943D01*
X3281Y-7943D01*
X4031Y-7605D02*
X4068Y-7493D01*
X4068Y-7305D01*
X4031Y-7230D01*
X3993Y-7193D01*
X3918Y-7155D01*
X3843Y-7155D01*
X3768Y-7193D01*
X3731Y-7230D01*
X3693Y-7305D01*
X3656Y-7455D01*
X3618Y-7530D01*
X3581Y-7568D01*
X3506Y-7605D01*
X3431Y-7605D01*
X3356Y-7568D01*
X3318Y-7530D01*
X3281Y-7455D01*
X3281Y-7268D01*
X3318Y-7155D01*
X3656Y-6556D02*
X3693Y-6443D01*
X3731Y-6406D01*
X3806Y-6368D01*
X3918Y-6368D01*
X3993Y-6406D01*
X4031Y-6443D01*
X4068Y-6518D01*
X4068Y-6818D01*
X3281Y-6818D01*
X3281Y-6556D01*
X3318Y-6481D01*
X3356Y-6443D01*
X3431Y-6406D01*
X3506Y-6406D01*
X3581Y-6443D01*
X3618Y-6481D01*
X3656Y-6556D01*
X3656Y-6818D01*
X4368Y-5206D02*
X4331Y-5243D01*
X4218Y-5318D01*
X4143Y-5356D01*
X4031Y-5393D01*
X3843Y-5431D01*
X3693Y-5431D01*
X3506Y-5393D01*
X3393Y-5356D01*
X3318Y-5318D01*
X3206Y-5243D01*
X3168Y-5206D01*
X4068Y-4493D02*
X4068Y-4943D01*
X4068Y-4718D02*
X3281Y-4718D01*
X3393Y-4793D01*
X3468Y-4868D01*
X3506Y-4943D01*
X4068Y-4118D02*
X4068Y-3968D01*
X4031Y-3893D01*
X3993Y-3856D01*
X3881Y-3781D01*
X3731Y-3743D01*
X3431Y-3743D01*
X3356Y-3781D01*
X3318Y-3818D01*
X3281Y-3893D01*
X3281Y-4043D01*
X3318Y-4118D01*
X3356Y-4156D01*
X3431Y-4193D01*
X3618Y-4193D01*
X3693Y-4156D01*
X3731Y-4118D01*
X3768Y-4043D01*
X3768Y-3893D01*
X3731Y-3818D01*
X3693Y-3781D01*
X3618Y-3743D01*
X3356Y-3443D02*
X3318Y-3406D01*
X3281Y-3331D01*
X3281Y-3143D01*
X3318Y-3068D01*
X3356Y-3031D01*
X3431Y-2993D01*
X3506Y-2993D01*
X3618Y-3031D01*
X4068Y-3481D01*
X4068Y-2993D01*
X3281Y-2506D02*
X3281Y-2431D01*
X3318Y-2356D01*
X3356Y-2319D01*
X3431Y-2281D01*
X3581Y-2244D01*
X3768Y-2244D01*
X3918Y-2281D01*
X3993Y-2319D01*
X4031Y-2356D01*
X4068Y-2431D01*
X4068Y-2506D01*
X4031Y-2581D01*
X3993Y-2619D01*
X3918Y-2656D01*
X3768Y-2694D01*
X3581Y-2694D01*
X3431Y-2656D01*
X3356Y-2619D01*
X3318Y-2581D01*
X3281Y-2506D01*
X3281Y-1756D02*
X3281Y-1681D01*
X3318Y-1606D01*
X3356Y-1569D01*
X3431Y-1531D01*
X3581Y-1494D01*
X3768Y-1494D01*
X3918Y-1531D01*
X3993Y-1569D01*
X4031Y-1606D01*
X4068Y-1681D01*
X4068Y-1756D01*
X4031Y-1831D01*
X3993Y-1869D01*
X3918Y-1906D01*
X3768Y-1944D01*
X3581Y-1944D01*
X3431Y-1906D01*
X3356Y-1869D01*
X3318Y-1831D01*
X3281Y-1756D01*
X4368Y-1231D02*
X4331Y-1194D01*
X4218Y-1119D01*
X4143Y-1081D01*
X4031Y-1044D01*
X3843Y-1006D01*
X3693Y-1006D01*
X3506Y-1044D01*
X3393Y-1081D01*
X3318Y-1119D01*
X3206Y-1194D01*
X3168Y-1231D01*
G54D11*
X81256Y-25626D02*
X81218Y-25589D01*
X81181Y-25476D01*
X81181Y-25401D01*
X81218Y-25289D01*
X81293Y-25214D01*
X81368Y-25176D01*
X81518Y-25139D01*
X81631Y-25139D01*
X81781Y-25176D01*
X81856Y-25214D01*
X81931Y-25289D01*
X81968Y-25401D01*
X81968Y-25476D01*
X81931Y-25589D01*
X81893Y-25626D01*
X81406Y-25926D02*
X81406Y-26301D01*
X81181Y-25851D02*
X81968Y-26114D01*
X81181Y-26376D01*
X81181Y-27089D02*
X81556Y-26826D01*
X81181Y-26639D02*
X81968Y-26639D01*
X81968Y-26939D01*
X81931Y-27014D01*
X81893Y-27051D01*
X81818Y-27089D01*
X81706Y-27089D01*
X81631Y-27051D01*
X81593Y-27014D01*
X81556Y-26939D01*
X81556Y-26639D01*
X81968Y-27313D02*
X81968Y-27763D01*
X81181Y-27538D02*
X81968Y-27538D01*
X81593Y-28026D02*
X81593Y-28288D01*
X81181Y-28401D02*
X81181Y-28026D01*
X81968Y-28026D01*
X81968Y-28401D01*
X81181Y-29338D02*
X81968Y-29338D01*
X81968Y-29638D01*
X81931Y-29713D01*
X81893Y-29751D01*
X81818Y-29788D01*
X81706Y-29788D01*
X81631Y-29751D01*
X81593Y-29713D01*
X81556Y-29638D01*
X81556Y-29338D01*
X81181Y-30576D02*
X81556Y-30313D01*
X81181Y-30126D02*
X81968Y-30126D01*
X81968Y-30426D01*
X81931Y-30501D01*
X81893Y-30538D01*
X81818Y-30576D01*
X81706Y-30576D01*
X81631Y-30538D01*
X81593Y-30501D01*
X81556Y-30426D01*
X81556Y-30126D01*
X81181Y-30913D02*
X81968Y-30913D01*
X81181Y-31288D02*
X81968Y-31288D01*
X81181Y-31738D01*
X81968Y-31738D01*
X81256Y-32563D02*
X81218Y-32525D01*
X81181Y-32413D01*
X81181Y-32338D01*
X81218Y-32225D01*
X81293Y-32150D01*
X81368Y-32113D01*
X81518Y-32075D01*
X81631Y-32075D01*
X81781Y-32113D01*
X81856Y-32150D01*
X81931Y-32225D01*
X81968Y-32338D01*
X81968Y-32413D01*
X81931Y-32525D01*
X81893Y-32563D01*
X81181Y-32900D02*
X81968Y-32900D01*
X81181Y-33275D02*
X81968Y-33275D01*
X81968Y-33575D01*
X81931Y-33650D01*
X81893Y-33688D01*
X81818Y-33725D01*
X81706Y-33725D01*
X81631Y-33688D01*
X81593Y-33650D01*
X81556Y-33575D01*
X81556Y-33275D01*
X81406Y-34025D02*
X81406Y-34400D01*
X81181Y-33950D02*
X81968Y-34213D01*
X81181Y-34475D01*
X81181Y-35113D02*
X81181Y-34738D01*
X81968Y-34738D01*
X81593Y-35375D02*
X81593Y-35637D01*
X81181Y-35750D02*
X81181Y-35375D01*
X81968Y-35375D01*
X81968Y-35750D01*
X81968Y-36575D02*
X81181Y-36837D01*
X81968Y-37100D01*
X81181Y-37362D02*
X81968Y-37362D01*
X81968Y-37662D01*
X81931Y-37737D01*
X81893Y-37775D01*
X81818Y-37812D01*
X81706Y-37812D01*
X81631Y-37775D01*
X81593Y-37737D01*
X81556Y-37662D01*
X81556Y-37362D01*
X81181Y-38562D02*
X81181Y-38112D01*
X81181Y-38337D02*
X81968Y-38337D01*
X81856Y-38262D01*
X81781Y-38187D01*
X81743Y-38112D01*
X81706Y-39237D02*
X81181Y-39237D01*
X82006Y-39050D02*
X81443Y-38862D01*
X81443Y-39349D01*
X81968Y-39799D02*
X81968Y-39874D01*
X81931Y-39949D01*
X81893Y-39987D01*
X81818Y-40024D01*
X81668Y-40062D01*
X81481Y-40062D01*
X81331Y-40024D01*
X81256Y-39987D01*
X81218Y-39949D01*
X81181Y-39874D01*
X81181Y-39799D01*
X81218Y-39724D01*
X81256Y-39687D01*
X81331Y-39649D01*
X81481Y-39612D01*
X81668Y-39612D01*
X81818Y-39649D01*
X81893Y-39687D01*
X81931Y-39724D01*
X81968Y-39799D01*
X81481Y-40999D02*
X81481Y-41599D01*
X81593Y-42837D02*
X81593Y-42574D01*
X81181Y-42574D02*
X81968Y-42574D01*
X81968Y-42949D01*
X81181Y-43249D02*
X81706Y-43249D01*
X81556Y-43249D02*
X81631Y-43286D01*
X81668Y-43324D01*
X81706Y-43399D01*
X81706Y-43474D01*
X81218Y-44036D02*
X81181Y-43961D01*
X81181Y-43811D01*
X81218Y-43736D01*
X81293Y-43699D01*
X81593Y-43699D01*
X81668Y-43736D01*
X81706Y-43811D01*
X81706Y-43961D01*
X81668Y-44036D01*
X81593Y-44074D01*
X81518Y-44074D01*
X81443Y-43699D01*
X81181Y-44749D02*
X81968Y-44749D01*
X81218Y-44749D02*
X81181Y-44674D01*
X81181Y-44524D01*
X81218Y-44449D01*
X81256Y-44411D01*
X81331Y-44374D01*
X81556Y-44374D01*
X81631Y-44411D01*
X81668Y-44449D01*
X81706Y-44524D01*
X81706Y-44674D01*
X81668Y-44749D01*
X81968Y-45049D02*
X81968Y-45574D01*
X81181Y-45236D01*
X81893Y-45836D02*
X81931Y-45874D01*
X81968Y-45949D01*
X81968Y-46136D01*
X81931Y-46211D01*
X81893Y-46249D01*
X81818Y-46286D01*
X81743Y-46286D01*
X81631Y-46249D01*
X81181Y-45799D01*
X81181Y-46286D01*
X80881Y-47448D02*
X80918Y-47411D01*
X81031Y-47336D01*
X81106Y-47298D01*
X81218Y-47261D01*
X81406Y-47223D01*
X81556Y-47223D01*
X81743Y-47261D01*
X81856Y-47298D01*
X81931Y-47336D01*
X82043Y-47411D01*
X82081Y-47448D01*
X81181Y-48161D02*
X81181Y-47711D01*
X81181Y-47936D02*
X81968Y-47936D01*
X81856Y-47861D01*
X81781Y-47786D01*
X81743Y-47711D01*
X81893Y-48461D02*
X81931Y-48498D01*
X81968Y-48573D01*
X81968Y-48761D01*
X81931Y-48836D01*
X81893Y-48873D01*
X81818Y-48911D01*
X81743Y-48911D01*
X81631Y-48873D01*
X81181Y-48423D01*
X81181Y-48911D01*
X82006Y-49811D02*
X80993Y-49136D01*
X81893Y-50036D02*
X81931Y-50073D01*
X81968Y-50148D01*
X81968Y-50336D01*
X81931Y-50411D01*
X81893Y-50448D01*
X81818Y-50486D01*
X81743Y-50486D01*
X81631Y-50448D01*
X81181Y-49998D01*
X81181Y-50486D01*
X81968Y-50973D02*
X81968Y-51048D01*
X81931Y-51123D01*
X81893Y-51161D01*
X81818Y-51198D01*
X81668Y-51235D01*
X81481Y-51235D01*
X81331Y-51198D01*
X81256Y-51161D01*
X81218Y-51123D01*
X81181Y-51048D01*
X81181Y-50973D01*
X81218Y-50898D01*
X81256Y-50861D01*
X81331Y-50823D01*
X81481Y-50786D01*
X81668Y-50786D01*
X81818Y-50823D01*
X81893Y-50861D01*
X81931Y-50898D01*
X81968Y-50973D01*
X81893Y-51535D02*
X81931Y-51573D01*
X81968Y-51648D01*
X81968Y-51835D01*
X81931Y-51910D01*
X81893Y-51948D01*
X81818Y-51985D01*
X81743Y-51985D01*
X81631Y-51948D01*
X81181Y-51498D01*
X81181Y-51985D01*
X81181Y-52735D02*
X81181Y-52285D01*
X81181Y-52510D02*
X81968Y-52510D01*
X81856Y-52435D01*
X81781Y-52360D01*
X81743Y-52285D01*
X80881Y-52998D02*
X80918Y-53035D01*
X81031Y-53110D01*
X81106Y-53148D01*
X81218Y-53185D01*
X81406Y-53223D01*
X81556Y-53223D01*
X81743Y-53185D01*
X81856Y-53148D01*
X81931Y-53110D01*
X82043Y-53035D01*
X82081Y-52998D01*
G54D14*
X8000Y-45750D02*
X8000Y-47750D01*
X10000Y-45750D02*
X8000Y-45750D01*
X10000Y-47750D02*
X10000Y-45750D01*
X8000Y-47750D02*
X10000Y-47750D01*
X8500Y-54000D02*
X0Y-54000D01*
X9500Y-54000D02*
X10750Y-54000D01*
X9500Y-51000D02*
X9500Y-54000D01*
X8500Y-51000D02*
X9500Y-51000D01*
X8500Y-54000D02*
X8500Y-51000D01*
X88500Y-1250D02*
X88500Y-25500D01*
X67000Y-1250D02*
X88500Y-1250D01*
X67000Y0D02*
X67000Y-1250D01*
X47750Y0D02*
X67000Y0D01*
X46500Y0D02*
X2000Y0D01*
X47750Y-3750D02*
X47750Y0D01*
X46500Y-3750D02*
X47750Y-3750D01*
X46500Y0D02*
X46500Y-3750D01*
X0Y-2000D02*
X2000Y0D01*
X0Y-54000D02*
X0Y-2000D01*
X10750Y-62000D02*
X10750Y-54000D01*
X79750Y-62000D02*
X10750Y-62000D01*
X82750Y-25500D02*
X88500Y-25500D01*
X82750Y-54000D02*
X82750Y-25500D01*
X79750Y-54000D02*
X82750Y-54000D01*
X79750Y-62000D02*
X79750Y-54000D01*
G54D10*
X84300Y-3950D02*
X85500Y-3950D01*
X85500Y-3950D02*
X85500Y-17550D01*
X85500Y-17550D02*
X84300Y-17550D01*
X84300Y-17550D02*
X84300Y-3950D01*
X82300Y-16550D02*
X82300Y-16950D01*
X82300Y-16950D02*
X89700Y-16950D01*
X89700Y-16950D02*
X89800Y-16850D01*
X89800Y-16850D02*
X89800Y-16650D01*
X89800Y-16650D02*
X89700Y-16550D01*
X89700Y-16550D02*
X82300Y-16550D01*
X82300Y-14550D02*
X82300Y-14950D01*
X82300Y-14950D02*
X89700Y-14950D01*
X89700Y-14950D02*
X89800Y-14850D01*
X89800Y-14850D02*
X89800Y-14650D01*
X89800Y-14650D02*
X89700Y-14550D01*
X89700Y-14550D02*
X82300Y-14550D01*
X82300Y-12550D02*
X82300Y-12950D01*
X82300Y-12950D02*
X89700Y-12950D01*
X89700Y-12950D02*
X89800Y-12850D01*
X89800Y-12850D02*
X89800Y-12650D01*
X89800Y-12650D02*
X89700Y-12550D01*
X89700Y-12550D02*
X82300Y-12550D01*
X82300Y-10550D02*
X82300Y-10950D01*
X82300Y-10950D02*
X89700Y-10950D01*
X89700Y-10950D02*
X89800Y-10850D01*
X89800Y-10850D02*
X89800Y-10650D01*
X89800Y-10650D02*
X89700Y-10550D01*
X89700Y-10550D02*
X82300Y-10550D01*
X82300Y-8550D02*
X82300Y-8950D01*
X82300Y-8950D02*
X89700Y-8950D01*
X89700Y-8950D02*
X89800Y-8850D01*
X89800Y-8850D02*
X89800Y-8650D01*
X89800Y-8650D02*
X89700Y-8550D01*
X89700Y-8550D02*
X82300Y-8550D01*
X82300Y-6550D02*
X82300Y-6950D01*
X89700Y-6950D02*
X89800Y-6850D01*
X82300Y-6950D02*
X89700Y-6950D01*
X89800Y-6650D02*
X89800Y-6850D01*
X89700Y-6550D02*
X89800Y-6650D01*
X82300Y-6550D02*
X89700Y-6550D01*
X82300Y-6550D02*
X89700Y-6550D01*
X89700Y-6550D02*
X89800Y-6650D01*
X89800Y-6650D02*
X89800Y-6850D01*
X82300Y-6950D02*
X89700Y-6950D01*
X89700Y-6950D02*
X89800Y-6850D01*
X89700Y-6950D02*
X89800Y-6850D01*
X82300Y-6950D02*
X89700Y-6950D01*
X89800Y-6650D02*
X89800Y-6850D01*
X89700Y-6550D02*
X89800Y-6650D01*
X82300Y-6550D02*
X89700Y-6550D01*
X82300Y-6550D02*
X89700Y-6550D01*
X89700Y-6550D02*
X89800Y-6650D01*
X89800Y-6650D02*
X89800Y-6850D01*
X82300Y-6950D02*
X89700Y-6950D01*
X89700Y-6950D02*
X89800Y-6850D01*
X89700Y-6950D02*
X89800Y-6850D01*
X82300Y-6950D02*
X89700Y-6950D01*
X89800Y-6650D02*
X89800Y-6850D01*
X89700Y-6550D02*
X89800Y-6650D01*
X82300Y-6550D02*
X89700Y-6550D01*
X82300Y-6550D02*
X89700Y-6550D01*
X89700Y-6550D02*
X89800Y-6650D01*
X89800Y-6650D02*
X89800Y-6850D01*
X82300Y-6950D02*
X89700Y-6950D01*
X89700Y-6950D02*
X89800Y-6850D01*
X89700Y-6950D02*
X89800Y-6850D01*
X82300Y-6950D02*
X89700Y-6950D01*
X89800Y-6650D02*
X89800Y-6850D01*
X89700Y-6550D02*
X89800Y-6650D01*
X82300Y-6550D02*
X89700Y-6550D01*
X82300Y-6550D02*
X89700Y-6550D01*
X89700Y-6550D02*
X89800Y-6650D01*
X89800Y-6650D02*
X89800Y-6850D01*
X82300Y-6950D02*
X89700Y-6950D01*
X89700Y-6950D02*
X89800Y-6850D01*
X89700Y-4950D02*
X89800Y-4850D01*
X82300Y-4950D02*
X89700Y-4950D01*
X89800Y-4650D02*
X89800Y-4850D01*
X89700Y-4550D02*
X89800Y-4650D01*
X82300Y-4550D02*
X89700Y-4550D01*
X82300Y-4550D02*
X89700Y-4550D01*
X89700Y-4550D02*
X89800Y-4650D01*
X89800Y-4650D02*
X89800Y-4850D01*
X82300Y-4950D02*
X89700Y-4950D01*
X89700Y-4950D02*
X89800Y-4850D01*
X89700Y-4950D02*
X89800Y-4850D01*
X82300Y-4950D02*
X89700Y-4950D01*
X89800Y-4650D02*
X89800Y-4850D01*
X89700Y-4550D02*
X89800Y-4650D01*
X82300Y-4550D02*
X89700Y-4550D01*
X82300Y-4550D02*
X89700Y-4550D01*
X89700Y-4550D02*
X89800Y-4650D01*
X89800Y-4650D02*
X89800Y-4850D01*
X82300Y-4950D02*
X89700Y-4950D01*
X89700Y-4950D02*
X89800Y-4850D01*
X89700Y-4950D02*
X89800Y-4850D01*
X82300Y-4950D02*
X89700Y-4950D01*
X89800Y-4650D02*
X89800Y-4850D01*
X89700Y-4550D02*
X89800Y-4650D01*
X82300Y-4550D02*
X89700Y-4550D01*
X82300Y-4550D02*
X89700Y-4550D01*
X89700Y-4550D02*
X89800Y-4650D01*
X89800Y-4650D02*
X89800Y-4850D01*
X82300Y-4950D02*
X89700Y-4950D01*
X89700Y-4950D02*
X89800Y-4850D01*
X89700Y-4950D02*
X89800Y-4850D01*
X82300Y-4950D02*
X89700Y-4950D01*
X89800Y-4650D02*
X89800Y-4850D01*
X89700Y-4550D02*
X89800Y-4650D01*
X82300Y-4550D02*
X89700Y-4550D01*
X82300Y-4550D02*
X89700Y-4550D01*
X89700Y-4550D02*
X89800Y-4650D01*
X89800Y-4650D02*
X89800Y-4850D01*
X82300Y-4550D02*
X82300Y-4950D01*
X82300Y-4950D02*
X89700Y-4950D01*
X89700Y-4950D02*
X89800Y-4850D01*
G54D15*
X53500Y-48150D02*
X53400Y-48250D01*
X53400Y-48250D02*
X53400Y-52750D01*
X53400Y-52750D02*
X53500Y-52850D01*
X53500Y-52850D02*
X58000Y-52850D01*
X58000Y-52850D02*
X58100Y-52750D01*
X58100Y-52750D02*
X58100Y-48250D01*
X58100Y-48250D02*
X58000Y-48150D01*
X58000Y-48150D02*
X53500Y-48150D01*
X53500Y-47900D02*
X53150Y-48250D01*
X53150Y-48250D02*
X53150Y-53100D01*
X53150Y-53100D02*
X58000Y-53100D01*
X58000Y-53100D02*
X58350Y-52750D01*
X58350Y-52750D02*
X58350Y-48250D01*
X58350Y-48250D02*
X58000Y-47900D01*
X58000Y-47900D02*
X53500Y-47900D01*
G54D16*
X11250Y-10750D02*
X11250Y-8250D01*
X9250Y-10750D02*
X9250Y-8250D01*
X10250Y-7250D02*
G75*
G03X9250Y-8250I0J-1000D01*
G74*
G01*
X11250Y-8250D02*
G75*
G03X10250Y-7250I-1000J0D01*
G74*
G01*
X9250Y-10750D02*
G75*
G03X10250Y-11750I1000J0D01*
G74*
G01*
X10250Y-11750D02*
G75*
G03X11250Y-10750I0J1000D01*
G74*
G01*
G54D17*
X46500Y-59250D02*
X46500Y-59250D01*
X46500Y-59250D02*
X46500Y-58750D01*
X46500Y-58750D02*
X47500Y-58750D01*
X47500Y-58750D02*
X47500Y-59250D01*
X46000Y-59250D02*
X46000Y-50250D01*
X46000Y-50250D02*
X48000Y-50250D01*
X48000Y-50250D02*
X48000Y-59250D01*
X48000Y-59250D02*
X46000Y-59250D01*
G54D10*
X51000Y-5250D02*
X51000Y-4500D01*
X51400Y-4100D02*
X52200Y-3800D01*
X51400Y-4100D02*
X49400Y-2500D01*
X51000Y-4500D02*
X49000Y-2900D01*
X49400Y-2300D02*
X49400Y-2500D01*
X49000Y-2300D02*
X49400Y-2300D01*
X49000Y-2300D02*
X49000Y-2900D01*
X52900Y-3600D02*
X52700Y-3700D01*
X52200Y-3800D02*
X51000Y-1400D01*
X52700Y-3700D02*
X51300Y-800D01*
X50300Y-1400D02*
X51000Y-1400D01*
X50300Y-800D02*
X51300Y-800D01*
X50300Y-800D02*
X50300Y-1400D01*
X68600Y-2500D02*
X66600Y-4100D01*
X66600Y-4100D02*
X65800Y-3800D01*
X67000Y-4500D02*
X69000Y-2900D01*
X67000Y-5250D02*
X67000Y-4500D01*
X65300Y-3700D02*
X65100Y-3600D01*
X68600Y-2300D02*
X68600Y-2500D01*
X69000Y-2300D02*
X68600Y-2300D01*
X69000Y-2300D02*
X69000Y-2900D01*
X67700Y-800D02*
X67700Y-1400D01*
X67700Y-1400D02*
X67000Y-1400D01*
X67000Y-1400D02*
X65800Y-3800D01*
X67700Y-800D02*
X66700Y-800D01*
X66700Y-800D02*
X65300Y-3700D01*
X53500Y-100D02*
X52500Y-100D01*
X52500Y-100D02*
X52500Y-700D01*
X52500Y-700D02*
X52900Y-700D01*
X52900Y-700D02*
X52900Y-3600D01*
X64500Y-100D02*
X65500Y-100D01*
X65500Y-100D02*
X65500Y-700D01*
X65500Y-700D02*
X65100Y-700D01*
X65100Y-700D02*
X65100Y-3600D01*
X59000Y-3600D02*
X53500Y-3600D01*
X53500Y-3600D02*
X53500Y-100D01*
X59000Y-3600D02*
X64500Y-3600D01*
X64500Y-3600D02*
X64500Y-100D01*
X48500Y-6000D02*
X48500Y-4750D01*
X48500Y-4750D02*
X49000Y-4750D01*
X49000Y-4750D02*
X49000Y-5250D01*
X49000Y-5250D02*
X51000Y-5250D01*
X69500Y-6000D02*
X69500Y-4750D01*
X69500Y-4750D02*
X69000Y-4750D01*
X69000Y-4750D02*
X69000Y-5250D01*
X69000Y-5250D02*
X67000Y-5250D01*
X55250Y-6000D02*
X48500Y-6000D01*
X55250Y-6000D02*
X55250Y-4500D01*
X55250Y-4500D02*
X62750Y-4500D01*
X62750Y-4500D02*
X62750Y-6000D01*
X62750Y-6000D02*
X69500Y-6000D01*
G54D18*
X10150Y-650D02*
X5350Y-650D01*
X5350Y-650D02*
X5350Y-7350D01*
X5350Y-7350D02*
X10150Y-7350D01*
X10150Y-7350D02*
X10150Y-650D01*
G54D17*
X2250Y-26200D02*
X2750Y-26200D01*
X2750Y-26200D02*
X2750Y-27200D01*
X2750Y-27200D02*
X2250Y-27200D01*
X2250Y-25700D02*
X6250Y-25700D01*
X6250Y-25700D02*
X6250Y-27700D01*
X6250Y-27700D02*
X2250Y-27700D01*
X2250Y-27700D02*
X2250Y-25700D01*
G54D19*
X33500Y-3250D02*
X33500Y-3500D01*
X33500Y-3500D02*
X30000Y-3500D01*
X30000Y-3500D02*
X30000Y-3250D01*
X33500Y-1750D02*
X33500Y-3250D01*
X33500Y-3250D02*
X30000Y-3250D01*
X30000Y-3250D02*
X30000Y-1750D01*
X30000Y-1750D02*
X33500Y-1750D01*
G54D17*
X63250Y-50000D02*
X63250Y-50000D01*
X63250Y-50000D02*
X63750Y-50000D01*
X63750Y-50000D02*
X63750Y-51000D01*
X63750Y-51000D02*
X63250Y-51000D01*
X63250Y-49500D02*
X72250Y-49500D01*
X72250Y-49500D02*
X72250Y-51500D01*
X72250Y-51500D02*
X63250Y-51500D01*
X63250Y-51500D02*
X63250Y-49500D01*
X4250Y-45450D02*
X4250Y-45450D01*
X4250Y-45450D02*
X4250Y-44950D01*
X4250Y-44950D02*
X5250Y-44950D01*
X5250Y-44950D02*
X5250Y-45450D01*
X3750Y-45450D02*
X3750Y-36450D01*
X3750Y-36450D02*
X5750Y-36450D01*
X5750Y-36450D02*
X5750Y-45450D01*
X5750Y-45450D02*
X3750Y-45450D01*
X64250Y-55500D02*
X72250Y-55500D01*
X72250Y-57500D02*
X64250Y-57500D01*
X64250Y-57500D02*
X64250Y-55500D01*
X64250Y-56000D02*
X64750Y-56000D01*
X64750Y-56000D02*
X64750Y-57000D01*
X64750Y-57000D02*
X64250Y-57000D01*
X72250Y-55500D02*
X72250Y-57500D01*
G54D19*
X60750Y-3250D02*
X60750Y-3500D01*
X60750Y-3500D02*
X57250Y-3500D01*
X57250Y-3500D02*
X57250Y-3250D01*
X60750Y-1750D02*
X60750Y-3250D01*
X60750Y-3250D02*
X57250Y-3250D01*
X57250Y-3250D02*
X57250Y-1750D01*
X57250Y-1750D02*
X60750Y-1750D01*
G54D17*
X39250Y-49250D02*
X24250Y-49250D01*
X24250Y-49250D02*
X24250Y-47250D01*
X24250Y-47250D02*
X39250Y-47250D01*
X39250Y-47250D02*
X39250Y-49250D01*
X39250Y-48750D02*
X38750Y-48750D01*
X38750Y-48750D02*
X38750Y-47750D01*
X38750Y-47750D02*
X39250Y-47750D01*
G54D10*
X23750Y-5250D02*
X23750Y-4500D01*
X24150Y-4100D02*
X24950Y-3800D01*
X24150Y-4100D02*
X22150Y-2500D01*
X23750Y-4500D02*
X21750Y-2900D01*
X22150Y-2300D02*
X22150Y-2500D01*
X21750Y-2300D02*
X22150Y-2300D01*
X21750Y-2300D02*
X21750Y-2900D01*
X25650Y-3600D02*
X25450Y-3700D01*
X24950Y-3800D02*
X23750Y-1400D01*
X25450Y-3700D02*
X24050Y-800D01*
X23050Y-1400D02*
X23750Y-1400D01*
X23050Y-800D02*
X24050Y-800D01*
X23050Y-800D02*
X23050Y-1400D01*
X41350Y-2500D02*
X39350Y-4100D01*
X39350Y-4100D02*
X38550Y-3800D01*
X39750Y-4500D02*
X41750Y-2900D01*
X39750Y-5250D02*
X39750Y-4500D01*
X38050Y-3700D02*
X37850Y-3600D01*
X41350Y-2300D02*
X41350Y-2500D01*
X41750Y-2300D02*
X41350Y-2300D01*
X41750Y-2300D02*
X41750Y-2900D01*
X40450Y-800D02*
X40450Y-1400D01*
X40450Y-1400D02*
X39750Y-1400D01*
X39750Y-1400D02*
X38550Y-3800D01*
X40450Y-800D02*
X39450Y-800D01*
X39450Y-800D02*
X38050Y-3700D01*
X26250Y-100D02*
X25250Y-100D01*
X25250Y-100D02*
X25250Y-700D01*
X25250Y-700D02*
X25650Y-700D01*
X25650Y-700D02*
X25650Y-3600D01*
X37250Y-100D02*
X38250Y-100D01*
X38250Y-100D02*
X38250Y-700D01*
X38250Y-700D02*
X37850Y-700D01*
X37850Y-700D02*
X37850Y-3600D01*
X31750Y-3600D02*
X26250Y-3600D01*
X26250Y-3600D02*
X26250Y-100D01*
X31750Y-3600D02*
X37250Y-3600D01*
X37250Y-3600D02*
X37250Y-100D01*
X21250Y-6000D02*
X21250Y-4750D01*
X21250Y-4750D02*
X21750Y-4750D01*
X21750Y-4750D02*
X21750Y-5250D01*
X21750Y-5250D02*
X23750Y-5250D01*
X42250Y-6000D02*
X42250Y-4750D01*
X42250Y-4750D02*
X41750Y-4750D01*
X41750Y-4750D02*
X41750Y-5250D01*
X41750Y-5250D02*
X39750Y-5250D01*
X28000Y-6000D02*
X21250Y-6000D01*
X28000Y-6000D02*
X28000Y-4500D01*
X28000Y-4500D02*
X35500Y-4500D01*
X35500Y-4500D02*
X35500Y-6000D01*
X35500Y-6000D02*
X42250Y-6000D01*
G54D20*
X32100Y-6950D02*
X32100Y-7950D01*
X37100Y-7950D02*
X37100Y-6950D01*
X32100Y-6950D02*
X37100Y-6950D01*
X37100Y-7950D02*
X32100Y-7950D01*
X73250Y-48250D02*
X73250Y-48650D01*
X73250Y-48650D02*
X73650Y-48650D01*
X73650Y-48650D02*
X73650Y-51850D01*
X73650Y-51850D02*
X72850Y-51850D01*
X72850Y-51850D02*
X72850Y-48650D01*
X72850Y-48650D02*
X73250Y-48650D01*
X73450Y-48650D02*
X73650Y-48850D01*
X73250Y-52250D02*
X73250Y-51850D01*
X62250Y-46750D02*
X62650Y-46750D01*
X62650Y-46750D02*
X62650Y-46350D01*
X62650Y-46350D02*
X65850Y-46350D01*
X65850Y-46350D02*
X65850Y-47150D01*
X65850Y-47150D02*
X62650Y-47150D01*
X62650Y-47150D02*
X62650Y-46750D01*
X62650Y-46550D02*
X62850Y-46350D01*
X66250Y-46750D02*
X65850Y-46750D01*
X63000Y-58000D02*
X63000Y-57600D01*
X63000Y-57600D02*
X62600Y-57600D01*
X62600Y-57600D02*
X62600Y-54400D01*
X62600Y-54400D02*
X63400Y-54400D01*
X63400Y-54400D02*
X63400Y-57600D01*
X63400Y-57600D02*
X63000Y-57600D01*
X62800Y-57600D02*
X62600Y-57400D01*
X63000Y-54000D02*
X63000Y-54400D01*
X46500Y-5000D02*
G75*
G03X46500Y-5000I-1750J0D01*
G74*
G01*
X73750Y-5000D02*
G75*
G03X73750Y-5000I-1750J0D01*
G74*
G01*
X71650Y-53650D02*
X68850Y-53650D01*
X68850Y-53650D02*
X68850Y-52850D01*
X68850Y-52850D02*
X71650Y-52850D01*
X71650Y-52850D02*
X71650Y-53650D01*
X71650Y-53450D02*
X71450Y-53650D01*
X63850Y-47350D02*
X66650Y-47350D01*
X66650Y-47350D02*
X66650Y-48150D01*
X66650Y-48150D02*
X63850Y-48150D01*
X63850Y-48150D02*
X63850Y-47350D01*
X63850Y-47550D02*
X64050Y-47350D01*
G54D18*
X32251Y-5750D02*
G75*
G03X32251Y-5750I-1001J0D01*
G74*
G01*
X59501Y-5750D02*
G75*
G03X59501Y-5750I-1001J0D01*
G74*
G01*
G54D20*
X13000Y-8020D02*
X13000Y-10000D01*
X13000Y-10000D02*
X12000Y-10000D01*
X12000Y-10000D02*
X12000Y-8000D01*
X12000Y-8000D02*
X13000Y-8000D01*
X12750Y-8000D02*
X13000Y-8250D01*
X12000Y-12230D02*
X12000Y-10250D01*
X12000Y-10250D02*
X13000Y-10250D01*
X13000Y-10250D02*
X13000Y-12250D01*
X13000Y-12250D02*
X12000Y-12250D01*
X12250Y-12250D02*
X12000Y-12000D01*
G54D18*
X8650Y-12500D02*
G75*
G03X8650Y-12500I-50J0D01*
G74*
G01*
X9050Y-12500D02*
X8650Y-12500D01*
X8650Y-12500D02*
X8650Y-11900D01*
X8650Y-11900D02*
X9050Y-11900D01*
X9450Y-11900D02*
X9850Y-11900D01*
X9850Y-11900D02*
X9850Y-12500D01*
X9850Y-12500D02*
X9450Y-12500D01*
G54D11*
X43000Y-40750D02*
X20000Y-40750D01*
X20000Y-41750D02*
X43000Y-41750D01*
X20000Y-40750D02*
X20000Y-41750D01*
X43000Y-40750D02*
X43000Y-41750D01*
X43000Y-41750D02*
X20000Y-41750D01*
X20000Y-42750D02*
X43000Y-42750D01*
X20000Y-41750D02*
X20000Y-42750D01*
X43000Y-41750D02*
X43000Y-42750D01*
G54D20*
X20043Y-555D02*
X12366Y-555D01*
X12957Y-457D02*
X20043Y-457D01*
X20634Y-358D02*
X12957Y-358D01*
X20043Y-7543D02*
X20043Y-850D01*
X20043Y-7543D02*
X19846Y-7740D01*
X19846Y-7740D02*
X18862Y-7740D01*
X18862Y-7740D02*
X18665Y-7543D01*
X18665Y-7543D02*
X18665Y-6756D01*
X18665Y-6756D02*
X17287Y-6756D01*
X12957Y-7543D02*
X12957Y-850D01*
X12957Y-7543D02*
X13154Y-7740D01*
X13154Y-7740D02*
X13941Y-7740D01*
X13941Y-7740D02*
X14138Y-7740D01*
X14138Y-7740D02*
X14335Y-7543D01*
X14335Y-7543D02*
X14335Y-6756D01*
X14335Y-6756D02*
X15713Y-6756D01*
X17091Y-7740D02*
X17287Y-7543D01*
X17287Y-7543D02*
X17287Y-6756D01*
X17091Y-7740D02*
X15909Y-7740D01*
X15909Y-7740D02*
X15713Y-7543D01*
X15713Y-7543D02*
X15713Y-6756D01*
X12366Y-457D02*
X12957Y-457D01*
X12957Y-457D02*
X12957Y-260D01*
X12957Y-260D02*
X20634Y-260D01*
X20634Y-457D02*
X20043Y-457D01*
X20043Y-457D02*
X20043Y-654D01*
X20043Y-654D02*
X12366Y-654D01*
X12957Y-850D02*
X13154Y-850D01*
X20043Y-850D02*
X19846Y-850D01*
X13154Y-654D02*
X13154Y-850D01*
X19846Y-850D02*
X19846Y-654D01*
X20634Y-260D02*
X20634Y-457D01*
X12366Y-654D02*
X12366Y-457D01*
X19250Y-14700D02*
X18250Y-14700D01*
X18250Y-14700D02*
X18250Y-8700D01*
X18250Y-8700D02*
X19250Y-8700D01*
X19250Y-8700D02*
X19250Y-14700D01*
X19250Y-13700D02*
X18250Y-13700D01*
G54D21*
X59950Y-48850D02*
X60950Y-48850D01*
X60950Y-48850D02*
X60950Y-51850D01*
X60950Y-51850D02*
X59950Y-51850D01*
X59950Y-51850D02*
X59950Y-48850D01*
X60950Y-49850D02*
X59950Y-49850D01*
G54D20*
X1350Y-20800D02*
X4150Y-20800D01*
X4150Y-20800D02*
X4150Y-21600D01*
X4150Y-21600D02*
X1350Y-21600D01*
X1350Y-21600D02*
X1350Y-20800D01*
X1350Y-21000D02*
X1550Y-20800D01*
X77250Y-9750D02*
X77250Y-5250D01*
X77250Y-5250D02*
X78250Y-4250D01*
X78250Y-4250D02*
X79250Y-4250D01*
X79250Y-4250D02*
X80250Y-5250D01*
X80250Y-5250D02*
X80250Y-9750D01*
X80250Y-9750D02*
X77250Y-9750D01*
X77250Y-6450D02*
X77250Y-6000D01*
X80250Y-6100D02*
X80250Y-6450D01*
X78550Y-7750D02*
X78550Y-4800D01*
X78950Y-7750D02*
X78950Y-4800D01*
X80270Y-6250D02*
G75*
G03X80270Y-6250I-1520J0D01*
G74*
G01*
G54D17*
X5250Y-15950D02*
X5250Y-15950D01*
X5250Y-15950D02*
X5750Y-15950D01*
X5750Y-15950D02*
X5750Y-16950D01*
X5750Y-16950D02*
X5250Y-16950D01*
X5250Y-15450D02*
X14250Y-15450D01*
X14250Y-15450D02*
X14250Y-17450D01*
X14250Y-17450D02*
X5250Y-17450D01*
X5250Y-17450D02*
X5250Y-15450D01*
G54D15*
X6300Y-12600D02*
X6300Y-8300D01*
X6300Y-8300D02*
X7700Y-8300D01*
X7700Y-8300D02*
X7700Y-12600D01*
X7700Y-12600D02*
X6300Y-12600D01*
X6800Y-12600D02*
X6800Y-12300D01*
X6800Y-12300D02*
X7200Y-12300D01*
X7200Y-12300D02*
X7200Y-12600D01*
G54D18*
X3001Y-15450D02*
G75*
G03X3001Y-15450I-1001J0D01*
G74*
G01*
X9751Y-19700D02*
G75*
G03X9751Y-19700I-1001J0D01*
G74*
G01*
X3001Y-17700D02*
G75*
G03X3001Y-17700I-1001J0D01*
G74*
G01*
X18251Y-16950D02*
G75*
G03X18251Y-16950I-1001J0D01*
G74*
G01*
G54D11*
X42750Y-51000D02*
X25750Y-51000D01*
X25750Y-52000D02*
X42750Y-52000D01*
X25750Y-52000D02*
X25750Y-51000D01*
X42750Y-51000D02*
X42750Y-52000D01*
G54D17*
X4750Y-34950D02*
X5750Y-34950D01*
X5309Y-34950D02*
G75*
G03X5309Y-34950I-559J0D01*
G74*
G01*
X6750Y-34950D02*
X7750Y-34950D01*
X7309Y-34950D02*
G75*
G03X7309Y-34950I-559J0D01*
G74*
G01*
X8750Y-34950D02*
X9750Y-34950D01*
X9309Y-34950D02*
G75*
G03X9309Y-34950I-559J0D01*
G74*
G01*
X10750Y-33700D02*
X10750Y-32700D01*
X11309Y-33700D02*
G75*
G03X11309Y-33700I-559J0D01*
G74*
G01*
X9750Y-32450D02*
X9750Y-32450D01*
X9750Y-32450D02*
X9250Y-32450D01*
X9250Y-32450D02*
X9250Y-31450D01*
X9250Y-31450D02*
X9750Y-31450D01*
X9750Y-32950D02*
X750Y-32950D01*
X750Y-32950D02*
X750Y-30950D01*
X750Y-30950D02*
X9750Y-30950D01*
X9750Y-30950D02*
X9750Y-32950D01*
G54D18*
X9251Y-28700D02*
G75*
G03X9251Y-28700I-1001J0D01*
G74*
G01*
G54D20*
X3230Y-35450D02*
X1250Y-35450D01*
X1250Y-35450D02*
X1250Y-34450D01*
X1250Y-34450D02*
X3250Y-34450D01*
X3250Y-34450D02*
X3250Y-35450D01*
X3250Y-35200D02*
X3000Y-35450D01*
X7500Y-40450D02*
X7500Y-40050D01*
X7500Y-40050D02*
X7100Y-40050D01*
X7100Y-40050D02*
X7100Y-36850D01*
X7100Y-36850D02*
X7900Y-36850D01*
X7900Y-36850D02*
X7900Y-40050D01*
X7900Y-40050D02*
X7500Y-40050D01*
X7300Y-40050D02*
X7100Y-39850D01*
X7500Y-36450D02*
X7500Y-36850D01*
G54D18*
X4251Y-23200D02*
G75*
G03X4251Y-23200I-1001J0D01*
G74*
G01*
G54D10*
X2059Y-28200D02*
G75*
G03X2059Y-28200I-559J0D01*
G74*
G01*
X2059Y-23200D02*
G75*
G03X2059Y-23200I-559J0D01*
G74*
G01*
G54D17*
X22650Y-34800D02*
G75*
G03X22650Y-34800I-900J0D01*
G74*
G01*
X47750Y-43900D02*
G75*
G03X47750Y-43900I-900J0D01*
G74*
G01*
X62050Y-10250D02*
G75*
G03X62050Y-10250I-900J0D01*
G74*
G01*
X69000Y-43900D02*
G75*
G03X69000Y-43900I-900J0D01*
G74*
G01*
G54D22*
G36*
X19967Y-6667D02*
X20034Y-6667D01*
X20034Y-6734D01*
X20034Y-26184D01*
X20034Y-45634D01*
X30033Y-45634D01*
X40033Y-45634D01*
X40042Y-44192D01*
X40050Y-42750D01*
X40134Y-42750D01*
X40134Y-42834D01*
X40134Y-44250D01*
X40134Y-45667D01*
X40484Y-45667D01*
X40834Y-45667D01*
X40834Y-44250D01*
X40834Y-42834D01*
X40484Y-42834D01*
X40134Y-42834D01*
X40134Y-42750D01*
X40484Y-42750D01*
X40917Y-42750D01*
X40926Y-44192D01*
X40935Y-45634D01*
X58434Y-45634D01*
X75934Y-45634D01*
X75934Y-26184D01*
X75934Y-6734D01*
X47984Y-6734D01*
X20034Y-6734D01*
X20034Y-6667D01*
X47967Y-6667D01*
X75967Y-6667D01*
X75967Y-26167D01*
X75967Y-45666D01*
X58175Y-45675D01*
X56992Y-45676D01*
X55785Y-45676D01*
X54559Y-45677D01*
X53317Y-45677D01*
X52063Y-45677D01*
X50801Y-45678D01*
X49535Y-45678D01*
X48268Y-45678D01*
X47004Y-45678D01*
X45746Y-45679D01*
X44499Y-45679D01*
X43266Y-45679D01*
X42051Y-45679D01*
X40858Y-45679D01*
X39690Y-45679D01*
X38551Y-45678D01*
X37445Y-45678D01*
X36375Y-45678D01*
X35346Y-45678D01*
X34361Y-45677D01*
X33423Y-45677D01*
X32537Y-45677D01*
X31706Y-45676D01*
X30934Y-45676D01*
X30225Y-45675D01*
X30175Y-45675D01*
X19967Y-45666D01*
X19967Y-26167D01*
X19967Y-6667D01*
X19967Y-6667D01*
X19967Y-6667D01*
G37*
G36*
X60506Y-10248D02*
X60533Y-10072D01*
X60609Y-9909D01*
X60735Y-9772D01*
X60812Y-9719D01*
X60976Y-9647D01*
X61146Y-9616D01*
X61297Y-9629D01*
X61308Y-9632D01*
X61488Y-9719D01*
X61633Y-9848D01*
X61734Y-10006D01*
X61786Y-10182D01*
X61782Y-10363D01*
X61766Y-10423D01*
X61675Y-10612D01*
X61543Y-10757D01*
X61381Y-10854D01*
X61198Y-10896D01*
X61004Y-10880D01*
X60882Y-10838D01*
X60718Y-10731D01*
X60600Y-10589D01*
X60529Y-10424D01*
X60506Y-10248D01*
X60506Y-10248D01*
X60506Y-10248D01*
G37*
G36*
X21137Y-34755D02*
X21176Y-34580D01*
X21266Y-34417D01*
X21408Y-34279D01*
X21426Y-34266D01*
X21555Y-34208D01*
X21716Y-34177D01*
X21879Y-34178D01*
X22015Y-34211D01*
X22017Y-34212D01*
X22186Y-34324D01*
X22311Y-34481D01*
X22384Y-34669D01*
X22400Y-34817D01*
X22370Y-35010D01*
X22286Y-35177D01*
X22157Y-35310D01*
X21996Y-35401D01*
X21811Y-35443D01*
X21626Y-35428D01*
X21443Y-35358D01*
X21301Y-35244D01*
X21201Y-35098D01*
X21146Y-34931D01*
X21137Y-34755D01*
X21137Y-34755D01*
X21137Y-34755D01*
G37*
G36*
X67474Y-43943D02*
X67485Y-43766D01*
X67554Y-43588D01*
X67580Y-43546D01*
X67708Y-43406D01*
X67871Y-43307D01*
X68052Y-43256D01*
X68233Y-43261D01*
X68250Y-43265D01*
X68389Y-43312D01*
X68503Y-43389D01*
X68595Y-43482D01*
X68701Y-43649D01*
X68750Y-43831D01*
X68742Y-44015D01*
X68680Y-44188D01*
X68568Y-44339D01*
X68407Y-44456D01*
X68391Y-44464D01*
X68204Y-44523D01*
X68023Y-44524D01*
X67857Y-44475D01*
X67711Y-44385D01*
X67594Y-44260D01*
X67513Y-44110D01*
X67474Y-43943D01*
X67474Y-43943D01*
X67474Y-43943D01*
G37*
G36*
X46237Y-43961D02*
X46241Y-43861D01*
X46253Y-43727D01*
X46277Y-43633D01*
X46322Y-43553D01*
X46354Y-43511D01*
X46498Y-43376D01*
X46669Y-43288D01*
X46852Y-43254D01*
X46984Y-43266D01*
X47182Y-43343D01*
X47338Y-43470D01*
X47392Y-43541D01*
X47446Y-43634D01*
X47473Y-43725D01*
X47483Y-43843D01*
X47484Y-43898D01*
X47469Y-44070D01*
X47419Y-44208D01*
X47322Y-44329D01*
X47209Y-44425D01*
X47131Y-44477D01*
X47054Y-44505D01*
X46950Y-44516D01*
X46868Y-44517D01*
X46673Y-44497D01*
X46518Y-44432D01*
X46387Y-44313D01*
X46318Y-44219D01*
X46269Y-44135D01*
X46244Y-44058D01*
X46237Y-43961D01*
X46237Y-43961D01*
X46237Y-43961D01*
G37*
G54D20*
X74500Y-53450D02*
X74500Y-53850D01*
X74500Y-53850D02*
X74900Y-53850D01*
X74900Y-53850D02*
X74900Y-57050D01*
X74900Y-57050D02*
X74100Y-57050D01*
X74100Y-57050D02*
X74100Y-53850D01*
X74100Y-53850D02*
X74500Y-53850D01*
X74700Y-53850D02*
X74900Y-54050D01*
X74500Y-57450D02*
X74500Y-57050D01*
X74500Y-52250D02*
X74500Y-51850D01*
X74500Y-51850D02*
X74100Y-51850D01*
X74100Y-51850D02*
X74100Y-48650D01*
X74100Y-48650D02*
X74900Y-48650D01*
X74900Y-48650D02*
X74900Y-51850D01*
X74900Y-51850D02*
X74500Y-51850D01*
X74300Y-51850D02*
X74100Y-51650D01*
X74500Y-48250D02*
X74500Y-48650D01*
X73650Y-55050D02*
X73650Y-57850D01*
X73650Y-57850D02*
X72850Y-57850D01*
X72850Y-57850D02*
X72850Y-55050D01*
X72850Y-55050D02*
X73650Y-55050D01*
X73450Y-55050D02*
X73650Y-55250D01*
X16300Y-57550D02*
X16300Y-57150D01*
X16300Y-57150D02*
X15900Y-57150D01*
X15900Y-57150D02*
X15900Y-53950D01*
X15900Y-53950D02*
X16700Y-53950D01*
X16700Y-53950D02*
X16700Y-57150D01*
X16700Y-57150D02*
X16300Y-57150D01*
X16100Y-57150D02*
X15900Y-56950D01*
X16300Y-53550D02*
X16300Y-53950D01*
X17500Y-57550D02*
X17500Y-57150D01*
X17500Y-57150D02*
X17100Y-57150D01*
X17100Y-57150D02*
X17100Y-53950D01*
X17100Y-53950D02*
X17900Y-53950D01*
X17900Y-53950D02*
X17900Y-57150D01*
X17900Y-57150D02*
X17500Y-57150D01*
X17300Y-57150D02*
X17100Y-56950D01*
X17500Y-53550D02*
X17500Y-53950D01*
G54D21*
X19200Y-52000D02*
X19200Y-51000D01*
X19200Y-51000D02*
X22200Y-51000D01*
X22200Y-51000D02*
X22200Y-52000D01*
X22200Y-52000D02*
X19200Y-52000D01*
X20200Y-51000D02*
X20200Y-52000D01*
G54D20*
X8750Y-40450D02*
X8750Y-40050D01*
X8750Y-40050D02*
X8350Y-40050D01*
X8350Y-40050D02*
X8350Y-36850D01*
X8350Y-36850D02*
X9150Y-36850D01*
X9150Y-36850D02*
X9150Y-40050D01*
X9150Y-40050D02*
X8750Y-40050D01*
X8550Y-40050D02*
X8350Y-39850D01*
X8750Y-36450D02*
X8750Y-36850D01*
X5750Y-19950D02*
X5350Y-19950D01*
X5350Y-19950D02*
X5350Y-20350D01*
X5350Y-20350D02*
X2150Y-20350D01*
X2150Y-20350D02*
X2150Y-19550D01*
X2150Y-19550D02*
X5350Y-19550D01*
X5350Y-19550D02*
X5350Y-19950D01*
X5350Y-20150D02*
X5150Y-20350D01*
X1750Y-19950D02*
X2150Y-19950D01*
X8500Y-22450D02*
G75*
G03X8500Y-22450I-1750J0D01*
G74*
G01*
X61750Y-54000D02*
X61750Y-54300D01*
X61750Y-54300D02*
X61350Y-54300D01*
X61350Y-54300D02*
X61350Y-56700D01*
X61350Y-56700D02*
X61750Y-56700D01*
X61750Y-56700D02*
X61750Y-57000D01*
X61750Y-56700D02*
X62150Y-56700D01*
X62150Y-56700D02*
X62150Y-54300D01*
X62150Y-54300D02*
X61750Y-54300D01*
X61350Y-54500D02*
X62150Y-54500D01*
X62150Y-54600D02*
X61350Y-54600D01*
X60500Y-54000D02*
X60500Y-54300D01*
X60500Y-54300D02*
X60100Y-54300D01*
X60100Y-54300D02*
X60100Y-56700D01*
X60100Y-56700D02*
X60500Y-56700D01*
X60500Y-56700D02*
X60500Y-57000D01*
X60500Y-56700D02*
X60900Y-56700D01*
X60900Y-56700D02*
X60900Y-54300D01*
X60900Y-54300D02*
X60500Y-54300D01*
X60100Y-54500D02*
X60900Y-54500D01*
X60900Y-54600D02*
X60100Y-54600D01*
G54D10*
X80659Y-11340D02*
X80265Y-11340D01*
X80265Y-11190D01*
X80284Y-11153D01*
X80303Y-11134D01*
X80340Y-11115D01*
X80396Y-11115D01*
X80434Y-11134D01*
X80453Y-11153D01*
X80471Y-11190D01*
X80471Y-11340D01*
X80265Y-10759D02*
X80265Y-10946D01*
X80453Y-10965D01*
X80434Y-10946D01*
X80415Y-10909D01*
X80415Y-10815D01*
X80434Y-10778D01*
X80453Y-10759D01*
X80490Y-10740D01*
X80584Y-10740D01*
X80621Y-10759D01*
X80640Y-10778D01*
X80659Y-10815D01*
X80659Y-10909D01*
X80640Y-10946D01*
X80621Y-10965D01*
G54D12*
X80739Y-15768D02*
X80148Y-15768D01*
X80570Y-15571D01*
X80148Y-15374D01*
X80739Y-15374D01*
X80739Y-15093D02*
X80148Y-15093D01*
X80739Y-14812D02*
X80148Y-14812D01*
X80739Y-14474D01*
X80148Y-14474D01*
X80739Y-14193D02*
X80148Y-14193D01*
X80148Y-13996D02*
X80148Y-13659D01*
X80739Y-13828D02*
X80148Y-13828D01*
X80429Y-13462D02*
X80429Y-13265D01*
X80739Y-13181D02*
X80739Y-13462D01*
X80148Y-13462D01*
X80148Y-13181D01*
X80739Y-12647D02*
X80739Y-12928D01*
X80148Y-12928D01*
G54D19*
X14461Y-22095D02*
X14061Y-22095D01*
X14061Y-21942D01*
X14080Y-21904D01*
X14100Y-21885D01*
X14138Y-21866D01*
X14195Y-21866D01*
X14233Y-21885D01*
X14252Y-21904D01*
X14271Y-21942D01*
X14271Y-22095D01*
X14061Y-21523D02*
X14061Y-21599D01*
X14080Y-21638D01*
X14100Y-21657D01*
X14157Y-21695D01*
X14233Y-21714D01*
X14385Y-21714D01*
X14423Y-21695D01*
X14442Y-21676D01*
X14461Y-21638D01*
X14461Y-21561D01*
X14442Y-21523D01*
X14423Y-21504D01*
X14385Y-21485D01*
X14290Y-21485D01*
X14252Y-21504D01*
X14233Y-21523D01*
X14214Y-21561D01*
X14214Y-21638D01*
X14233Y-21676D01*
X14252Y-21695D01*
X14290Y-21714D01*
G54D23*
G54D15*
X15974Y-33155D02*
X15974Y-33022D01*
X16183Y-32965D02*
X16183Y-33155D01*
X15783Y-33155D01*
X15783Y-32965D01*
X15783Y-32831D02*
X16183Y-32565D01*
X15783Y-32565D02*
X16183Y-32831D01*
X16183Y-32412D02*
X15783Y-32412D01*
X15783Y-32260D01*
X15802Y-32222D01*
X15821Y-32203D01*
X15859Y-32184D01*
X15916Y-32184D01*
X15954Y-32203D01*
X15974Y-32222D01*
X15993Y-32260D01*
X15993Y-32412D01*
X16069Y-32031D02*
X16069Y-31841D01*
X16183Y-32069D02*
X15783Y-31936D01*
X16183Y-31803D01*
X16183Y-31669D02*
X15783Y-31669D01*
X16183Y-31441D01*
X15783Y-31441D01*
X16164Y-31269D02*
X16183Y-31212D01*
X16183Y-31117D01*
X16164Y-31079D01*
X16145Y-31060D01*
X16107Y-31041D01*
X16069Y-31041D01*
X16031Y-31060D01*
X16012Y-31079D01*
X15993Y-31117D01*
X15974Y-31193D01*
X15954Y-31231D01*
X15935Y-31250D01*
X15897Y-31269D01*
X15859Y-31269D01*
X15821Y-31250D01*
X15802Y-31231D01*
X15783Y-31193D01*
X15783Y-31098D01*
X15802Y-31041D01*
X16183Y-30869D02*
X15783Y-30869D01*
X15783Y-30603D02*
X15783Y-30527D01*
X15802Y-30488D01*
X15840Y-30450D01*
X15916Y-30431D01*
X16050Y-30431D01*
X16126Y-30450D01*
X16164Y-30488D01*
X16183Y-30527D01*
X16183Y-30603D01*
X16164Y-30641D01*
X16126Y-30679D01*
X16050Y-30698D01*
X15916Y-30698D01*
X15840Y-30679D01*
X15802Y-30641D01*
X15783Y-30603D01*
X16183Y-30260D02*
X15783Y-30260D01*
X16183Y-30031D01*
X15783Y-30031D01*
X55130Y-49642D02*
X55207Y-49642D01*
X55245Y-49671D01*
X55283Y-49728D01*
X55302Y-49842D01*
X55302Y-50042D01*
X55283Y-50157D01*
X55245Y-50214D01*
X55207Y-50242D01*
X55130Y-50242D01*
X55092Y-50214D01*
X55054Y-50157D01*
X55035Y-50042D01*
X55035Y-49842D01*
X55054Y-49728D01*
X55092Y-49671D01*
X55130Y-49642D01*
X55454Y-50214D02*
X55511Y-50242D01*
X55607Y-50242D01*
X55645Y-50214D01*
X55664Y-50185D01*
X55683Y-50128D01*
X55683Y-50071D01*
X55664Y-50014D01*
X55645Y-49985D01*
X55607Y-49957D01*
X55530Y-49928D01*
X55492Y-49900D01*
X55473Y-49871D01*
X55454Y-49814D01*
X55454Y-49757D01*
X55473Y-49700D01*
X55492Y-49671D01*
X55530Y-49642D01*
X55626Y-49642D01*
X55683Y-49671D01*
X56083Y-50185D02*
X56064Y-50214D01*
X56007Y-50242D01*
X55969Y-50242D01*
X55911Y-50214D01*
X55873Y-50157D01*
X55854Y-50100D01*
X55835Y-49985D01*
X55835Y-49900D01*
X55854Y-49785D01*
X55873Y-49728D01*
X55911Y-49671D01*
X55969Y-49642D01*
X56007Y-49642D01*
X56064Y-49671D01*
X56083Y-49700D01*
X56464Y-50242D02*
X56235Y-50242D01*
X56350Y-50242D02*
X56350Y-49642D01*
X56311Y-49728D01*
X56273Y-49785D01*
X56235Y-49814D01*
X54369Y-50842D02*
X54369Y-51242D01*
X54273Y-50614D02*
X54178Y-51042D01*
X54426Y-51042D01*
X54578Y-51185D02*
X54597Y-51214D01*
X54578Y-51242D01*
X54559Y-51214D01*
X54578Y-51185D01*
X54578Y-51242D01*
X54788Y-51242D02*
X54864Y-51242D01*
X54902Y-51214D01*
X54921Y-51185D01*
X54959Y-51100D01*
X54978Y-50985D01*
X54978Y-50757D01*
X54959Y-50700D01*
X54940Y-50671D01*
X54902Y-50642D01*
X54826Y-50642D01*
X54788Y-50671D01*
X54769Y-50700D01*
X54750Y-50757D01*
X54750Y-50900D01*
X54769Y-50957D01*
X54788Y-50985D01*
X54826Y-51014D01*
X54902Y-51014D01*
X54940Y-50985D01*
X54959Y-50957D01*
X54978Y-50900D01*
X55359Y-51242D02*
X55130Y-51242D01*
X55245Y-51242D02*
X55245Y-50642D01*
X55207Y-50728D01*
X55169Y-50785D01*
X55130Y-50814D01*
X55721Y-50642D02*
X55530Y-50642D01*
X55511Y-50928D01*
X55530Y-50900D01*
X55569Y-50871D01*
X55664Y-50871D01*
X55702Y-50900D01*
X55721Y-50928D01*
X55740Y-50985D01*
X55740Y-51128D01*
X55721Y-51185D01*
X55702Y-51214D01*
X55664Y-51242D01*
X55569Y-51242D01*
X55530Y-51214D01*
X55511Y-51185D01*
X55892Y-50700D02*
X55911Y-50671D01*
X55950Y-50642D01*
X56045Y-50642D01*
X56083Y-50671D01*
X56102Y-50700D01*
X56121Y-50757D01*
X56121Y-50814D01*
X56102Y-50900D01*
X55873Y-51242D01*
X56121Y-51242D01*
X56292Y-51242D02*
X56292Y-50642D01*
X56426Y-51071D01*
X56559Y-50642D01*
X56559Y-51242D01*
X56750Y-51242D02*
X56750Y-50642D01*
X56750Y-50928D02*
X56978Y-50928D01*
X56978Y-51242D02*
X56978Y-50642D01*
X57130Y-50842D02*
X57340Y-50842D01*
X57130Y-51242D01*
X57340Y-51242D01*
G54D20*
X9942Y-9935D02*
X10542Y-9535D01*
X9942Y-9535D02*
X10542Y-9935D01*
X10542Y-8992D02*
X10542Y-9335D01*
X10542Y-9164D02*
X9942Y-9164D01*
X10028Y-9221D01*
X10085Y-9278D01*
X10114Y-9335D01*
X9042Y-10464D02*
X9042Y-10807D01*
X9042Y-10635D02*
X8442Y-10635D01*
X8528Y-10692D01*
X8585Y-10749D01*
X8614Y-10807D01*
X8500Y-10235D02*
X8471Y-10207D01*
X8442Y-10149D01*
X8442Y-10007D01*
X8471Y-9949D01*
X8500Y-9921D01*
X8557Y-9892D01*
X8614Y-9892D01*
X8700Y-9921D01*
X9042Y-10264D01*
X9042Y-9892D01*
X9042Y-9635D02*
X8442Y-9635D01*
X8871Y-9435D01*
X8442Y-9235D01*
X9042Y-9235D01*
X9042Y-8949D02*
X8442Y-8949D01*
X8728Y-8949D02*
X8728Y-8607D01*
X9042Y-8607D02*
X8442Y-8607D01*
X8642Y-8378D02*
X8642Y-8064D01*
X9042Y-8378D01*
X9042Y-8064D01*
G54D24*
X46142Y-57807D02*
X46628Y-57807D01*
X46685Y-57785D01*
X46714Y-57764D01*
X46742Y-57721D01*
X46742Y-57635D01*
X46714Y-57592D01*
X46685Y-57571D01*
X46628Y-57549D01*
X46142Y-57549D01*
X46742Y-57099D02*
X46742Y-57357D01*
X46742Y-57228D02*
X46142Y-57228D01*
X46228Y-57271D01*
X46285Y-57314D01*
X46314Y-57357D01*
X46142Y-56949D02*
X46142Y-56671D01*
X46371Y-56821D01*
X46371Y-56757D01*
X46400Y-56714D01*
X46428Y-56692D01*
X46485Y-56671D01*
X46628Y-56671D01*
X46685Y-56692D01*
X46714Y-56714D01*
X46742Y-56757D01*
X46742Y-56885D01*
X46714Y-56928D01*
X46685Y-56949D01*
G54D20*
G54D24*
X47142Y-55653D02*
X47142Y-55353D01*
X47742Y-55546D01*
X47342Y-54989D02*
X47742Y-54989D01*
X47114Y-55096D02*
X47542Y-55203D01*
X47542Y-54924D01*
X47742Y-54539D02*
X47742Y-54753D01*
X47142Y-54753D01*
X47714Y-54410D02*
X47742Y-54346D01*
X47742Y-54239D01*
X47714Y-54196D01*
X47685Y-54174D01*
X47628Y-54153D01*
X47571Y-54153D01*
X47514Y-54174D01*
X47485Y-54196D01*
X47457Y-54239D01*
X47428Y-54324D01*
X47400Y-54367D01*
X47371Y-54389D01*
X47314Y-54410D01*
X47257Y-54410D01*
X47200Y-54389D01*
X47171Y-54367D01*
X47142Y-54324D01*
X47142Y-54217D01*
X47171Y-54153D01*
X47742Y-53725D02*
X47742Y-53982D01*
X47742Y-53853D02*
X47142Y-53853D01*
X47228Y-53896D01*
X47285Y-53939D01*
X47314Y-53982D01*
X47142Y-53317D02*
X47142Y-53532D01*
X47428Y-53553D01*
X47400Y-53532D01*
X47371Y-53489D01*
X47371Y-53382D01*
X47400Y-53339D01*
X47428Y-53317D01*
X47485Y-53296D01*
X47628Y-53296D01*
X47685Y-53317D01*
X47714Y-53339D01*
X47742Y-53382D01*
X47742Y-53489D01*
X47714Y-53532D01*
X47685Y-53553D01*
X47142Y-52910D02*
X47142Y-52996D01*
X47171Y-53039D01*
X47200Y-53060D01*
X47285Y-53103D01*
X47400Y-53125D01*
X47628Y-53125D01*
X47685Y-53103D01*
X47714Y-53082D01*
X47742Y-53039D01*
X47742Y-52953D01*
X47714Y-52910D01*
X47685Y-52889D01*
X47628Y-52867D01*
X47485Y-52867D01*
X47428Y-52889D01*
X47400Y-52910D01*
X47371Y-52953D01*
X47371Y-53039D01*
X47400Y-53082D01*
X47428Y-53103D01*
X47485Y-53125D01*
G54D20*
X6992Y-3092D02*
X6992Y-3578D01*
X7021Y-3635D01*
X7050Y-3664D01*
X7107Y-3692D01*
X7221Y-3692D01*
X7278Y-3664D01*
X7307Y-3635D01*
X7335Y-3578D01*
X7335Y-3092D01*
X7592Y-3664D02*
X7678Y-3692D01*
X7821Y-3692D01*
X7878Y-3664D01*
X7907Y-3635D01*
X7935Y-3578D01*
X7935Y-3521D01*
X7907Y-3464D01*
X7878Y-3435D01*
X7821Y-3407D01*
X7707Y-3378D01*
X7650Y-3350D01*
X7621Y-3321D01*
X7592Y-3264D01*
X7592Y-3207D01*
X7621Y-3150D01*
X7650Y-3121D01*
X7707Y-3092D01*
X7850Y-3092D01*
X7935Y-3121D01*
X8392Y-3378D02*
X8478Y-3407D01*
X8507Y-3435D01*
X8535Y-3492D01*
X8535Y-3578D01*
X8507Y-3635D01*
X8478Y-3664D01*
X8421Y-3692D01*
X8192Y-3692D01*
X8192Y-3092D01*
X8392Y-3092D01*
X8450Y-3121D01*
X8478Y-3150D01*
X8507Y-3207D01*
X8507Y-3264D01*
X8478Y-3321D01*
X8450Y-3350D01*
X8392Y-3378D01*
X8192Y-3378D01*
G54D24*
X5183Y-27257D02*
X5750Y-27257D01*
X5816Y-27235D01*
X5850Y-27214D01*
X5883Y-27171D01*
X5883Y-27085D01*
X5850Y-27042D01*
X5816Y-27021D01*
X5750Y-26999D01*
X5183Y-26999D01*
X5883Y-26549D02*
X5883Y-26807D01*
X5883Y-26678D02*
X5183Y-26678D01*
X5283Y-26721D01*
X5350Y-26764D01*
X5383Y-26807D01*
X5883Y-26121D02*
X5883Y-26378D01*
X5883Y-26249D02*
X5183Y-26249D01*
X5283Y-26292D01*
X5350Y-26335D01*
X5383Y-26378D01*
G54D20*
G54D19*
X3223Y-27033D02*
X3033Y-27033D01*
X3033Y-26333D01*
X3357Y-27033D02*
X3357Y-26333D01*
X3490Y-26833D01*
X3623Y-26333D01*
X3623Y-27033D01*
X3776Y-26333D02*
X4023Y-26333D01*
X3890Y-26600D01*
X3947Y-26600D01*
X3985Y-26633D01*
X4004Y-26666D01*
X4023Y-26733D01*
X4023Y-26900D01*
X4004Y-26966D01*
X3985Y-27000D01*
X3947Y-27033D01*
X3833Y-27033D01*
X3795Y-27000D01*
X3776Y-26966D01*
X4252Y-26633D02*
X4214Y-26600D01*
X4195Y-26566D01*
X4176Y-26500D01*
X4176Y-26466D01*
X4195Y-26400D01*
X4214Y-26366D01*
X4252Y-26333D01*
X4328Y-26333D01*
X4366Y-26366D01*
X4385Y-26400D01*
X4404Y-26466D01*
X4404Y-26500D01*
X4385Y-26566D01*
X4366Y-26600D01*
X4328Y-26633D01*
X4252Y-26633D01*
X4214Y-26666D01*
X4195Y-26700D01*
X4176Y-26766D01*
X4176Y-26900D01*
X4195Y-26966D01*
X4214Y-27000D01*
X4252Y-27033D01*
X4328Y-27033D01*
X4366Y-27000D01*
X4385Y-26966D01*
X4404Y-26900D01*
X4404Y-26766D01*
X4385Y-26700D01*
X4366Y-26666D01*
X4328Y-26633D01*
X4747Y-26333D02*
X4671Y-26333D01*
X4633Y-26366D01*
X4614Y-26400D01*
X4576Y-26500D01*
X4557Y-26633D01*
X4557Y-26900D01*
X4576Y-26966D01*
X4595Y-27000D01*
X4633Y-27033D01*
X4709Y-27033D01*
X4747Y-27000D01*
X4766Y-26966D01*
X4785Y-26900D01*
X4785Y-26733D01*
X4766Y-26666D01*
X4747Y-26633D01*
X4709Y-26600D01*
X4633Y-26600D01*
X4595Y-26633D01*
X4576Y-26666D01*
X4557Y-26733D01*
G54D20*
G54D15*
X30095Y-992D02*
X30095Y-1478D01*
X30114Y-1535D01*
X30133Y-1564D01*
X30171Y-1592D01*
X30247Y-1592D01*
X30285Y-1564D01*
X30304Y-1535D01*
X30323Y-1478D01*
X30323Y-992D01*
X30495Y-1050D02*
X30514Y-1021D01*
X30552Y-992D01*
X30647Y-992D01*
X30685Y-1021D01*
X30704Y-1050D01*
X30723Y-1107D01*
X30723Y-1164D01*
X30704Y-1250D01*
X30476Y-1592D01*
X30723Y-1592D01*
X31995Y-942D02*
X32261Y-942D01*
X32090Y-1542D01*
X32471Y-1200D02*
X32433Y-1171D01*
X32414Y-1142D01*
X32395Y-1085D01*
X32395Y-1057D01*
X32414Y-1000D01*
X32433Y-971D01*
X32471Y-942D01*
X32547Y-942D01*
X32585Y-971D01*
X32604Y-1000D01*
X32623Y-1057D01*
X32623Y-1085D01*
X32604Y-1142D01*
X32585Y-1171D01*
X32547Y-1200D01*
X32471Y-1200D01*
X32433Y-1228D01*
X32414Y-1257D01*
X32395Y-1314D01*
X32395Y-1428D01*
X32414Y-1485D01*
X32433Y-1514D01*
X32471Y-1542D01*
X32547Y-1542D01*
X32585Y-1514D01*
X32604Y-1485D01*
X32623Y-1428D01*
X32623Y-1314D01*
X32604Y-1257D01*
X32585Y-1228D01*
X32547Y-1200D01*
X33004Y-1542D02*
X32776Y-1542D01*
X32890Y-1542D02*
X32890Y-942D01*
X32852Y-1028D01*
X32814Y-1085D01*
X32776Y-1114D01*
X33157Y-1000D02*
X33176Y-971D01*
X33214Y-942D01*
X33309Y-942D01*
X33347Y-971D01*
X33366Y-1000D01*
X33385Y-1057D01*
X33385Y-1114D01*
X33366Y-1200D01*
X33138Y-1542D01*
X33385Y-1542D01*
G54D24*
X64907Y-49642D02*
X64907Y-50128D01*
X64928Y-50185D01*
X64950Y-50214D01*
X64992Y-50242D01*
X65078Y-50242D01*
X65121Y-50214D01*
X65142Y-50185D01*
X65164Y-50128D01*
X65164Y-49642D01*
X65335Y-49642D02*
X65614Y-49642D01*
X65464Y-49871D01*
X65528Y-49871D01*
X65571Y-49900D01*
X65592Y-49928D01*
X65614Y-49985D01*
X65614Y-50128D01*
X65592Y-50185D01*
X65571Y-50214D01*
X65528Y-50242D01*
X65400Y-50242D01*
X65357Y-50214D01*
X65335Y-50185D01*
G54D20*
G54D24*
X66846Y-50642D02*
X67146Y-50642D01*
X66953Y-51242D01*
X67510Y-50842D02*
X67510Y-51242D01*
X67403Y-50614D02*
X67296Y-51042D01*
X67575Y-51042D01*
X67960Y-51242D02*
X67746Y-51242D01*
X67746Y-50642D01*
X68089Y-51214D02*
X68153Y-51242D01*
X68260Y-51242D01*
X68303Y-51214D01*
X68325Y-51185D01*
X68346Y-51128D01*
X68346Y-51071D01*
X68325Y-51014D01*
X68303Y-50985D01*
X68260Y-50957D01*
X68175Y-50928D01*
X68132Y-50900D01*
X68110Y-50871D01*
X68089Y-50814D01*
X68089Y-50757D01*
X68110Y-50700D01*
X68132Y-50671D01*
X68175Y-50642D01*
X68282Y-50642D01*
X68346Y-50671D01*
X68517Y-50700D02*
X68539Y-50671D01*
X68582Y-50642D01*
X68689Y-50642D01*
X68732Y-50671D01*
X68753Y-50700D01*
X68775Y-50757D01*
X68775Y-50814D01*
X68753Y-50900D01*
X68496Y-51242D01*
X68775Y-51242D01*
X68946Y-50700D02*
X68967Y-50671D01*
X69010Y-50642D01*
X69117Y-50642D01*
X69160Y-50671D01*
X69182Y-50700D01*
X69203Y-50757D01*
X69203Y-50814D01*
X69182Y-50900D01*
X68925Y-51242D01*
X69203Y-51242D01*
X69632Y-51242D02*
X69374Y-51242D01*
X69503Y-51242D02*
X69503Y-50642D01*
X69460Y-50728D01*
X69417Y-50785D01*
X69374Y-50814D01*
G54D20*
G54D24*
X3892Y-44007D02*
X4378Y-44007D01*
X4435Y-43985D01*
X4464Y-43964D01*
X4492Y-43921D01*
X4492Y-43835D01*
X4464Y-43792D01*
X4435Y-43771D01*
X4378Y-43749D01*
X3892Y-43749D01*
X4492Y-43299D02*
X4492Y-43557D01*
X4492Y-43428D02*
X3892Y-43428D01*
X3978Y-43471D01*
X4035Y-43514D01*
X4064Y-43557D01*
X3892Y-43021D02*
X3892Y-42978D01*
X3921Y-42935D01*
X3950Y-42914D01*
X4007Y-42892D01*
X4121Y-42871D01*
X4264Y-42871D01*
X4378Y-42892D01*
X4435Y-42914D01*
X4464Y-42935D01*
X4492Y-42978D01*
X4492Y-43021D01*
X4464Y-43064D01*
X4435Y-43085D01*
X4378Y-43107D01*
X4264Y-43128D01*
X4121Y-43128D01*
X4007Y-43107D01*
X3950Y-43085D01*
X3921Y-43064D01*
X3892Y-43021D01*
G54D20*
G54D24*
X5207Y-41564D02*
X5492Y-41564D01*
X4892Y-41714D02*
X5207Y-41564D01*
X4892Y-41414D01*
X5492Y-41264D02*
X4892Y-41264D01*
X5321Y-41114D01*
X4892Y-40964D01*
X5492Y-40964D01*
X4892Y-40792D02*
X4892Y-40492D01*
X5492Y-40792D01*
X5492Y-40492D01*
X4950Y-40342D02*
X4921Y-40321D01*
X4892Y-40278D01*
X4892Y-40171D01*
X4921Y-40128D01*
X4950Y-40107D01*
X5007Y-40085D01*
X5064Y-40085D01*
X5150Y-40107D01*
X5492Y-40364D01*
X5492Y-40085D01*
X5150Y-39828D02*
X5121Y-39871D01*
X5092Y-39892D01*
X5035Y-39914D01*
X5007Y-39914D01*
X4950Y-39892D01*
X4921Y-39871D01*
X4892Y-39828D01*
X4892Y-39742D01*
X4921Y-39700D01*
X4950Y-39678D01*
X5007Y-39657D01*
X5035Y-39657D01*
X5092Y-39678D01*
X5121Y-39700D01*
X5150Y-39742D01*
X5150Y-39828D01*
X5178Y-39871D01*
X5207Y-39892D01*
X5264Y-39914D01*
X5378Y-39914D01*
X5435Y-39892D01*
X5464Y-39871D01*
X5492Y-39828D01*
X5492Y-39742D01*
X5464Y-39700D01*
X5435Y-39678D01*
X5378Y-39657D01*
X5264Y-39657D01*
X5207Y-39678D01*
X5178Y-39700D01*
X5150Y-39742D01*
X5092Y-39271D02*
X5492Y-39271D01*
X4864Y-39378D02*
X5292Y-39485D01*
X5292Y-39207D01*
G54D20*
G54D24*
X65907Y-55642D02*
X65907Y-56128D01*
X65928Y-56185D01*
X65950Y-56214D01*
X65992Y-56242D01*
X66078Y-56242D01*
X66121Y-56214D01*
X66142Y-56185D01*
X66164Y-56128D01*
X66164Y-55642D01*
X66571Y-55842D02*
X66571Y-56242D01*
X66464Y-55614D02*
X66357Y-56042D01*
X66635Y-56042D01*
G54D20*
G54D24*
X67560Y-56642D02*
X67860Y-56642D01*
X67667Y-57242D01*
X68225Y-56842D02*
X68225Y-57242D01*
X68117Y-56614D02*
X68010Y-57042D01*
X68289Y-57042D01*
X68675Y-57242D02*
X68460Y-57242D01*
X68460Y-56642D01*
X68803Y-57214D02*
X68867Y-57242D01*
X68975Y-57242D01*
X69017Y-57214D01*
X69039Y-57185D01*
X69060Y-57128D01*
X69060Y-57071D01*
X69039Y-57014D01*
X69017Y-56985D01*
X68975Y-56957D01*
X68889Y-56928D01*
X68846Y-56900D01*
X68825Y-56871D01*
X68803Y-56814D01*
X68803Y-56757D01*
X68825Y-56700D01*
X68846Y-56671D01*
X68889Y-56642D01*
X68996Y-56642D01*
X69060Y-56671D01*
X69210Y-56642D02*
X69489Y-56642D01*
X69339Y-56871D01*
X69403Y-56871D01*
X69446Y-56900D01*
X69467Y-56928D01*
X69489Y-56985D01*
X69489Y-57128D01*
X69467Y-57185D01*
X69446Y-57214D01*
X69403Y-57242D01*
X69275Y-57242D01*
X69232Y-57214D01*
X69210Y-57185D01*
X69746Y-56900D02*
X69703Y-56871D01*
X69682Y-56842D01*
X69660Y-56785D01*
X69660Y-56757D01*
X69682Y-56700D01*
X69703Y-56671D01*
X69746Y-56642D01*
X69832Y-56642D01*
X69875Y-56671D01*
X69896Y-56700D01*
X69917Y-56757D01*
X69917Y-56785D01*
X69896Y-56842D01*
X69875Y-56871D01*
X69832Y-56900D01*
X69746Y-56900D01*
X69703Y-56928D01*
X69682Y-56957D01*
X69660Y-57014D01*
X69660Y-57128D01*
X69682Y-57185D01*
X69703Y-57214D01*
X69746Y-57242D01*
X69832Y-57242D01*
X69875Y-57214D01*
X69896Y-57185D01*
X69917Y-57128D01*
X69917Y-57014D01*
X69896Y-56957D01*
X69875Y-56928D01*
X69832Y-56900D01*
G54D20*
G54D15*
X57495Y-892D02*
X57495Y-1378D01*
X57514Y-1435D01*
X57533Y-1464D01*
X57571Y-1492D01*
X57647Y-1492D01*
X57685Y-1464D01*
X57704Y-1435D01*
X57723Y-1378D01*
X57723Y-892D01*
X58104Y-892D02*
X57914Y-892D01*
X57895Y-1178D01*
X57914Y-1150D01*
X57952Y-1121D01*
X58047Y-1121D01*
X58085Y-1150D01*
X58104Y-1178D01*
X58123Y-1235D01*
X58123Y-1378D01*
X58104Y-1435D01*
X58085Y-1464D01*
X58047Y-1492D01*
X57952Y-1492D01*
X57914Y-1464D01*
X57895Y-1435D01*
X59295Y-942D02*
X59561Y-942D01*
X59390Y-1542D01*
X59771Y-1200D02*
X59733Y-1171D01*
X59714Y-1142D01*
X59695Y-1085D01*
X59695Y-1057D01*
X59714Y-1000D01*
X59733Y-971D01*
X59771Y-942D01*
X59847Y-942D01*
X59885Y-971D01*
X59904Y-1000D01*
X59923Y-1057D01*
X59923Y-1085D01*
X59904Y-1142D01*
X59885Y-1171D01*
X59847Y-1200D01*
X59771Y-1200D01*
X59733Y-1228D01*
X59714Y-1257D01*
X59695Y-1314D01*
X59695Y-1428D01*
X59714Y-1485D01*
X59733Y-1514D01*
X59771Y-1542D01*
X59847Y-1542D01*
X59885Y-1514D01*
X59904Y-1485D01*
X59923Y-1428D01*
X59923Y-1314D01*
X59904Y-1257D01*
X59885Y-1228D01*
X59847Y-1200D01*
X60171Y-942D02*
X60209Y-942D01*
X60247Y-971D01*
X60266Y-1000D01*
X60285Y-1057D01*
X60304Y-1171D01*
X60304Y-1314D01*
X60285Y-1428D01*
X60266Y-1485D01*
X60247Y-1514D01*
X60209Y-1542D01*
X60171Y-1542D01*
X60133Y-1514D01*
X60114Y-1485D01*
X60095Y-1428D01*
X60076Y-1314D01*
X60076Y-1171D01*
X60095Y-1057D01*
X60114Y-1000D01*
X60133Y-971D01*
X60171Y-942D01*
X60666Y-942D02*
X60476Y-942D01*
X60457Y-1228D01*
X60476Y-1200D01*
X60514Y-1171D01*
X60609Y-1171D01*
X60647Y-1200D01*
X60666Y-1228D01*
X60685Y-1285D01*
X60685Y-1428D01*
X60666Y-1485D01*
X60647Y-1514D01*
X60609Y-1542D01*
X60514Y-1542D01*
X60476Y-1514D01*
X60457Y-1485D01*
G54D24*
X35692Y-47892D02*
X35692Y-48378D01*
X35714Y-48435D01*
X35735Y-48464D01*
X35778Y-48492D01*
X35864Y-48492D01*
X35907Y-48464D01*
X35928Y-48435D01*
X35950Y-48378D01*
X35950Y-47892D01*
X36400Y-48492D02*
X36142Y-48492D01*
X36271Y-48492D02*
X36271Y-47892D01*
X36228Y-47978D01*
X36185Y-48035D01*
X36142Y-48064D01*
X36571Y-47950D02*
X36592Y-47921D01*
X36635Y-47892D01*
X36742Y-47892D01*
X36785Y-47921D01*
X36807Y-47950D01*
X36828Y-48007D01*
X36828Y-48064D01*
X36807Y-48150D01*
X36550Y-48492D01*
X36828Y-48492D01*
G54D20*
G54D24*
X27885Y-48492D02*
X27628Y-48492D01*
X27757Y-48492D02*
X27757Y-47892D01*
X27714Y-47978D01*
X27671Y-48035D01*
X27628Y-48064D01*
X28271Y-47892D02*
X28185Y-47892D01*
X28142Y-47921D01*
X28121Y-47950D01*
X28078Y-48035D01*
X28057Y-48150D01*
X28057Y-48378D01*
X28078Y-48435D01*
X28100Y-48464D01*
X28142Y-48492D01*
X28228Y-48492D01*
X28271Y-48464D01*
X28292Y-48435D01*
X28314Y-48378D01*
X28314Y-48235D01*
X28292Y-48178D01*
X28271Y-48150D01*
X28228Y-48121D01*
X28142Y-48121D01*
X28100Y-48150D01*
X28078Y-48178D01*
X28057Y-48235D01*
X28657Y-48178D02*
X28507Y-48178D01*
X28507Y-48492D02*
X28507Y-47892D01*
X28721Y-47892D01*
X28957Y-48150D02*
X28914Y-48121D01*
X28892Y-48092D01*
X28871Y-48035D01*
X28871Y-48007D01*
X28892Y-47950D01*
X28914Y-47921D01*
X28957Y-47892D01*
X29042Y-47892D01*
X29085Y-47921D01*
X29107Y-47950D01*
X29128Y-48007D01*
X29128Y-48035D01*
X29107Y-48092D01*
X29085Y-48121D01*
X29042Y-48150D01*
X28957Y-48150D01*
X28914Y-48178D01*
X28892Y-48207D01*
X28871Y-48264D01*
X28871Y-48378D01*
X28892Y-48435D01*
X28914Y-48464D01*
X28957Y-48492D01*
X29042Y-48492D01*
X29085Y-48464D01*
X29107Y-48435D01*
X29128Y-48378D01*
X29128Y-48264D01*
X29107Y-48207D01*
X29085Y-48178D01*
X29042Y-48150D01*
X29278Y-47892D02*
X29578Y-47892D01*
X29385Y-48492D01*
X29942Y-47892D02*
X29857Y-47892D01*
X29814Y-47921D01*
X29792Y-47950D01*
X29750Y-48035D01*
X29728Y-48150D01*
X29728Y-48378D01*
X29750Y-48435D01*
X29771Y-48464D01*
X29814Y-48492D01*
X29900Y-48492D01*
X29942Y-48464D01*
X29964Y-48435D01*
X29985Y-48378D01*
X29985Y-48235D01*
X29964Y-48178D01*
X29942Y-48150D01*
X29900Y-48121D01*
X29814Y-48121D01*
X29771Y-48150D01*
X29750Y-48178D01*
X29728Y-48235D01*
X30157Y-48321D02*
X30371Y-48321D01*
X30114Y-48492D02*
X30264Y-47892D01*
X30414Y-48492D01*
G54D20*
G54D15*
X32454Y-8611D02*
X32454Y-8211D01*
X32607Y-8211D01*
X32645Y-8230D01*
X32664Y-8250D01*
X32683Y-8288D01*
X32683Y-8345D01*
X32664Y-8383D01*
X32645Y-8402D01*
X32607Y-8421D01*
X32454Y-8421D01*
X33064Y-8611D02*
X32835Y-8611D01*
X32950Y-8611D02*
X32950Y-8211D01*
X32911Y-8269D01*
X32873Y-8307D01*
X32835Y-8326D01*
X74259Y-51422D02*
X74071Y-51566D01*
X74259Y-51669D02*
X73865Y-51669D01*
X73865Y-51504D01*
X73884Y-51463D01*
X73903Y-51442D01*
X73940Y-51422D01*
X73996Y-51422D01*
X74034Y-51442D01*
X74053Y-51463D01*
X74071Y-51504D01*
X74071Y-51669D01*
X73996Y-51050D02*
X74259Y-51050D01*
X73846Y-51154D02*
X74128Y-51257D01*
X74128Y-50989D01*
X73522Y-50497D02*
X73522Y-50783D01*
X73522Y-50640D02*
X72972Y-50640D01*
X73051Y-50688D01*
X73103Y-50735D01*
X73129Y-50783D01*
X72972Y-50188D02*
X72972Y-50140D01*
X72998Y-50092D01*
X73025Y-50069D01*
X73077Y-50045D01*
X73182Y-50021D01*
X73313Y-50021D01*
X73417Y-50045D01*
X73470Y-50069D01*
X73496Y-50092D01*
X73522Y-50140D01*
X73522Y-50188D01*
X73496Y-50235D01*
X73470Y-50259D01*
X73417Y-50283D01*
X73313Y-50307D01*
X73182Y-50307D01*
X73077Y-50283D01*
X73025Y-50259D01*
X72998Y-50235D01*
X72972Y-50188D01*
X73522Y-49807D02*
X72972Y-49807D01*
X73313Y-49759D02*
X73522Y-49616D01*
X73155Y-49616D02*
X73365Y-49807D01*
X62977Y-47825D02*
X62833Y-47619D01*
X62730Y-47825D02*
X62730Y-47392D01*
X62895Y-47392D01*
X62936Y-47412D01*
X62957Y-47433D01*
X62977Y-47474D01*
X62977Y-47536D01*
X62957Y-47577D01*
X62936Y-47598D01*
X62895Y-47619D01*
X62730Y-47619D01*
X63122Y-47392D02*
X63390Y-47392D01*
X63245Y-47557D01*
X63307Y-47557D01*
X63349Y-47577D01*
X63369Y-47598D01*
X63390Y-47639D01*
X63390Y-47742D01*
X63369Y-47784D01*
X63349Y-47804D01*
X63307Y-47825D01*
X63184Y-47825D01*
X63142Y-47804D01*
X63122Y-47784D01*
X63928Y-46472D02*
X63690Y-46472D01*
X63666Y-46734D01*
X63690Y-46708D01*
X63738Y-46682D01*
X63857Y-46682D01*
X63904Y-46708D01*
X63928Y-46734D01*
X63952Y-46786D01*
X63952Y-46917D01*
X63928Y-46970D01*
X63904Y-46996D01*
X63857Y-47022D01*
X63738Y-47022D01*
X63690Y-46996D01*
X63666Y-46970D01*
X64380Y-46472D02*
X64285Y-46472D01*
X64238Y-46498D01*
X64214Y-46525D01*
X64166Y-46603D01*
X64142Y-46708D01*
X64142Y-46917D01*
X64166Y-46970D01*
X64190Y-46996D01*
X64238Y-47022D01*
X64333Y-47022D01*
X64380Y-46996D01*
X64404Y-46970D01*
X64428Y-46917D01*
X64428Y-46786D01*
X64404Y-46734D01*
X64380Y-46708D01*
X64333Y-46682D01*
X64238Y-46682D01*
X64190Y-46708D01*
X64166Y-46734D01*
X64142Y-46786D01*
X64642Y-47022D02*
X64642Y-46472D01*
X64690Y-46813D02*
X64833Y-47022D01*
X64833Y-46655D02*
X64642Y-46865D01*
X64075Y-54672D02*
X63869Y-54816D01*
X64075Y-54919D02*
X63642Y-54919D01*
X63642Y-54754D01*
X63662Y-54713D01*
X63683Y-54692D01*
X63724Y-54672D01*
X63786Y-54672D01*
X63827Y-54692D01*
X63848Y-54713D01*
X63869Y-54754D01*
X63869Y-54919D01*
X63642Y-54280D02*
X63642Y-54486D01*
X63848Y-54507D01*
X63827Y-54486D01*
X63807Y-54445D01*
X63807Y-54342D01*
X63827Y-54300D01*
X63848Y-54280D01*
X63889Y-54259D01*
X63992Y-54259D01*
X64034Y-54280D01*
X64054Y-54300D01*
X64075Y-54342D01*
X64075Y-54445D01*
X64054Y-54486D01*
X64034Y-54507D01*
X63272Y-56297D02*
X63272Y-56583D01*
X63272Y-56440D02*
X62722Y-56440D01*
X62801Y-56488D01*
X62853Y-56535D01*
X62879Y-56583D01*
X62722Y-55988D02*
X62722Y-55940D01*
X62748Y-55892D01*
X62775Y-55869D01*
X62827Y-55845D01*
X62932Y-55821D01*
X63063Y-55821D01*
X63167Y-55845D01*
X63220Y-55869D01*
X63246Y-55892D01*
X63272Y-55940D01*
X63272Y-55988D01*
X63246Y-56035D01*
X63220Y-56059D01*
X63167Y-56083D01*
X63063Y-56107D01*
X62932Y-56107D01*
X62827Y-56083D01*
X62775Y-56059D01*
X62748Y-56035D01*
X62722Y-55988D01*
X63272Y-55607D02*
X62722Y-55607D01*
X63063Y-55559D02*
X63272Y-55416D01*
X62905Y-55416D02*
X63115Y-55607D01*
X44683Y-4123D02*
X44664Y-4142D01*
X44607Y-4161D01*
X44569Y-4161D01*
X44511Y-4142D01*
X44473Y-4104D01*
X44454Y-4066D01*
X44435Y-3990D01*
X44435Y-3933D01*
X44454Y-3857D01*
X44473Y-3819D01*
X44511Y-3780D01*
X44569Y-3761D01*
X44607Y-3761D01*
X44664Y-3780D01*
X44683Y-3800D01*
X45026Y-3895D02*
X45026Y-4161D01*
X44930Y-3742D02*
X44835Y-4028D01*
X45083Y-4028D01*
X44102Y-6161D02*
X43873Y-6161D01*
X43988Y-6161D02*
X43988Y-5761D01*
X43950Y-5819D01*
X43911Y-5857D01*
X43873Y-5876D01*
X44350Y-5761D02*
X44388Y-5761D01*
X44426Y-5780D01*
X44445Y-5800D01*
X44464Y-5838D01*
X44483Y-5914D01*
X44483Y-6009D01*
X44464Y-6085D01*
X44445Y-6123D01*
X44426Y-6142D01*
X44388Y-6161D01*
X44350Y-6161D01*
X44311Y-6142D01*
X44292Y-6123D01*
X44273Y-6085D01*
X44254Y-6009D01*
X44254Y-5914D01*
X44273Y-5838D01*
X44292Y-5800D01*
X44311Y-5780D01*
X44350Y-5761D01*
X44730Y-5761D02*
X44769Y-5761D01*
X44807Y-5780D01*
X44826Y-5800D01*
X44845Y-5838D01*
X44864Y-5914D01*
X44864Y-6009D01*
X44845Y-6085D01*
X44826Y-6123D01*
X44807Y-6142D01*
X44769Y-6161D01*
X44730Y-6161D01*
X44692Y-6142D01*
X44673Y-6123D01*
X44654Y-6085D01*
X44635Y-6009D01*
X44635Y-5914D01*
X44654Y-5838D01*
X44673Y-5800D01*
X44692Y-5780D01*
X44730Y-5761D01*
X45035Y-5895D02*
X45035Y-6295D01*
X45226Y-6104D02*
X45245Y-6142D01*
X45283Y-6161D01*
X45035Y-6104D02*
X45054Y-6142D01*
X45092Y-6161D01*
X45169Y-6161D01*
X45207Y-6142D01*
X45226Y-6104D01*
X45226Y-5895D01*
X45588Y-5952D02*
X45454Y-5952D01*
X45454Y-6161D02*
X45454Y-5761D01*
X45645Y-5761D01*
X71933Y-4123D02*
X71914Y-4142D01*
X71857Y-4161D01*
X71819Y-4161D01*
X71761Y-4142D01*
X71723Y-4104D01*
X71704Y-4066D01*
X71685Y-3990D01*
X71685Y-3933D01*
X71704Y-3857D01*
X71723Y-3819D01*
X71761Y-3780D01*
X71819Y-3761D01*
X71857Y-3761D01*
X71914Y-3780D01*
X71933Y-3800D01*
X72276Y-3761D02*
X72200Y-3761D01*
X72161Y-3780D01*
X72142Y-3800D01*
X72104Y-3857D01*
X72085Y-3933D01*
X72085Y-4085D01*
X72104Y-4123D01*
X72123Y-4142D01*
X72161Y-4161D01*
X72238Y-4161D01*
X72276Y-4142D01*
X72295Y-4123D01*
X72314Y-4085D01*
X72314Y-3990D01*
X72295Y-3952D01*
X72276Y-3933D01*
X72238Y-3914D01*
X72161Y-3914D01*
X72123Y-3933D01*
X72104Y-3952D01*
X72085Y-3990D01*
X71352Y-6161D02*
X71123Y-6161D01*
X71238Y-6161D02*
X71238Y-5761D01*
X71200Y-5819D01*
X71161Y-5857D01*
X71123Y-5876D01*
X71600Y-5761D02*
X71638Y-5761D01*
X71676Y-5780D01*
X71695Y-5800D01*
X71714Y-5838D01*
X71733Y-5914D01*
X71733Y-6009D01*
X71714Y-6085D01*
X71695Y-6123D01*
X71676Y-6142D01*
X71638Y-6161D01*
X71600Y-6161D01*
X71561Y-6142D01*
X71542Y-6123D01*
X71523Y-6085D01*
X71504Y-6009D01*
X71504Y-5914D01*
X71523Y-5838D01*
X71542Y-5800D01*
X71561Y-5780D01*
X71600Y-5761D01*
X71980Y-5761D02*
X72019Y-5761D01*
X72057Y-5780D01*
X72076Y-5800D01*
X72095Y-5838D01*
X72114Y-5914D01*
X72114Y-6009D01*
X72095Y-6085D01*
X72076Y-6123D01*
X72057Y-6142D01*
X72019Y-6161D01*
X71980Y-6161D01*
X71942Y-6142D01*
X71923Y-6123D01*
X71904Y-6085D01*
X71885Y-6009D01*
X71885Y-5914D01*
X71904Y-5838D01*
X71923Y-5800D01*
X71942Y-5780D01*
X71980Y-5761D01*
X72285Y-5895D02*
X72285Y-6295D01*
X72476Y-6104D02*
X72495Y-6142D01*
X72533Y-6161D01*
X72285Y-6104D02*
X72304Y-6142D01*
X72342Y-6161D01*
X72419Y-6161D01*
X72457Y-6142D01*
X72476Y-6104D01*
X72476Y-5895D01*
X72838Y-5952D02*
X72704Y-5952D01*
X72704Y-6161D02*
X72704Y-5761D01*
X72895Y-5761D01*
X70183Y-53373D02*
X70164Y-53392D01*
X70107Y-53411D01*
X70069Y-53411D01*
X70011Y-53392D01*
X69973Y-53354D01*
X69954Y-53316D01*
X69935Y-53240D01*
X69935Y-53183D01*
X69954Y-53107D01*
X69973Y-53069D01*
X70011Y-53030D01*
X70069Y-53011D01*
X70107Y-53011D01*
X70164Y-53030D01*
X70183Y-53050D01*
X70316Y-53011D02*
X70564Y-53011D01*
X70430Y-53164D01*
X70488Y-53164D01*
X70526Y-53183D01*
X70545Y-53202D01*
X70564Y-53240D01*
X70564Y-53335D01*
X70545Y-53373D01*
X70526Y-53392D01*
X70488Y-53411D01*
X70373Y-53411D01*
X70335Y-53392D01*
X70316Y-53373D01*
X70011Y-54161D02*
X69783Y-54161D01*
X69897Y-54161D02*
X69897Y-53761D01*
X69859Y-53819D01*
X69821Y-53857D01*
X69783Y-53876D01*
X70183Y-53895D02*
X70183Y-54161D01*
X70183Y-53933D02*
X70202Y-53914D01*
X70240Y-53895D01*
X70297Y-53895D01*
X70335Y-53914D01*
X70354Y-53952D01*
X70354Y-54161D01*
X70678Y-53952D02*
X70545Y-53952D01*
X70545Y-54161D02*
X70545Y-53761D01*
X70735Y-53761D01*
X65183Y-47873D02*
X65164Y-47892D01*
X65107Y-47911D01*
X65069Y-47911D01*
X65011Y-47892D01*
X64973Y-47854D01*
X64954Y-47816D01*
X64935Y-47740D01*
X64935Y-47683D01*
X64954Y-47607D01*
X64973Y-47569D01*
X65011Y-47530D01*
X65069Y-47511D01*
X65107Y-47511D01*
X65164Y-47530D01*
X65183Y-47550D01*
X65335Y-47550D02*
X65354Y-47530D01*
X65392Y-47511D01*
X65488Y-47511D01*
X65526Y-47530D01*
X65545Y-47550D01*
X65564Y-47588D01*
X65564Y-47626D01*
X65545Y-47683D01*
X65316Y-47911D01*
X65564Y-47911D01*
X67071Y-47861D02*
X66842Y-47861D01*
X66957Y-47861D02*
X66957Y-47461D01*
X66919Y-47519D01*
X66880Y-47557D01*
X66842Y-47576D01*
X67319Y-47461D02*
X67357Y-47461D01*
X67395Y-47480D01*
X67414Y-47500D01*
X67433Y-47538D01*
X67452Y-47614D01*
X67452Y-47709D01*
X67433Y-47785D01*
X67414Y-47823D01*
X67395Y-47842D01*
X67357Y-47861D01*
X67319Y-47861D01*
X67280Y-47842D01*
X67261Y-47823D01*
X67242Y-47785D01*
X67223Y-47709D01*
X67223Y-47614D01*
X67242Y-47538D01*
X67261Y-47500D01*
X67280Y-47480D01*
X67319Y-47461D01*
X67623Y-47595D02*
X67623Y-47861D01*
X67623Y-47633D02*
X67642Y-47614D01*
X67680Y-47595D01*
X67738Y-47595D01*
X67776Y-47614D01*
X67795Y-47652D01*
X67795Y-47861D01*
X68119Y-47652D02*
X67985Y-47652D01*
X67985Y-47861D02*
X67985Y-47461D01*
X68176Y-47461D01*
G54D25*
X31184Y-5071D02*
X31165Y-5090D01*
X31109Y-5109D01*
X31071Y-5109D01*
X31015Y-5090D01*
X30978Y-5053D01*
X30959Y-5015D01*
X30940Y-4940D01*
X30940Y-4884D01*
X30959Y-4809D01*
X30978Y-4771D01*
X31015Y-4734D01*
X31071Y-4715D01*
X31109Y-4715D01*
X31165Y-4734D01*
X31184Y-4753D01*
X31559Y-5109D02*
X31334Y-5109D01*
X31446Y-5109D02*
X31446Y-4715D01*
X31409Y-4771D01*
X31371Y-4809D01*
X31334Y-4828D01*
G54D12*
X30792Y-6611D02*
X30564Y-6611D01*
X30678Y-6611D02*
X30678Y-6211D01*
X30640Y-6269D01*
X30602Y-6307D01*
X30564Y-6326D01*
X31040Y-6211D02*
X31078Y-6211D01*
X31116Y-6230D01*
X31135Y-6250D01*
X31154Y-6288D01*
X31173Y-6364D01*
X31173Y-6459D01*
X31154Y-6535D01*
X31135Y-6573D01*
X31116Y-6592D01*
X31078Y-6611D01*
X31040Y-6611D01*
X31002Y-6592D01*
X30983Y-6573D01*
X30964Y-6535D01*
X30945Y-6459D01*
X30945Y-6364D01*
X30964Y-6288D01*
X30983Y-6250D01*
X31002Y-6230D01*
X31040Y-6211D01*
X31345Y-6345D02*
X31345Y-6745D01*
X31535Y-6554D02*
X31554Y-6592D01*
X31592Y-6611D01*
X31345Y-6554D02*
X31364Y-6592D01*
X31402Y-6611D01*
X31478Y-6611D01*
X31516Y-6592D01*
X31535Y-6554D01*
X31535Y-6345D01*
X31897Y-6402D02*
X31764Y-6402D01*
X31764Y-6611D02*
X31764Y-6211D01*
X31954Y-6211D01*
G54D26*
X30235Y-5757D02*
X30464Y-5757D01*
X30350Y-5871D02*
X30350Y-5642D01*
G54D15*
G54D25*
X58484Y-5121D02*
X58465Y-5140D01*
X58409Y-5159D01*
X58371Y-5159D01*
X58315Y-5140D01*
X58278Y-5103D01*
X58259Y-5065D01*
X58240Y-4990D01*
X58240Y-4934D01*
X58259Y-4859D01*
X58278Y-4821D01*
X58315Y-4784D01*
X58371Y-4765D01*
X58409Y-4765D01*
X58465Y-4784D01*
X58484Y-4803D01*
X58840Y-4765D02*
X58653Y-4765D01*
X58634Y-4953D01*
X58653Y-4934D01*
X58690Y-4915D01*
X58784Y-4915D01*
X58821Y-4934D01*
X58840Y-4953D01*
X58859Y-4990D01*
X58859Y-5084D01*
X58840Y-5121D01*
X58821Y-5140D01*
X58784Y-5159D01*
X58690Y-5159D01*
X58653Y-5140D01*
X58634Y-5121D01*
G54D12*
X58042Y-6761D02*
X57814Y-6761D01*
X57928Y-6761D02*
X57928Y-6361D01*
X57890Y-6419D01*
X57852Y-6457D01*
X57814Y-6476D01*
X58290Y-6361D02*
X58328Y-6361D01*
X58366Y-6380D01*
X58385Y-6400D01*
X58404Y-6438D01*
X58423Y-6514D01*
X58423Y-6609D01*
X58404Y-6685D01*
X58385Y-6723D01*
X58366Y-6742D01*
X58328Y-6761D01*
X58290Y-6761D01*
X58252Y-6742D01*
X58233Y-6723D01*
X58214Y-6685D01*
X58195Y-6609D01*
X58195Y-6514D01*
X58214Y-6438D01*
X58233Y-6400D01*
X58252Y-6380D01*
X58290Y-6361D01*
X58595Y-6495D02*
X58595Y-6895D01*
X58785Y-6704D02*
X58804Y-6742D01*
X58842Y-6761D01*
X58595Y-6704D02*
X58614Y-6742D01*
X58652Y-6761D01*
X58728Y-6761D01*
X58766Y-6742D01*
X58785Y-6704D01*
X58785Y-6495D01*
X59147Y-6552D02*
X59014Y-6552D01*
X59014Y-6761D02*
X59014Y-6361D01*
X59204Y-6361D01*
G54D26*
X57485Y-5757D02*
X57714Y-5757D01*
X57600Y-5871D02*
X57600Y-5642D01*
G54D15*
X11773Y-9116D02*
X11792Y-9135D01*
X11811Y-9192D01*
X11811Y-9230D01*
X11792Y-9288D01*
X11754Y-9326D01*
X11716Y-9345D01*
X11640Y-9364D01*
X11583Y-9364D01*
X11507Y-9345D01*
X11469Y-9326D01*
X11430Y-9288D01*
X11411Y-9230D01*
X11411Y-9192D01*
X11430Y-9135D01*
X11450Y-9116D01*
X11811Y-8926D02*
X11811Y-8849D01*
X11792Y-8811D01*
X11773Y-8792D01*
X11716Y-8754D01*
X11640Y-8735D01*
X11488Y-8735D01*
X11450Y-8754D01*
X11430Y-8773D01*
X11411Y-8811D01*
X11411Y-8888D01*
X11430Y-8926D01*
X11450Y-8945D01*
X11488Y-8964D01*
X11583Y-8964D01*
X11621Y-8945D01*
X11640Y-8926D01*
X11659Y-8888D01*
X11659Y-8811D01*
X11640Y-8773D01*
X11621Y-8754D01*
X11583Y-8735D01*
X13200Y-9657D02*
X13180Y-9638D01*
X13161Y-9599D01*
X13161Y-9504D01*
X13180Y-9466D01*
X13200Y-9447D01*
X13238Y-9428D01*
X13276Y-9428D01*
X13333Y-9447D01*
X13561Y-9676D01*
X13561Y-9428D01*
X13200Y-9276D02*
X13180Y-9257D01*
X13161Y-9219D01*
X13161Y-9123D01*
X13180Y-9085D01*
X13200Y-9066D01*
X13238Y-9047D01*
X13276Y-9047D01*
X13333Y-9066D01*
X13561Y-9295D01*
X13561Y-9047D01*
X13295Y-8876D02*
X13695Y-8876D01*
X13314Y-8876D02*
X13295Y-8838D01*
X13295Y-8761D01*
X13314Y-8723D01*
X13333Y-8704D01*
X13371Y-8685D01*
X13485Y-8685D01*
X13523Y-8704D01*
X13542Y-8723D01*
X13561Y-8761D01*
X13561Y-8838D01*
X13542Y-8876D01*
X13352Y-8380D02*
X13352Y-8514D01*
X13561Y-8514D02*
X13161Y-8514D01*
X13161Y-8323D01*
X11773Y-11216D02*
X11792Y-11235D01*
X11811Y-11292D01*
X11811Y-11330D01*
X11792Y-11388D01*
X11754Y-11426D01*
X11716Y-11445D01*
X11640Y-11464D01*
X11583Y-11464D01*
X11507Y-11445D01*
X11469Y-11426D01*
X11430Y-11388D01*
X11411Y-11330D01*
X11411Y-11292D01*
X11430Y-11235D01*
X11450Y-11216D01*
X11583Y-10988D02*
X11564Y-11026D01*
X11545Y-11045D01*
X11507Y-11064D01*
X11488Y-11064D01*
X11450Y-11045D01*
X11430Y-11026D01*
X11411Y-10988D01*
X11411Y-10911D01*
X11430Y-10873D01*
X11450Y-10854D01*
X11488Y-10835D01*
X11507Y-10835D01*
X11545Y-10854D01*
X11564Y-10873D01*
X11583Y-10911D01*
X11583Y-10988D01*
X11602Y-11026D01*
X11621Y-11045D01*
X11659Y-11064D01*
X11735Y-11064D01*
X11773Y-11045D01*
X11792Y-11026D01*
X11811Y-10988D01*
X11811Y-10911D01*
X11792Y-10873D01*
X11773Y-10854D01*
X11735Y-10835D01*
X11659Y-10835D01*
X11621Y-10854D01*
X11602Y-10873D01*
X11583Y-10911D01*
X13250Y-11907D02*
X13230Y-11888D01*
X13211Y-11849D01*
X13211Y-11754D01*
X13230Y-11716D01*
X13250Y-11697D01*
X13288Y-11678D01*
X13326Y-11678D01*
X13383Y-11697D01*
X13611Y-11926D01*
X13611Y-11678D01*
X13250Y-11526D02*
X13230Y-11507D01*
X13211Y-11469D01*
X13211Y-11373D01*
X13230Y-11335D01*
X13250Y-11316D01*
X13288Y-11297D01*
X13326Y-11297D01*
X13383Y-11316D01*
X13611Y-11545D01*
X13611Y-11297D01*
X13345Y-11126D02*
X13745Y-11126D01*
X13364Y-11126D02*
X13345Y-11088D01*
X13345Y-11011D01*
X13364Y-10973D01*
X13383Y-10954D01*
X13421Y-10935D01*
X13535Y-10935D01*
X13573Y-10954D01*
X13592Y-10973D01*
X13611Y-11011D01*
X13611Y-11088D01*
X13592Y-11126D01*
X13402Y-10630D02*
X13402Y-10764D01*
X13611Y-10764D02*
X13211Y-10764D01*
X13211Y-10573D01*
G54D10*
X8734Y-11671D02*
X8715Y-11690D01*
X8659Y-11709D01*
X8621Y-11709D01*
X8565Y-11690D01*
X8528Y-11653D01*
X8509Y-11615D01*
X8490Y-11540D01*
X8490Y-11484D01*
X8509Y-11409D01*
X8528Y-11371D01*
X8565Y-11334D01*
X8621Y-11315D01*
X8659Y-11315D01*
X8715Y-11334D01*
X8734Y-11353D01*
X8865Y-11315D02*
X9128Y-11315D01*
X8959Y-11709D01*
G54D18*
X8913Y-12901D02*
X8770Y-12901D01*
X8841Y-12901D02*
X8841Y-12651D01*
X8817Y-12686D01*
X8794Y-12710D01*
X8770Y-12722D01*
X9067Y-12651D02*
X9091Y-12651D01*
X9115Y-12663D01*
X9127Y-12675D01*
X9139Y-12698D01*
X9151Y-12746D01*
X9151Y-12805D01*
X9139Y-12853D01*
X9127Y-12877D01*
X9115Y-12889D01*
X9091Y-12901D01*
X9067Y-12901D01*
X9044Y-12889D01*
X9032Y-12877D01*
X9020Y-12853D01*
X9008Y-12805D01*
X9008Y-12746D01*
X9020Y-12698D01*
X9032Y-12675D01*
X9044Y-12663D01*
X9067Y-12651D01*
X9305Y-12651D02*
X9329Y-12651D01*
X9353Y-12663D01*
X9365Y-12675D01*
X9377Y-12698D01*
X9389Y-12746D01*
X9389Y-12805D01*
X9377Y-12853D01*
X9365Y-12877D01*
X9353Y-12889D01*
X9329Y-12901D01*
X9305Y-12901D01*
X9282Y-12889D01*
X9270Y-12877D01*
X9258Y-12853D01*
X9246Y-12805D01*
X9246Y-12746D01*
X9258Y-12698D01*
X9270Y-12675D01*
X9282Y-12663D01*
X9305Y-12651D01*
X9496Y-12734D02*
X9496Y-12901D01*
X9496Y-12758D02*
X9508Y-12746D01*
X9532Y-12734D01*
X9567Y-12734D01*
X9591Y-12746D01*
X9603Y-12770D01*
X9603Y-12901D01*
X9805Y-12770D02*
X9722Y-12770D01*
X9722Y-12901D02*
X9722Y-12651D01*
X9841Y-12651D01*
G54D19*
X32204Y-40461D02*
X32204Y-40061D01*
X32357Y-40061D01*
X32395Y-40080D01*
X32414Y-40100D01*
X32433Y-40138D01*
X32433Y-40195D01*
X32414Y-40233D01*
X32395Y-40252D01*
X32357Y-40271D01*
X32204Y-40271D01*
X32585Y-40100D02*
X32604Y-40080D01*
X32642Y-40061D01*
X32738Y-40061D01*
X32776Y-40080D01*
X32795Y-40100D01*
X32814Y-40138D01*
X32814Y-40176D01*
X32795Y-40233D01*
X32566Y-40461D01*
X32814Y-40461D01*
G54D23*
G54D15*
X28888Y-43111D02*
X28888Y-43397D01*
X28869Y-43454D01*
X28830Y-43492D01*
X28773Y-43511D01*
X28735Y-43511D01*
X29211Y-43302D02*
X29269Y-43321D01*
X29288Y-43340D01*
X29307Y-43378D01*
X29307Y-43435D01*
X29288Y-43473D01*
X29269Y-43492D01*
X29230Y-43511D01*
X29078Y-43511D01*
X29078Y-43111D01*
X29211Y-43111D01*
X29250Y-43130D01*
X29269Y-43150D01*
X29288Y-43188D01*
X29288Y-43226D01*
X29269Y-43264D01*
X29250Y-43283D01*
X29211Y-43302D01*
X29078Y-43302D01*
X29688Y-43511D02*
X29459Y-43511D01*
X29573Y-43511D02*
X29573Y-43111D01*
X29535Y-43169D01*
X29497Y-43207D01*
X29459Y-43226D01*
X29859Y-43359D02*
X30164Y-43359D01*
X30335Y-43150D02*
X30354Y-43130D01*
X30392Y-43111D01*
X30488Y-43111D01*
X30526Y-43130D01*
X30545Y-43150D01*
X30564Y-43188D01*
X30564Y-43226D01*
X30545Y-43283D01*
X30316Y-43511D01*
X30564Y-43511D01*
X30697Y-43111D02*
X30945Y-43111D01*
X30811Y-43264D01*
X30869Y-43264D01*
X30907Y-43283D01*
X30926Y-43302D01*
X30945Y-43340D01*
X30945Y-43435D01*
X30926Y-43473D01*
X30907Y-43492D01*
X30869Y-43511D01*
X30754Y-43511D01*
X30716Y-43492D01*
X30697Y-43473D01*
G54D19*
X32254Y-43511D02*
X32254Y-43111D01*
X32407Y-43111D01*
X32445Y-43130D01*
X32464Y-43150D01*
X32483Y-43188D01*
X32483Y-43245D01*
X32464Y-43283D01*
X32445Y-43302D01*
X32407Y-43321D01*
X32254Y-43321D01*
X32616Y-43111D02*
X32864Y-43111D01*
X32730Y-43264D01*
X32788Y-43264D01*
X32826Y-43283D01*
X32845Y-43302D01*
X32864Y-43340D01*
X32864Y-43435D01*
X32845Y-43473D01*
X32826Y-43492D01*
X32788Y-43511D01*
X32673Y-43511D01*
X32635Y-43492D01*
X32616Y-43473D01*
G54D23*
G54D15*
X28666Y-40061D02*
X28666Y-40347D01*
X28647Y-40404D01*
X28609Y-40442D01*
X28552Y-40461D01*
X28514Y-40461D01*
X28838Y-40347D02*
X29028Y-40347D01*
X28800Y-40461D02*
X28933Y-40061D01*
X29066Y-40461D01*
X29409Y-40461D02*
X29180Y-40461D01*
X29295Y-40461D02*
X29295Y-40061D01*
X29257Y-40119D01*
X29219Y-40157D01*
X29180Y-40176D01*
X29580Y-40309D02*
X29885Y-40309D01*
X30057Y-40100D02*
X30076Y-40080D01*
X30114Y-40061D01*
X30209Y-40061D01*
X30247Y-40080D01*
X30266Y-40100D01*
X30285Y-40138D01*
X30285Y-40176D01*
X30266Y-40233D01*
X30038Y-40461D01*
X30285Y-40461D01*
X30419Y-40061D02*
X30666Y-40061D01*
X30533Y-40214D01*
X30590Y-40214D01*
X30628Y-40233D01*
X30647Y-40252D01*
X30666Y-40290D01*
X30666Y-40385D01*
X30647Y-40423D01*
X30628Y-40442D01*
X30590Y-40461D01*
X30476Y-40461D01*
X30438Y-40442D01*
X30419Y-40423D01*
G54D20*
X16057Y-2042D02*
X16057Y-1442D01*
X16285Y-1442D01*
X16342Y-1471D01*
X16371Y-1500D01*
X16400Y-1557D01*
X16400Y-1642D01*
X16371Y-1700D01*
X16342Y-1728D01*
X16285Y-1757D01*
X16057Y-1757D01*
X16914Y-1642D02*
X16914Y-2042D01*
X16771Y-1414D02*
X16628Y-1842D01*
X17000Y-1842D01*
X15471Y-3942D02*
X15471Y-3342D01*
X15614Y-3342D01*
X15700Y-3371D01*
X15757Y-3428D01*
X15785Y-3485D01*
X15814Y-3600D01*
X15814Y-3685D01*
X15785Y-3800D01*
X15757Y-3857D01*
X15700Y-3914D01*
X15614Y-3942D01*
X15471Y-3942D01*
X16071Y-3942D02*
X16071Y-3342D01*
X16357Y-3942D02*
X16357Y-3342D01*
X16700Y-3942D01*
X16700Y-3342D01*
X16842Y-4000D02*
X17300Y-4000D01*
X17700Y-3342D02*
X17585Y-3342D01*
X17528Y-3371D01*
X17500Y-3400D01*
X17442Y-3485D01*
X17414Y-3600D01*
X17414Y-3828D01*
X17442Y-3885D01*
X17471Y-3914D01*
X17528Y-3942D01*
X17642Y-3942D01*
X17700Y-3914D01*
X17728Y-3885D01*
X17757Y-3828D01*
X17757Y-3685D01*
X17728Y-3628D01*
X17700Y-3600D01*
X17642Y-3571D01*
X17528Y-3571D01*
X17471Y-3600D01*
X17442Y-3628D01*
X17414Y-3685D01*
G54D15*
X19011Y-15495D02*
X18611Y-15495D01*
X18611Y-15342D01*
X18630Y-15304D01*
X18650Y-15285D01*
X18688Y-15266D01*
X18745Y-15266D01*
X18783Y-15285D01*
X18802Y-15304D01*
X18821Y-15342D01*
X18821Y-15495D01*
X19011Y-15076D02*
X19011Y-14999D01*
X18992Y-14961D01*
X18973Y-14942D01*
X18916Y-14904D01*
X18840Y-14885D01*
X18688Y-14885D01*
X18650Y-14904D01*
X18630Y-14923D01*
X18611Y-14961D01*
X18611Y-15038D01*
X18630Y-15076D01*
X18650Y-15095D01*
X18688Y-15114D01*
X18783Y-15114D01*
X18821Y-15095D01*
X18840Y-15076D01*
X18859Y-15038D01*
X18859Y-14961D01*
X18840Y-14923D01*
X18821Y-14904D01*
X18783Y-14885D01*
G54D11*
X17468Y-14202D02*
X17806Y-14202D01*
X17873Y-14230D01*
X17918Y-14287D01*
X17941Y-14371D01*
X17941Y-14427D01*
X17468Y-13809D02*
X17468Y-13696D01*
X17491Y-13640D01*
X17536Y-13584D01*
X17626Y-13556D01*
X17783Y-13556D01*
X17873Y-13584D01*
X17918Y-13640D01*
X17941Y-13696D01*
X17941Y-13809D01*
X17918Y-13865D01*
X17873Y-13921D01*
X17783Y-13949D01*
X17626Y-13949D01*
X17536Y-13921D01*
X17491Y-13865D01*
X17468Y-13809D01*
X17716Y-13190D02*
X17941Y-13190D01*
X17468Y-13387D02*
X17716Y-13190D01*
X17468Y-12993D01*
X17918Y-12824D02*
X17941Y-12740D01*
X17941Y-12599D01*
X17918Y-12543D01*
X17896Y-12515D01*
X17851Y-12487D01*
X17806Y-12487D01*
X17761Y-12515D01*
X17738Y-12543D01*
X17716Y-12599D01*
X17693Y-12712D01*
X17671Y-12768D01*
X17648Y-12796D01*
X17603Y-12824D01*
X17558Y-12824D01*
X17513Y-12796D01*
X17491Y-12768D01*
X17468Y-12712D01*
X17468Y-12571D01*
X17491Y-12487D01*
X17468Y-12318D02*
X17468Y-11981D01*
X17941Y-12149D02*
X17468Y-12149D01*
X17941Y-11784D02*
X17468Y-11784D01*
X17896Y-11165D02*
X17918Y-11193D01*
X17941Y-11278D01*
X17941Y-11334D01*
X17918Y-11418D01*
X17873Y-11475D01*
X17828Y-11503D01*
X17738Y-11531D01*
X17671Y-11531D01*
X17581Y-11503D01*
X17536Y-11475D01*
X17491Y-11418D01*
X17468Y-11334D01*
X17468Y-11278D01*
X17491Y-11193D01*
X17513Y-11165D01*
X17941Y-10912D02*
X17468Y-10912D01*
X17941Y-10575D02*
X17671Y-10828D01*
X17468Y-10575D02*
X17738Y-10912D01*
X17986Y-10462D02*
X17986Y-10012D01*
X17468Y-9928D02*
X17468Y-9534D01*
X17941Y-9928D01*
X17941Y-9534D01*
X17468Y-9365D02*
X17941Y-8972D01*
X17468Y-8972D02*
X17941Y-9365D01*
G54D21*
X60661Y-52745D02*
X60261Y-52745D01*
X60661Y-52516D02*
X60433Y-52688D01*
X60261Y-52516D02*
X60490Y-52745D01*
X60661Y-52135D02*
X60661Y-52364D01*
X60661Y-52249D02*
X60261Y-52249D01*
X60319Y-52288D01*
X60357Y-52326D01*
X60376Y-52364D01*
G54D12*
X59148Y-52196D02*
X59739Y-51999D01*
X59148Y-51802D01*
X59739Y-51606D02*
X59148Y-51606D01*
X59739Y-51324D02*
X59148Y-51324D01*
X59148Y-51184D01*
X59176Y-51099D01*
X59232Y-51043D01*
X59289Y-51015D01*
X59401Y-50987D01*
X59485Y-50987D01*
X59598Y-51015D01*
X59654Y-51043D01*
X59710Y-51099D01*
X59739Y-51184D01*
X59739Y-51324D01*
X59429Y-50734D02*
X59429Y-50537D01*
X59739Y-50453D02*
X59739Y-50734D01*
X59148Y-50734D01*
X59148Y-50453D01*
X59148Y-50087D02*
X59148Y-49975D01*
X59176Y-49918D01*
X59232Y-49862D01*
X59345Y-49834D01*
X59542Y-49834D01*
X59654Y-49862D01*
X59710Y-49918D01*
X59739Y-49975D01*
X59739Y-50087D01*
X59710Y-50143D01*
X59654Y-50199D01*
X59542Y-50228D01*
X59345Y-50228D01*
X59232Y-50199D01*
X59176Y-50143D01*
X59148Y-50087D01*
X59795Y-49721D02*
X59795Y-49271D01*
X59148Y-49187D02*
X59148Y-48793D01*
X59739Y-49187D01*
X59739Y-48793D01*
X59148Y-48625D02*
X59739Y-48231D01*
X59148Y-48231D02*
X59739Y-48625D01*
G54D15*
X2492Y-21373D02*
X2473Y-21392D01*
X2416Y-21411D01*
X2378Y-21411D01*
X2321Y-21392D01*
X2283Y-21354D01*
X2264Y-21316D01*
X2245Y-21240D01*
X2245Y-21183D01*
X2264Y-21107D01*
X2283Y-21069D01*
X2321Y-21030D01*
X2378Y-21011D01*
X2416Y-21011D01*
X2473Y-21030D01*
X2492Y-21050D01*
X2873Y-21411D02*
X2645Y-21411D01*
X2759Y-21411D02*
X2759Y-21011D01*
X2721Y-21069D01*
X2683Y-21107D01*
X2645Y-21126D01*
X3064Y-21411D02*
X3140Y-21411D01*
X3178Y-21392D01*
X3197Y-21373D01*
X3235Y-21316D01*
X3254Y-21240D01*
X3254Y-21088D01*
X3235Y-21050D01*
X3216Y-21030D01*
X3178Y-21011D01*
X3102Y-21011D01*
X3064Y-21030D01*
X3045Y-21050D01*
X3026Y-21088D01*
X3026Y-21183D01*
X3045Y-21221D01*
X3064Y-21240D01*
X3102Y-21259D01*
X3178Y-21259D01*
X3216Y-21240D01*
X3235Y-21221D01*
X3254Y-21183D01*
X76872Y-5847D02*
X76610Y-6014D01*
X76872Y-6133D02*
X76322Y-6133D01*
X76322Y-5942D01*
X76348Y-5895D01*
X76375Y-5871D01*
X76427Y-5847D01*
X76505Y-5847D01*
X76558Y-5871D01*
X76584Y-5895D01*
X76610Y-5942D01*
X76610Y-6133D01*
X76322Y-5704D02*
X76872Y-5538D01*
X76322Y-5371D01*
X76872Y-4942D02*
X76872Y-5228D01*
X76872Y-5085D02*
X76322Y-5085D01*
X76401Y-5133D01*
X76453Y-5180D01*
X76479Y-5228D01*
X79322Y-6707D02*
X79322Y-6945D01*
X79584Y-6969D01*
X79558Y-6945D01*
X79532Y-6897D01*
X79532Y-6778D01*
X79558Y-6730D01*
X79584Y-6707D01*
X79636Y-6683D01*
X79767Y-6683D01*
X79820Y-6707D01*
X79846Y-6730D01*
X79872Y-6778D01*
X79872Y-6897D01*
X79846Y-6945D01*
X79820Y-6969D01*
X79322Y-6373D02*
X79322Y-6326D01*
X79348Y-6278D01*
X79375Y-6254D01*
X79427Y-6230D01*
X79532Y-6207D01*
X79663Y-6207D01*
X79767Y-6230D01*
X79820Y-6254D01*
X79846Y-6278D01*
X79872Y-6326D01*
X79872Y-6373D01*
X79846Y-6421D01*
X79820Y-6445D01*
X79767Y-6469D01*
X79663Y-6492D01*
X79532Y-6492D01*
X79427Y-6469D01*
X79375Y-6445D01*
X79348Y-6421D01*
X79322Y-6373D01*
X79322Y-5897D02*
X79322Y-5850D01*
X79348Y-5802D01*
X79375Y-5778D01*
X79427Y-5754D01*
X79532Y-5730D01*
X79663Y-5730D01*
X79767Y-5754D01*
X79820Y-5778D01*
X79846Y-5802D01*
X79872Y-5850D01*
X79872Y-5897D01*
X79846Y-5945D01*
X79820Y-5969D01*
X79767Y-5992D01*
X79663Y-6016D01*
X79532Y-6016D01*
X79427Y-5992D01*
X79375Y-5969D01*
X79348Y-5945D01*
X79322Y-5897D01*
G54D24*
X6907Y-15592D02*
X6907Y-16078D01*
X6928Y-16135D01*
X6950Y-16164D01*
X6992Y-16192D01*
X7078Y-16192D01*
X7121Y-16164D01*
X7142Y-16135D01*
X7164Y-16078D01*
X7164Y-15592D01*
X7400Y-16192D02*
X7485Y-16192D01*
X7528Y-16164D01*
X7550Y-16135D01*
X7592Y-16050D01*
X7614Y-15935D01*
X7614Y-15707D01*
X7592Y-15650D01*
X7571Y-15621D01*
X7528Y-15592D01*
X7442Y-15592D01*
X7400Y-15621D01*
X7378Y-15650D01*
X7357Y-15707D01*
X7357Y-15850D01*
X7378Y-15907D01*
X7400Y-15935D01*
X7442Y-15964D01*
X7528Y-15964D01*
X7571Y-15935D01*
X7592Y-15907D01*
X7614Y-15850D01*
G54D20*
G54D24*
X9050Y-17192D02*
X9050Y-16592D01*
X9200Y-17021D01*
X9350Y-16592D01*
X9350Y-17192D01*
X9542Y-17021D02*
X9757Y-17021D01*
X9500Y-17192D02*
X9650Y-16592D01*
X9800Y-17192D01*
X9907Y-16592D02*
X10207Y-17192D01*
X10207Y-16592D02*
X9907Y-17192D01*
X10357Y-16650D02*
X10378Y-16621D01*
X10421Y-16592D01*
X10528Y-16592D01*
X10571Y-16621D01*
X10592Y-16650D01*
X10614Y-16707D01*
X10614Y-16764D01*
X10592Y-16850D01*
X10335Y-17192D01*
X10614Y-17192D01*
X10764Y-16592D02*
X11042Y-16592D01*
X10892Y-16821D01*
X10957Y-16821D01*
X11000Y-16850D01*
X11021Y-16878D01*
X11042Y-16935D01*
X11042Y-17078D01*
X11021Y-17135D01*
X11000Y-17164D01*
X10957Y-17192D01*
X10828Y-17192D01*
X10785Y-17164D01*
X10764Y-17135D01*
X11214Y-16650D02*
X11235Y-16621D01*
X11278Y-16592D01*
X11385Y-16592D01*
X11428Y-16621D01*
X11450Y-16650D01*
X11471Y-16707D01*
X11471Y-16764D01*
X11450Y-16850D01*
X11192Y-17192D01*
X11471Y-17192D01*
G54D20*
G54D18*
X6461Y-10792D02*
X6785Y-10792D01*
X6823Y-10771D01*
X6842Y-10750D01*
X6861Y-10707D01*
X6861Y-10621D01*
X6842Y-10578D01*
X6823Y-10557D01*
X6785Y-10535D01*
X6461Y-10535D01*
X6633Y-10257D02*
X6614Y-10300D01*
X6595Y-10321D01*
X6557Y-10342D01*
X6538Y-10342D01*
X6500Y-10321D01*
X6480Y-10300D01*
X6461Y-10257D01*
X6461Y-10171D01*
X6480Y-10128D01*
X6500Y-10107D01*
X6538Y-10085D01*
X6557Y-10085D01*
X6595Y-10107D01*
X6614Y-10128D01*
X6633Y-10171D01*
X6633Y-10257D01*
X6652Y-10300D01*
X6671Y-10321D01*
X6709Y-10342D01*
X6785Y-10342D01*
X6823Y-10321D01*
X6842Y-10300D01*
X6861Y-10257D01*
X6861Y-10171D01*
X6842Y-10128D01*
X6823Y-10107D01*
X6785Y-10085D01*
X6709Y-10085D01*
X6671Y-10107D01*
X6652Y-10128D01*
X6633Y-10171D01*
X7423Y-11414D02*
X7442Y-11435D01*
X7461Y-11500D01*
X7461Y-11542D01*
X7442Y-11607D01*
X7404Y-11650D01*
X7366Y-11671D01*
X7290Y-11692D01*
X7233Y-11692D01*
X7157Y-11671D01*
X7119Y-11650D01*
X7080Y-11607D01*
X7061Y-11542D01*
X7061Y-11500D01*
X7080Y-11435D01*
X7100Y-11414D01*
X7461Y-11221D02*
X7061Y-11221D01*
X7252Y-11221D02*
X7252Y-10964D01*
X7461Y-10964D02*
X7061Y-10964D01*
X7061Y-10792D02*
X7061Y-10514D01*
X7214Y-10664D01*
X7214Y-10599D01*
X7233Y-10557D01*
X7252Y-10535D01*
X7290Y-10514D01*
X7385Y-10514D01*
X7423Y-10535D01*
X7442Y-10557D01*
X7461Y-10599D01*
X7461Y-10728D01*
X7442Y-10771D01*
X7423Y-10792D01*
X7195Y-10128D02*
X7461Y-10128D01*
X7042Y-10235D02*
X7328Y-10342D01*
X7328Y-10064D01*
X7061Y-9807D02*
X7061Y-9764D01*
X7080Y-9721D01*
X7100Y-9700D01*
X7138Y-9678D01*
X7214Y-9657D01*
X7309Y-9657D01*
X7385Y-9678D01*
X7423Y-9700D01*
X7442Y-9721D01*
X7461Y-9764D01*
X7461Y-9807D01*
X7442Y-9850D01*
X7423Y-9871D01*
X7385Y-9892D01*
X7309Y-9914D01*
X7214Y-9914D01*
X7138Y-9892D01*
X7100Y-9871D01*
X7080Y-9850D01*
X7061Y-9807D01*
X7080Y-9228D02*
X7061Y-9271D01*
X7061Y-9335D01*
X7080Y-9400D01*
X7119Y-9442D01*
X7157Y-9464D01*
X7233Y-9485D01*
X7290Y-9485D01*
X7366Y-9464D01*
X7404Y-9442D01*
X7442Y-9400D01*
X7461Y-9335D01*
X7461Y-9292D01*
X7442Y-9228D01*
X7423Y-9207D01*
X7290Y-9207D01*
X7290Y-9292D01*
G54D25*
X1796Y-14821D02*
X1778Y-14840D01*
X1721Y-14859D01*
X1684Y-14859D01*
X1628Y-14840D01*
X1590Y-14803D01*
X1571Y-14765D01*
X1553Y-14690D01*
X1553Y-14634D01*
X1571Y-14559D01*
X1590Y-14521D01*
X1628Y-14484D01*
X1684Y-14465D01*
X1721Y-14465D01*
X1778Y-14484D01*
X1796Y-14503D01*
X2171Y-14859D02*
X1946Y-14859D01*
X2059Y-14859D02*
X2059Y-14465D01*
X2021Y-14521D01*
X1984Y-14559D01*
X1946Y-14578D01*
X2415Y-14465D02*
X2453Y-14465D01*
X2490Y-14484D01*
X2509Y-14503D01*
X2528Y-14540D01*
X2546Y-14615D01*
X2546Y-14709D01*
X2528Y-14784D01*
X2509Y-14821D01*
X2490Y-14840D01*
X2453Y-14859D01*
X2415Y-14859D01*
X2378Y-14840D01*
X2359Y-14821D01*
X2340Y-14784D01*
X2321Y-14709D01*
X2321Y-14615D01*
X2340Y-14540D01*
X2359Y-14503D01*
X2378Y-14484D01*
X2415Y-14465D01*
G54D12*
X1733Y-16411D02*
X1504Y-16411D01*
X1619Y-16411D02*
X1619Y-16011D01*
X1580Y-16069D01*
X1542Y-16107D01*
X1504Y-16126D01*
X1904Y-16145D02*
X1904Y-16545D01*
X2095Y-16354D02*
X2114Y-16392D01*
X2152Y-16411D01*
X1904Y-16354D02*
X1923Y-16392D01*
X1961Y-16411D01*
X2038Y-16411D01*
X2076Y-16392D01*
X2095Y-16354D01*
X2095Y-16145D01*
X2457Y-16202D02*
X2323Y-16202D01*
X2323Y-16411D02*
X2323Y-16011D01*
X2514Y-16011D01*
G54D26*
X985Y-15457D02*
X1214Y-15457D01*
X1100Y-15571D02*
X1100Y-15342D01*
G54D15*
G54D25*
X8546Y-19121D02*
X8528Y-19140D01*
X8471Y-19159D01*
X8434Y-19159D01*
X8378Y-19140D01*
X8340Y-19103D01*
X8321Y-19065D01*
X8303Y-18990D01*
X8303Y-18934D01*
X8321Y-18859D01*
X8340Y-18821D01*
X8378Y-18784D01*
X8434Y-18765D01*
X8471Y-18765D01*
X8528Y-18784D01*
X8546Y-18803D01*
X8921Y-19159D02*
X8696Y-19159D01*
X8809Y-19159D02*
X8809Y-18765D01*
X8771Y-18821D01*
X8734Y-18859D01*
X8696Y-18878D01*
X9296Y-19159D02*
X9071Y-19159D01*
X9184Y-19159D02*
X9184Y-18765D01*
X9146Y-18821D01*
X9109Y-18859D01*
X9071Y-18878D01*
G54D12*
X8483Y-20661D02*
X8254Y-20661D01*
X8369Y-20661D02*
X8369Y-20261D01*
X8330Y-20319D01*
X8292Y-20357D01*
X8254Y-20376D01*
X8654Y-20395D02*
X8654Y-20795D01*
X8845Y-20604D02*
X8864Y-20642D01*
X8902Y-20661D01*
X8654Y-20604D02*
X8673Y-20642D01*
X8711Y-20661D01*
X8788Y-20661D01*
X8826Y-20642D01*
X8845Y-20604D01*
X8845Y-20395D01*
X9207Y-20452D02*
X9073Y-20452D01*
X9073Y-20661D02*
X9073Y-20261D01*
X9264Y-20261D01*
G54D26*
X7735Y-19707D02*
X7964Y-19707D01*
X7850Y-19821D02*
X7850Y-19592D01*
G54D15*
G54D25*
X1746Y-17121D02*
X1728Y-17140D01*
X1671Y-17159D01*
X1634Y-17159D01*
X1578Y-17140D01*
X1540Y-17103D01*
X1521Y-17065D01*
X1503Y-16990D01*
X1503Y-16934D01*
X1521Y-16859D01*
X1540Y-16821D01*
X1578Y-16784D01*
X1634Y-16765D01*
X1671Y-16765D01*
X1728Y-16784D01*
X1746Y-16803D01*
X2121Y-17159D02*
X1896Y-17159D01*
X2009Y-17159D02*
X2009Y-16765D01*
X1971Y-16821D01*
X1934Y-16859D01*
X1896Y-16878D01*
X2271Y-16803D02*
X2290Y-16784D01*
X2328Y-16765D01*
X2421Y-16765D01*
X2459Y-16784D01*
X2478Y-16803D01*
X2496Y-16840D01*
X2496Y-16878D01*
X2478Y-16934D01*
X2253Y-17159D01*
X2496Y-17159D01*
G54D12*
X1783Y-18661D02*
X1554Y-18661D01*
X1669Y-18661D02*
X1669Y-18261D01*
X1630Y-18319D01*
X1592Y-18357D01*
X1554Y-18376D01*
X1954Y-18395D02*
X1954Y-18795D01*
X2145Y-18604D02*
X2164Y-18642D01*
X2202Y-18661D01*
X1954Y-18604D02*
X1973Y-18642D01*
X2011Y-18661D01*
X2088Y-18661D01*
X2126Y-18642D01*
X2145Y-18604D01*
X2145Y-18395D01*
X2507Y-18452D02*
X2373Y-18452D01*
X2373Y-18661D02*
X2373Y-18261D01*
X2564Y-18261D01*
G54D26*
X985Y-17707D02*
X1214Y-17707D01*
X1100Y-17821D02*
X1100Y-17592D01*
G54D15*
G54D25*
X18171Y-17253D02*
X18190Y-17271D01*
X18209Y-17328D01*
X18209Y-17365D01*
X18190Y-17421D01*
X18153Y-17459D01*
X18115Y-17478D01*
X18040Y-17496D01*
X17984Y-17496D01*
X17909Y-17478D01*
X17871Y-17459D01*
X17834Y-17421D01*
X17815Y-17365D01*
X17815Y-17328D01*
X17834Y-17271D01*
X17853Y-17253D01*
X18209Y-16878D02*
X18209Y-17103D01*
X18209Y-16990D02*
X17815Y-16990D01*
X17871Y-17028D01*
X17909Y-17065D01*
X17928Y-17103D01*
X17815Y-16746D02*
X17815Y-16503D01*
X17965Y-16634D01*
X17965Y-16578D01*
X17984Y-16540D01*
X18003Y-16521D01*
X18040Y-16503D01*
X18134Y-16503D01*
X18171Y-16521D01*
X18190Y-16540D01*
X18209Y-16578D01*
X18209Y-16690D01*
X18190Y-16728D01*
X18171Y-16746D01*
G54D12*
X16661Y-17216D02*
X16661Y-17445D01*
X16661Y-17330D02*
X16261Y-17330D01*
X16319Y-17369D01*
X16357Y-17407D01*
X16376Y-17445D01*
X16395Y-17045D02*
X16795Y-17045D01*
X16604Y-16854D02*
X16642Y-16835D01*
X16661Y-16797D01*
X16604Y-17045D02*
X16642Y-17026D01*
X16661Y-16988D01*
X16661Y-16911D01*
X16642Y-16873D01*
X16604Y-16854D01*
X16395Y-16854D01*
X16452Y-16492D02*
X16452Y-16626D01*
X16661Y-16626D02*
X16261Y-16626D01*
X16261Y-16435D01*
G54D26*
X17257Y-16164D02*
X17257Y-15935D01*
X17371Y-16050D02*
X17142Y-16050D01*
G54D15*
G54D19*
X43004Y-51711D02*
X43004Y-51311D01*
X43157Y-51311D01*
X43195Y-51330D01*
X43214Y-51350D01*
X43233Y-51388D01*
X43233Y-51445D01*
X43214Y-51483D01*
X43195Y-51502D01*
X43157Y-51521D01*
X43004Y-51521D01*
X43366Y-51311D02*
X43633Y-51311D01*
X43461Y-51711D01*
G54D23*
G54D15*
X30552Y-52673D02*
X30533Y-52692D01*
X30476Y-52711D01*
X30438Y-52711D01*
X30380Y-52692D01*
X30342Y-52654D01*
X30323Y-52616D01*
X30304Y-52540D01*
X30304Y-52483D01*
X30323Y-52407D01*
X30342Y-52369D01*
X30380Y-52330D01*
X30438Y-52311D01*
X30476Y-52311D01*
X30533Y-52330D01*
X30552Y-52350D01*
X30780Y-52711D02*
X30742Y-52692D01*
X30723Y-52654D01*
X30723Y-52311D01*
X31104Y-52711D02*
X31104Y-52502D01*
X31085Y-52464D01*
X31047Y-52445D01*
X30971Y-52445D01*
X30933Y-52464D01*
X31104Y-52692D02*
X31066Y-52711D01*
X30971Y-52711D01*
X30933Y-52692D01*
X30914Y-52654D01*
X30914Y-52616D01*
X30933Y-52578D01*
X30971Y-52559D01*
X31066Y-52559D01*
X31104Y-52540D01*
X31257Y-52445D02*
X31352Y-52711D01*
X31447Y-52445D01*
X31600Y-52711D02*
X31600Y-52445D01*
X31600Y-52311D02*
X31580Y-52330D01*
X31600Y-52350D01*
X31619Y-52330D01*
X31600Y-52311D01*
X31600Y-52350D01*
X31942Y-52692D02*
X31904Y-52711D01*
X31828Y-52711D01*
X31790Y-52692D01*
X31771Y-52654D01*
X31771Y-52502D01*
X31790Y-52464D01*
X31828Y-52445D01*
X31904Y-52445D01*
X31942Y-52464D01*
X31961Y-52502D01*
X31961Y-52540D01*
X31771Y-52578D01*
X32133Y-52711D02*
X32133Y-52445D01*
X32133Y-52521D02*
X32152Y-52483D01*
X32171Y-52464D01*
X32209Y-52445D01*
X32247Y-52445D01*
X32685Y-52711D02*
X32685Y-52311D01*
X32819Y-52597D01*
X32952Y-52311D01*
X32952Y-52711D01*
X33142Y-52711D02*
X33142Y-52445D01*
X33142Y-52311D02*
X33123Y-52330D01*
X33142Y-52350D01*
X33161Y-52330D01*
X33142Y-52311D01*
X33142Y-52350D01*
X33333Y-52445D02*
X33333Y-52711D01*
X33333Y-52483D02*
X33352Y-52464D01*
X33390Y-52445D01*
X33447Y-52445D01*
X33485Y-52464D01*
X33504Y-52502D01*
X33504Y-52711D01*
X33695Y-52711D02*
X33695Y-52445D01*
X33695Y-52311D02*
X33676Y-52330D01*
X33695Y-52350D01*
X33714Y-52330D01*
X33695Y-52311D01*
X33695Y-52350D01*
X33828Y-52445D02*
X33980Y-52445D01*
X33885Y-52311D02*
X33885Y-52654D01*
X33904Y-52692D01*
X33942Y-52711D01*
X33980Y-52711D01*
X34266Y-52692D02*
X34228Y-52711D01*
X34152Y-52711D01*
X34114Y-52692D01*
X34095Y-52654D01*
X34095Y-52502D01*
X34114Y-52464D01*
X34152Y-52445D01*
X34228Y-52445D01*
X34266Y-52464D01*
X34285Y-52502D01*
X34285Y-52540D01*
X34095Y-52578D01*
X34514Y-52711D02*
X34476Y-52692D01*
X34457Y-52654D01*
X34457Y-52311D01*
X5627Y-34475D02*
X5483Y-34269D01*
X5380Y-34475D02*
X5380Y-34042D01*
X5545Y-34042D01*
X5586Y-34062D01*
X5607Y-34083D01*
X5627Y-34124D01*
X5627Y-34186D01*
X5607Y-34227D01*
X5586Y-34248D01*
X5545Y-34269D01*
X5380Y-34269D01*
X5999Y-34042D02*
X5916Y-34042D01*
X5875Y-34062D01*
X5854Y-34083D01*
X5813Y-34145D01*
X5792Y-34227D01*
X5792Y-34392D01*
X5813Y-34434D01*
X5834Y-34454D01*
X5875Y-34475D01*
X5957Y-34475D01*
X5999Y-34454D01*
X6019Y-34434D01*
X6040Y-34392D01*
X6040Y-34289D01*
X6019Y-34248D01*
X5999Y-34227D01*
X5957Y-34207D01*
X5875Y-34207D01*
X5834Y-34227D01*
X5813Y-34248D01*
X5792Y-34289D01*
X5416Y-35972D02*
X5130Y-35972D01*
X5273Y-35972D02*
X5273Y-35422D01*
X5226Y-35501D01*
X5178Y-35553D01*
X5130Y-35579D01*
X5607Y-35475D02*
X5630Y-35448D01*
X5678Y-35422D01*
X5797Y-35422D01*
X5845Y-35448D01*
X5869Y-35475D01*
X5892Y-35527D01*
X5892Y-35579D01*
X5869Y-35658D01*
X5583Y-35972D01*
X5892Y-35972D01*
X6202Y-35422D02*
X6250Y-35422D01*
X6297Y-35448D01*
X6321Y-35475D01*
X6345Y-35527D01*
X6369Y-35632D01*
X6369Y-35763D01*
X6345Y-35867D01*
X6321Y-35920D01*
X6297Y-35946D01*
X6250Y-35972D01*
X6202Y-35972D01*
X6154Y-35946D01*
X6130Y-35920D01*
X6107Y-35867D01*
X6083Y-35763D01*
X6083Y-35632D01*
X6107Y-35527D01*
X6130Y-35475D01*
X6154Y-35448D01*
X6202Y-35422D01*
X7627Y-34475D02*
X7483Y-34269D01*
X7380Y-34475D02*
X7380Y-34042D01*
X7545Y-34042D01*
X7586Y-34062D01*
X7607Y-34083D01*
X7627Y-34124D01*
X7627Y-34186D01*
X7607Y-34227D01*
X7586Y-34248D01*
X7545Y-34269D01*
X7380Y-34269D01*
X7772Y-34042D02*
X8060Y-34042D01*
X7875Y-34475D01*
X7366Y-35922D02*
X7080Y-35922D01*
X7223Y-35922D02*
X7223Y-35372D01*
X7176Y-35451D01*
X7128Y-35503D01*
X7080Y-35529D01*
X7557Y-35425D02*
X7580Y-35398D01*
X7628Y-35372D01*
X7747Y-35372D01*
X7795Y-35398D01*
X7819Y-35425D01*
X7842Y-35477D01*
X7842Y-35529D01*
X7819Y-35608D01*
X7533Y-35922D01*
X7842Y-35922D01*
X8152Y-35372D02*
X8200Y-35372D01*
X8247Y-35398D01*
X8271Y-35425D01*
X8295Y-35477D01*
X8319Y-35582D01*
X8319Y-35713D01*
X8295Y-35817D01*
X8271Y-35870D01*
X8247Y-35896D01*
X8200Y-35922D01*
X8152Y-35922D01*
X8104Y-35896D01*
X8080Y-35870D01*
X8057Y-35817D01*
X8033Y-35713D01*
X8033Y-35582D01*
X8057Y-35477D01*
X8080Y-35425D01*
X8104Y-35398D01*
X8152Y-35372D01*
X9627Y-34475D02*
X9483Y-34269D01*
X9380Y-34475D02*
X9380Y-34042D01*
X9545Y-34042D01*
X9586Y-34062D01*
X9607Y-34083D01*
X9627Y-34124D01*
X9627Y-34186D01*
X9607Y-34227D01*
X9586Y-34248D01*
X9545Y-34269D01*
X9380Y-34269D01*
X9875Y-34227D02*
X9834Y-34207D01*
X9813Y-34186D01*
X9792Y-34145D01*
X9792Y-34124D01*
X9813Y-34083D01*
X9834Y-34062D01*
X9875Y-34042D01*
X9957Y-34042D01*
X9999Y-34062D01*
X10019Y-34083D01*
X10040Y-34124D01*
X10040Y-34145D01*
X10019Y-34186D01*
X9999Y-34207D01*
X9957Y-34227D01*
X9875Y-34227D01*
X9834Y-34248D01*
X9813Y-34269D01*
X9792Y-34310D01*
X9792Y-34392D01*
X9813Y-34434D01*
X9834Y-34454D01*
X9875Y-34475D01*
X9957Y-34475D01*
X9999Y-34454D01*
X10019Y-34434D01*
X10040Y-34392D01*
X10040Y-34310D01*
X10019Y-34269D01*
X9999Y-34248D01*
X9957Y-34227D01*
X9416Y-35972D02*
X9130Y-35972D01*
X9273Y-35972D02*
X9273Y-35422D01*
X9226Y-35501D01*
X9178Y-35553D01*
X9130Y-35579D01*
X9607Y-35475D02*
X9630Y-35448D01*
X9678Y-35422D01*
X9797Y-35422D01*
X9845Y-35448D01*
X9869Y-35475D01*
X9892Y-35527D01*
X9892Y-35579D01*
X9869Y-35658D01*
X9583Y-35972D01*
X9892Y-35972D01*
X10202Y-35422D02*
X10250Y-35422D01*
X10297Y-35448D01*
X10321Y-35475D01*
X10345Y-35527D01*
X10369Y-35632D01*
X10369Y-35763D01*
X10345Y-35867D01*
X10321Y-35920D01*
X10297Y-35946D01*
X10250Y-35972D01*
X10202Y-35972D01*
X10154Y-35946D01*
X10130Y-35920D01*
X10107Y-35867D01*
X10083Y-35763D01*
X10083Y-35632D01*
X10107Y-35527D01*
X10130Y-35475D01*
X10154Y-35448D01*
X10202Y-35422D01*
X9975Y-33522D02*
X9769Y-33666D01*
X9975Y-33769D02*
X9542Y-33769D01*
X9542Y-33604D01*
X9562Y-33563D01*
X9583Y-33542D01*
X9624Y-33522D01*
X9686Y-33522D01*
X9727Y-33542D01*
X9748Y-33563D01*
X9769Y-33604D01*
X9769Y-33769D01*
X9975Y-33315D02*
X9975Y-33233D01*
X9954Y-33192D01*
X9934Y-33171D01*
X9872Y-33130D01*
X9789Y-33109D01*
X9624Y-33109D01*
X9583Y-33130D01*
X9562Y-33150D01*
X9542Y-33192D01*
X9542Y-33274D01*
X9562Y-33315D01*
X9583Y-33336D01*
X9624Y-33357D01*
X9727Y-33357D01*
X9769Y-33336D01*
X9789Y-33315D01*
X9810Y-33274D01*
X9810Y-33192D01*
X9789Y-33150D01*
X9769Y-33130D01*
X9727Y-33109D01*
X11972Y-33983D02*
X11972Y-34269D01*
X11972Y-34126D02*
X11422Y-34126D01*
X11501Y-34173D01*
X11553Y-34221D01*
X11579Y-34269D01*
X11475Y-33792D02*
X11448Y-33769D01*
X11422Y-33721D01*
X11422Y-33602D01*
X11448Y-33554D01*
X11475Y-33530D01*
X11527Y-33507D01*
X11579Y-33507D01*
X11658Y-33530D01*
X11972Y-33816D01*
X11972Y-33507D01*
X11422Y-33197D02*
X11422Y-33150D01*
X11448Y-33102D01*
X11475Y-33078D01*
X11527Y-33054D01*
X11632Y-33030D01*
X11763Y-33030D01*
X11867Y-33054D01*
X11920Y-33078D01*
X11946Y-33102D01*
X11972Y-33150D01*
X11972Y-33197D01*
X11946Y-33245D01*
X11920Y-33269D01*
X11867Y-33292D01*
X11763Y-33316D01*
X11632Y-33316D01*
X11527Y-33292D01*
X11475Y-33269D01*
X11448Y-33245D01*
X11422Y-33197D01*
G54D24*
X1942Y-31342D02*
X1942Y-31828D01*
X1964Y-31885D01*
X1985Y-31914D01*
X2028Y-31942D01*
X2114Y-31942D01*
X2157Y-31914D01*
X2178Y-31885D01*
X2200Y-31828D01*
X2200Y-31342D01*
X2650Y-31942D02*
X2392Y-31942D01*
X2521Y-31942D02*
X2521Y-31342D01*
X2478Y-31428D01*
X2435Y-31485D01*
X2392Y-31514D01*
X3035Y-31542D02*
X3035Y-31942D01*
X2928Y-31314D02*
X2821Y-31742D01*
X3100Y-31742D01*
G54D20*
G54D24*
X5192Y-32042D02*
X5192Y-32442D01*
X5085Y-31814D02*
X4978Y-32242D01*
X5257Y-32242D01*
X5514Y-31842D02*
X5557Y-31842D01*
X5600Y-31871D01*
X5621Y-31900D01*
X5642Y-31957D01*
X5664Y-32071D01*
X5664Y-32214D01*
X5642Y-32328D01*
X5621Y-32385D01*
X5600Y-32414D01*
X5557Y-32442D01*
X5514Y-32442D01*
X5471Y-32414D01*
X5450Y-32385D01*
X5428Y-32328D01*
X5407Y-32214D01*
X5407Y-32071D01*
X5428Y-31957D01*
X5450Y-31900D01*
X5471Y-31871D01*
X5514Y-31842D01*
X6071Y-31842D02*
X5857Y-31842D01*
X5835Y-32128D01*
X5857Y-32100D01*
X5900Y-32071D01*
X6007Y-32071D01*
X6050Y-32100D01*
X6071Y-32128D01*
X6092Y-32185D01*
X6092Y-32328D01*
X6071Y-32385D01*
X6050Y-32414D01*
X6007Y-32442D01*
X5900Y-32442D01*
X5857Y-32414D01*
X5835Y-32385D01*
X6521Y-32442D02*
X6264Y-32442D01*
X6392Y-32442D02*
X6392Y-31842D01*
X6350Y-31928D01*
X6307Y-31985D01*
X6264Y-32014D01*
G54D20*
G54D25*
X7771Y-28853D02*
X7790Y-28871D01*
X7809Y-28928D01*
X7809Y-28965D01*
X7790Y-29021D01*
X7753Y-29059D01*
X7715Y-29078D01*
X7640Y-29096D01*
X7584Y-29096D01*
X7509Y-29078D01*
X7471Y-29059D01*
X7434Y-29021D01*
X7415Y-28965D01*
X7415Y-28928D01*
X7434Y-28871D01*
X7453Y-28853D01*
X7809Y-28478D02*
X7809Y-28703D01*
X7809Y-28590D02*
X7415Y-28590D01*
X7471Y-28628D01*
X7509Y-28665D01*
X7528Y-28703D01*
X7415Y-28121D02*
X7415Y-28309D01*
X7603Y-28328D01*
X7584Y-28309D01*
X7565Y-28271D01*
X7565Y-28178D01*
X7584Y-28140D01*
X7603Y-28121D01*
X7640Y-28103D01*
X7734Y-28103D01*
X7771Y-28121D01*
X7790Y-28140D01*
X7809Y-28178D01*
X7809Y-28271D01*
X7790Y-28309D01*
X7771Y-28328D01*
G54D12*
X8700Y-29480D02*
X8680Y-29461D01*
X8661Y-29423D01*
X8661Y-29328D01*
X8680Y-29290D01*
X8700Y-29271D01*
X8738Y-29252D01*
X8776Y-29252D01*
X8833Y-29271D01*
X9061Y-29500D01*
X9061Y-29252D01*
X9023Y-29080D02*
X9042Y-29061D01*
X9061Y-29080D01*
X9042Y-29100D01*
X9023Y-29080D01*
X9061Y-29080D01*
X8700Y-28909D02*
X8680Y-28890D01*
X8661Y-28852D01*
X8661Y-28757D01*
X8680Y-28719D01*
X8700Y-28700D01*
X8738Y-28680D01*
X8776Y-28680D01*
X8833Y-28700D01*
X9061Y-28928D01*
X9061Y-28680D01*
X8795Y-28509D02*
X9195Y-28509D01*
X9004Y-28319D02*
X9042Y-28300D01*
X9061Y-28261D01*
X9004Y-28509D02*
X9042Y-28490D01*
X9061Y-28452D01*
X9061Y-28376D01*
X9042Y-28338D01*
X9004Y-28319D01*
X8795Y-28319D01*
X8852Y-27957D02*
X8852Y-28090D01*
X9061Y-28090D02*
X8661Y-28090D01*
X8661Y-27900D01*
G54D26*
X8257Y-29714D02*
X8257Y-29485D01*
X8371Y-29600D02*
X8142Y-29600D01*
G54D15*
X3823Y-35157D02*
X3842Y-35176D01*
X3861Y-35233D01*
X3861Y-35271D01*
X3842Y-35328D01*
X3804Y-35366D01*
X3766Y-35385D01*
X3690Y-35404D01*
X3633Y-35404D01*
X3557Y-35385D01*
X3519Y-35366D01*
X3480Y-35328D01*
X3461Y-35271D01*
X3461Y-35233D01*
X3480Y-35176D01*
X3500Y-35157D01*
X3861Y-34776D02*
X3861Y-35004D01*
X3861Y-34890D02*
X3461Y-34890D01*
X3519Y-34928D01*
X3557Y-34966D01*
X3576Y-35004D01*
X3595Y-34433D02*
X3861Y-34433D01*
X3442Y-34528D02*
X3728Y-34623D01*
X3728Y-34376D01*
X1821Y-36011D02*
X1592Y-36011D01*
X1707Y-36011D02*
X1707Y-35611D01*
X1669Y-35669D01*
X1630Y-35707D01*
X1592Y-35726D01*
X2069Y-35611D02*
X2107Y-35611D01*
X2145Y-35630D01*
X2164Y-35650D01*
X2183Y-35688D01*
X2202Y-35764D01*
X2202Y-35859D01*
X2183Y-35935D01*
X2164Y-35973D01*
X2145Y-35992D01*
X2107Y-36011D01*
X2069Y-36011D01*
X2030Y-35992D01*
X2011Y-35973D01*
X1992Y-35935D01*
X1973Y-35859D01*
X1973Y-35764D01*
X1992Y-35688D01*
X2011Y-35650D01*
X2030Y-35630D01*
X2069Y-35611D01*
X2373Y-35745D02*
X2373Y-36011D01*
X2373Y-35783D02*
X2392Y-35764D01*
X2430Y-35745D01*
X2488Y-35745D01*
X2526Y-35764D01*
X2545Y-35802D01*
X2545Y-36011D01*
X2869Y-35802D02*
X2735Y-35802D01*
X2735Y-36011D02*
X2735Y-35611D01*
X2926Y-35611D01*
X7725Y-41422D02*
X7519Y-41566D01*
X7725Y-41669D02*
X7292Y-41669D01*
X7292Y-41504D01*
X7312Y-41463D01*
X7333Y-41442D01*
X7374Y-41422D01*
X7436Y-41422D01*
X7477Y-41442D01*
X7498Y-41463D01*
X7519Y-41504D01*
X7519Y-41669D01*
X7725Y-41009D02*
X7725Y-41257D01*
X7725Y-41133D02*
X7292Y-41133D01*
X7354Y-41174D01*
X7395Y-41215D01*
X7415Y-41257D01*
X7405Y-38914D02*
X7772Y-38914D01*
X7196Y-39033D02*
X7589Y-39152D01*
X7589Y-38842D01*
X7720Y-38652D02*
X7746Y-38628D01*
X7772Y-38652D01*
X7746Y-38676D01*
X7720Y-38652D01*
X7772Y-38652D01*
X7222Y-38461D02*
X7222Y-38128D01*
X7772Y-38342D01*
X7772Y-37938D02*
X7222Y-37938D01*
X7563Y-37890D02*
X7772Y-37747D01*
X7405Y-37747D02*
X7615Y-37938D01*
G54D25*
X3096Y-22721D02*
X3078Y-22740D01*
X3021Y-22759D01*
X2984Y-22759D01*
X2928Y-22740D01*
X2890Y-22703D01*
X2871Y-22665D01*
X2853Y-22590D01*
X2853Y-22534D01*
X2871Y-22459D01*
X2890Y-22421D01*
X2928Y-22384D01*
X2984Y-22365D01*
X3021Y-22365D01*
X3078Y-22384D01*
X3096Y-22403D01*
X3471Y-22759D02*
X3246Y-22759D01*
X3359Y-22759D02*
X3359Y-22365D01*
X3321Y-22421D01*
X3284Y-22459D01*
X3246Y-22478D01*
X3809Y-22365D02*
X3734Y-22365D01*
X3696Y-22384D01*
X3678Y-22403D01*
X3640Y-22459D01*
X3621Y-22534D01*
X3621Y-22684D01*
X3640Y-22721D01*
X3659Y-22740D01*
X3696Y-22759D01*
X3771Y-22759D01*
X3809Y-22740D01*
X3828Y-22721D01*
X3846Y-22684D01*
X3846Y-22590D01*
X3828Y-22553D01*
X3809Y-22534D01*
X3771Y-22515D01*
X3696Y-22515D01*
X3659Y-22534D01*
X3640Y-22553D01*
X3621Y-22590D01*
G54D12*
X2792Y-24011D02*
X2564Y-24011D01*
X2678Y-24011D02*
X2678Y-23611D01*
X2640Y-23669D01*
X2602Y-23707D01*
X2564Y-23726D01*
X3040Y-23611D02*
X3078Y-23611D01*
X3116Y-23630D01*
X3135Y-23650D01*
X3154Y-23688D01*
X3173Y-23764D01*
X3173Y-23859D01*
X3154Y-23935D01*
X3135Y-23973D01*
X3116Y-23992D01*
X3078Y-24011D01*
X3040Y-24011D01*
X3002Y-23992D01*
X2983Y-23973D01*
X2964Y-23935D01*
X2945Y-23859D01*
X2945Y-23764D01*
X2964Y-23688D01*
X2983Y-23650D01*
X3002Y-23630D01*
X3040Y-23611D01*
X3345Y-23745D02*
X3345Y-24145D01*
X3535Y-23954D02*
X3554Y-23992D01*
X3592Y-24011D01*
X3345Y-23954D02*
X3364Y-23992D01*
X3402Y-24011D01*
X3478Y-24011D01*
X3516Y-23992D01*
X3535Y-23954D01*
X3535Y-23745D01*
X3897Y-23802D02*
X3764Y-23802D01*
X3764Y-24011D02*
X3764Y-23611D01*
X3954Y-23611D01*
G54D26*
X2235Y-23207D02*
X2464Y-23207D01*
X2350Y-23321D02*
X2350Y-23092D01*
G54D15*
G54D19*
X985Y-29309D02*
X1290Y-29309D01*
X1138Y-29461D02*
X1138Y-29157D01*
X1671Y-29061D02*
X1480Y-29061D01*
X1461Y-29252D01*
X1480Y-29233D01*
X1519Y-29214D01*
X1614Y-29214D01*
X1652Y-29233D01*
X1671Y-29252D01*
X1690Y-29290D01*
X1690Y-29385D01*
X1671Y-29423D01*
X1652Y-29442D01*
X1614Y-29461D01*
X1519Y-29461D01*
X1480Y-29442D01*
X1461Y-29423D01*
X1804Y-29061D02*
X1938Y-29461D01*
X2071Y-29061D01*
X545Y-24209D02*
X850Y-24209D01*
X697Y-24361D02*
X697Y-24057D01*
X1250Y-24361D02*
X1021Y-24361D01*
X1135Y-24361D02*
X1135Y-23961D01*
X1097Y-24019D01*
X1059Y-24057D01*
X1021Y-24076D01*
X1402Y-24000D02*
X1421Y-23980D01*
X1459Y-23961D01*
X1554Y-23961D01*
X1592Y-23980D01*
X1611Y-24000D01*
X1630Y-24038D01*
X1630Y-24076D01*
X1611Y-24133D01*
X1383Y-24361D01*
X1630Y-24361D01*
X1745Y-23961D02*
X1878Y-24361D01*
X2011Y-23961D01*
G54D20*
X37228Y-39292D02*
X37628Y-39292D01*
X37228Y-39892D01*
X37628Y-39892D01*
X37799Y-39292D02*
X38199Y-39892D01*
X38199Y-39292D02*
X37799Y-39892D01*
X38514Y-39550D02*
X38457Y-39521D01*
X38428Y-39492D01*
X38400Y-39435D01*
X38400Y-39407D01*
X38428Y-39350D01*
X38457Y-39321D01*
X38514Y-39292D01*
X38628Y-39292D01*
X38685Y-39321D01*
X38714Y-39350D01*
X38742Y-39407D01*
X38742Y-39435D01*
X38714Y-39492D01*
X38685Y-39521D01*
X38628Y-39550D01*
X38514Y-39550D01*
X38457Y-39578D01*
X38428Y-39607D01*
X38400Y-39664D01*
X38400Y-39778D01*
X38428Y-39835D01*
X38457Y-39864D01*
X38514Y-39892D01*
X38628Y-39892D01*
X38685Y-39864D01*
X38714Y-39835D01*
X38742Y-39778D01*
X38742Y-39664D01*
X38714Y-39607D01*
X38685Y-39578D01*
X38628Y-39550D01*
X39314Y-39892D02*
X38971Y-39892D01*
X39142Y-39892D02*
X39142Y-39292D01*
X39085Y-39378D01*
X39028Y-39435D01*
X38971Y-39464D01*
X39571Y-39892D02*
X39571Y-39292D01*
X39800Y-39292D01*
X39857Y-39321D01*
X39885Y-39350D01*
X39914Y-39407D01*
X39914Y-39492D01*
X39885Y-39550D01*
X39857Y-39578D01*
X39800Y-39607D01*
X39571Y-39607D01*
X40457Y-39892D02*
X40171Y-39892D01*
X40171Y-39292D01*
X40657Y-39292D02*
X40657Y-39778D01*
X40685Y-39835D01*
X40714Y-39864D01*
X40771Y-39892D01*
X40885Y-39892D01*
X40942Y-39864D01*
X40971Y-39835D01*
X41000Y-39778D01*
X41000Y-39292D01*
X41257Y-39864D02*
X41342Y-39892D01*
X41485Y-39892D01*
X41542Y-39864D01*
X41571Y-39835D01*
X41600Y-39778D01*
X41600Y-39721D01*
X41571Y-39664D01*
X41542Y-39635D01*
X41485Y-39607D01*
X41371Y-39578D01*
X41314Y-39550D01*
X41285Y-39521D01*
X41257Y-39464D01*
X41257Y-39407D01*
X41285Y-39350D01*
X41314Y-39321D01*
X41371Y-39292D01*
X41514Y-39292D01*
X41600Y-39321D01*
X41800Y-39292D02*
X42171Y-39292D01*
X41971Y-39521D01*
X42057Y-39521D01*
X42114Y-39550D01*
X42142Y-39578D01*
X42171Y-39635D01*
X42171Y-39778D01*
X42142Y-39835D01*
X42114Y-39864D01*
X42057Y-39892D01*
X41885Y-39892D01*
X41828Y-39864D01*
X41800Y-39835D01*
X42514Y-39550D02*
X42457Y-39521D01*
X42428Y-39492D01*
X42400Y-39435D01*
X42400Y-39407D01*
X42428Y-39350D01*
X42457Y-39321D01*
X42514Y-39292D01*
X42628Y-39292D01*
X42685Y-39321D01*
X42714Y-39350D01*
X42742Y-39407D01*
X42742Y-39435D01*
X42714Y-39492D01*
X42685Y-39521D01*
X42628Y-39550D01*
X42514Y-39550D01*
X42457Y-39578D01*
X42428Y-39607D01*
X42400Y-39664D01*
X42400Y-39778D01*
X42428Y-39835D01*
X42457Y-39864D01*
X42514Y-39892D01*
X42628Y-39892D01*
X42685Y-39864D01*
X42714Y-39835D01*
X42742Y-39778D01*
X42742Y-39664D01*
X42714Y-39607D01*
X42685Y-39578D01*
X42628Y-39550D01*
G54D15*
X74722Y-55533D02*
X74460Y-55700D01*
X74722Y-55819D02*
X74172Y-55819D01*
X74172Y-55628D01*
X74198Y-55580D01*
X74225Y-55557D01*
X74277Y-55533D01*
X74355Y-55533D01*
X74408Y-55557D01*
X74434Y-55580D01*
X74460Y-55628D01*
X74460Y-55819D01*
X74225Y-55342D02*
X74198Y-55319D01*
X74172Y-55271D01*
X74172Y-55152D01*
X74198Y-55104D01*
X74225Y-55080D01*
X74277Y-55057D01*
X74329Y-55057D01*
X74408Y-55080D01*
X74722Y-55366D01*
X74722Y-55057D01*
X74722Y-50571D02*
X74460Y-50738D01*
X74722Y-50857D02*
X74172Y-50857D01*
X74172Y-50666D01*
X74198Y-50619D01*
X74225Y-50595D01*
X74277Y-50571D01*
X74355Y-50571D01*
X74408Y-50595D01*
X74434Y-50619D01*
X74460Y-50666D01*
X74460Y-50857D01*
X74722Y-50095D02*
X74722Y-50380D01*
X74722Y-50238D02*
X74172Y-50238D01*
X74251Y-50285D01*
X74303Y-50333D01*
X74329Y-50380D01*
X74172Y-49785D02*
X74172Y-49738D01*
X74198Y-49690D01*
X74225Y-49666D01*
X74277Y-49642D01*
X74382Y-49619D01*
X74513Y-49619D01*
X74617Y-49642D01*
X74670Y-49666D01*
X74696Y-49690D01*
X74722Y-49738D01*
X74722Y-49785D01*
X74696Y-49833D01*
X74670Y-49857D01*
X74617Y-49880D01*
X74513Y-49904D01*
X74382Y-49904D01*
X74277Y-49880D01*
X74225Y-49857D01*
X74198Y-49833D01*
X74172Y-49785D01*
X73373Y-56707D02*
X73392Y-56726D01*
X73411Y-56783D01*
X73411Y-56821D01*
X73392Y-56878D01*
X73354Y-56916D01*
X73316Y-56935D01*
X73240Y-56954D01*
X73183Y-56954D01*
X73107Y-56935D01*
X73069Y-56916D01*
X73030Y-56878D01*
X73011Y-56821D01*
X73011Y-56783D01*
X73030Y-56726D01*
X73050Y-56707D01*
X73411Y-56326D02*
X73411Y-56554D01*
X73411Y-56440D02*
X73011Y-56440D01*
X73069Y-56478D01*
X73107Y-56516D01*
X73126Y-56554D01*
X73011Y-56192D02*
X73011Y-55926D01*
X73411Y-56097D01*
X16475Y-58978D02*
X16269Y-59122D01*
X16475Y-59225D02*
X16042Y-59225D01*
X16042Y-59060D01*
X16062Y-59019D01*
X16083Y-58999D01*
X16124Y-58978D01*
X16186Y-58978D01*
X16227Y-58999D01*
X16248Y-59019D01*
X16269Y-59060D01*
X16269Y-59225D01*
X16475Y-58565D02*
X16475Y-58813D01*
X16475Y-58689D02*
X16042Y-58689D01*
X16104Y-58730D01*
X16145Y-58772D01*
X16165Y-58813D01*
X16475Y-58153D02*
X16475Y-58400D01*
X16475Y-58277D02*
X16042Y-58277D01*
X16104Y-58318D01*
X16145Y-58359D01*
X16165Y-58400D01*
X16025Y-56252D02*
X15998Y-56228D01*
X15972Y-56180D01*
X15972Y-56061D01*
X15998Y-56014D01*
X16025Y-55990D01*
X16077Y-55966D01*
X16129Y-55966D01*
X16208Y-55990D01*
X16522Y-56276D01*
X16522Y-55966D01*
X16470Y-55752D02*
X16496Y-55728D01*
X16522Y-55752D01*
X16496Y-55776D01*
X16470Y-55752D01*
X16522Y-55752D01*
X16025Y-55538D02*
X15998Y-55514D01*
X15972Y-55466D01*
X15972Y-55347D01*
X15998Y-55299D01*
X16025Y-55276D01*
X16077Y-55252D01*
X16129Y-55252D01*
X16208Y-55276D01*
X16522Y-55561D01*
X16522Y-55252D01*
X16522Y-55038D02*
X15972Y-55038D01*
X16313Y-54990D02*
X16522Y-54847D01*
X16155Y-54847D02*
X16365Y-55038D01*
X17625Y-58978D02*
X17419Y-59122D01*
X17625Y-59225D02*
X17192Y-59225D01*
X17192Y-59060D01*
X17212Y-59019D01*
X17233Y-58999D01*
X17274Y-58978D01*
X17336Y-58978D01*
X17377Y-58999D01*
X17398Y-59019D01*
X17419Y-59060D01*
X17419Y-59225D01*
X17625Y-58565D02*
X17625Y-58813D01*
X17625Y-58689D02*
X17192Y-58689D01*
X17254Y-58730D01*
X17295Y-58772D01*
X17315Y-58813D01*
X17233Y-58400D02*
X17212Y-58380D01*
X17192Y-58339D01*
X17192Y-58235D01*
X17212Y-58194D01*
X17233Y-58174D01*
X17274Y-58153D01*
X17315Y-58153D01*
X17377Y-58174D01*
X17625Y-58421D01*
X17625Y-58153D01*
X17225Y-56252D02*
X17198Y-56228D01*
X17172Y-56180D01*
X17172Y-56061D01*
X17198Y-56014D01*
X17225Y-55990D01*
X17277Y-55966D01*
X17329Y-55966D01*
X17408Y-55990D01*
X17722Y-56276D01*
X17722Y-55966D01*
X17670Y-55752D02*
X17696Y-55728D01*
X17722Y-55752D01*
X17696Y-55776D01*
X17670Y-55752D01*
X17722Y-55752D01*
X17225Y-55538D02*
X17198Y-55514D01*
X17172Y-55466D01*
X17172Y-55347D01*
X17198Y-55299D01*
X17225Y-55276D01*
X17277Y-55252D01*
X17329Y-55252D01*
X17408Y-55276D01*
X17722Y-55561D01*
X17722Y-55252D01*
X17722Y-55038D02*
X17172Y-55038D01*
X17513Y-54990D02*
X17722Y-54847D01*
X17355Y-54847D02*
X17565Y-55038D01*
G54D21*
X20504Y-50661D02*
X20504Y-50261D01*
X20733Y-50661D02*
X20561Y-50433D01*
X20733Y-50261D02*
X20504Y-50490D01*
X20885Y-50300D02*
X20904Y-50280D01*
X20942Y-50261D01*
X21038Y-50261D01*
X21076Y-50280D01*
X21095Y-50300D01*
X21114Y-50338D01*
X21114Y-50376D01*
X21095Y-50433D01*
X20866Y-50661D01*
X21114Y-50661D01*
X19840Y-52811D02*
X19650Y-52811D01*
X19650Y-52411D01*
X19973Y-52602D02*
X20107Y-52602D01*
X20164Y-52811D02*
X19973Y-52811D01*
X19973Y-52411D01*
X20164Y-52411D01*
X20335Y-52811D02*
X20335Y-52411D01*
X20430Y-52411D01*
X20488Y-52430D01*
X20526Y-52469D01*
X20545Y-52507D01*
X20564Y-52583D01*
X20564Y-52640D01*
X20545Y-52716D01*
X20526Y-52754D01*
X20488Y-52792D01*
X20430Y-52811D01*
X20335Y-52811D01*
X20640Y-52850D02*
X20945Y-52850D01*
X21040Y-52811D02*
X21040Y-52411D01*
X21269Y-52811D02*
X21097Y-52583D01*
X21269Y-52411D02*
X21040Y-52640D01*
X21573Y-52602D02*
X21630Y-52621D01*
X21650Y-52640D01*
X21669Y-52678D01*
X21669Y-52735D01*
X21650Y-52773D01*
X21630Y-52792D01*
X21592Y-52811D01*
X21440Y-52811D01*
X21440Y-52411D01*
X21573Y-52411D01*
X21611Y-52430D01*
X21630Y-52450D01*
X21650Y-52488D01*
X21650Y-52526D01*
X21630Y-52564D01*
X21611Y-52583D01*
X21573Y-52602D01*
X21440Y-52602D01*
G54D15*
X8925Y-41878D02*
X8719Y-42022D01*
X8925Y-42125D02*
X8492Y-42125D01*
X8492Y-41960D01*
X8512Y-41919D01*
X8533Y-41899D01*
X8574Y-41878D01*
X8636Y-41878D01*
X8677Y-41899D01*
X8698Y-41919D01*
X8719Y-41960D01*
X8719Y-42125D01*
X8925Y-41465D02*
X8925Y-41713D01*
X8925Y-41589D02*
X8492Y-41589D01*
X8554Y-41630D01*
X8595Y-41672D01*
X8615Y-41713D01*
X8492Y-41321D02*
X8492Y-41053D01*
X8657Y-41197D01*
X8657Y-41135D01*
X8677Y-41094D01*
X8698Y-41074D01*
X8739Y-41053D01*
X8842Y-41053D01*
X8884Y-41074D01*
X8904Y-41094D01*
X8925Y-41135D01*
X8925Y-41259D01*
X8904Y-41300D01*
X8884Y-41321D01*
X8972Y-38509D02*
X8972Y-38795D01*
X8972Y-38652D02*
X8422Y-38652D01*
X8501Y-38699D01*
X8553Y-38747D01*
X8579Y-38795D01*
X8972Y-38295D02*
X8422Y-38295D01*
X8763Y-38247D02*
X8972Y-38104D01*
X8605Y-38104D02*
X8815Y-38295D01*
X3421Y-19375D02*
X3277Y-19169D01*
X3174Y-19375D02*
X3174Y-18942D01*
X3339Y-18942D01*
X3380Y-18962D01*
X3400Y-18983D01*
X3421Y-19024D01*
X3421Y-19086D01*
X3400Y-19127D01*
X3380Y-19148D01*
X3339Y-19169D01*
X3174Y-19169D01*
X3834Y-19375D02*
X3586Y-19375D01*
X3710Y-19375D02*
X3710Y-18942D01*
X3669Y-19004D01*
X3627Y-19045D01*
X3586Y-19065D01*
X4205Y-19086D02*
X4205Y-19375D01*
X4102Y-18921D02*
X3999Y-19230D01*
X4267Y-19230D01*
X3654Y-20172D02*
X3369Y-20172D01*
X3511Y-20172D02*
X3511Y-19622D01*
X3464Y-19701D01*
X3416Y-19753D01*
X3369Y-19779D01*
X3964Y-19622D02*
X4011Y-19622D01*
X4059Y-19648D01*
X4083Y-19675D01*
X4107Y-19727D01*
X4130Y-19832D01*
X4130Y-19963D01*
X4107Y-20067D01*
X4083Y-20120D01*
X4059Y-20146D01*
X4011Y-20172D01*
X3964Y-20172D01*
X3916Y-20146D01*
X3892Y-20120D01*
X3869Y-20067D01*
X3845Y-19963D01*
X3845Y-19832D01*
X3869Y-19727D01*
X3892Y-19675D01*
X3916Y-19648D01*
X3964Y-19622D01*
X6492Y-23573D02*
X6473Y-23592D01*
X6416Y-23611D01*
X6378Y-23611D01*
X6321Y-23592D01*
X6283Y-23554D01*
X6264Y-23516D01*
X6245Y-23440D01*
X6245Y-23383D01*
X6264Y-23307D01*
X6283Y-23269D01*
X6321Y-23230D01*
X6378Y-23211D01*
X6416Y-23211D01*
X6473Y-23230D01*
X6492Y-23250D01*
X6873Y-23611D02*
X6645Y-23611D01*
X6759Y-23611D02*
X6759Y-23211D01*
X6721Y-23269D01*
X6683Y-23307D01*
X6645Y-23326D01*
X7102Y-23383D02*
X7064Y-23364D01*
X7045Y-23345D01*
X7026Y-23307D01*
X7026Y-23288D01*
X7045Y-23250D01*
X7064Y-23230D01*
X7102Y-23211D01*
X7178Y-23211D01*
X7216Y-23230D01*
X7235Y-23250D01*
X7254Y-23288D01*
X7254Y-23307D01*
X7235Y-23345D01*
X7216Y-23364D01*
X7178Y-23383D01*
X7102Y-23383D01*
X7064Y-23402D01*
X7045Y-23421D01*
X7026Y-23459D01*
X7026Y-23535D01*
X7045Y-23573D01*
X7064Y-23592D01*
X7102Y-23611D01*
X7178Y-23611D01*
X7216Y-23592D01*
X7235Y-23573D01*
X7254Y-23535D01*
X7254Y-23459D01*
X7235Y-23421D01*
X7216Y-23402D01*
X7178Y-23383D01*
X5873Y-21250D02*
X5892Y-21230D01*
X5930Y-21211D01*
X6026Y-21211D01*
X6064Y-21230D01*
X6083Y-21250D01*
X6102Y-21288D01*
X6102Y-21326D01*
X6083Y-21383D01*
X5854Y-21611D01*
X6102Y-21611D01*
X6254Y-21250D02*
X6273Y-21230D01*
X6311Y-21211D01*
X6407Y-21211D01*
X6445Y-21230D01*
X6464Y-21250D01*
X6483Y-21288D01*
X6483Y-21326D01*
X6464Y-21383D01*
X6235Y-21611D01*
X6483Y-21611D01*
X6730Y-21211D02*
X6769Y-21211D01*
X6807Y-21230D01*
X6826Y-21250D01*
X6845Y-21288D01*
X6864Y-21364D01*
X6864Y-21459D01*
X6845Y-21535D01*
X6826Y-21573D01*
X6807Y-21592D01*
X6769Y-21611D01*
X6730Y-21611D01*
X6692Y-21592D01*
X6673Y-21573D01*
X6654Y-21535D01*
X6635Y-21459D01*
X6635Y-21364D01*
X6654Y-21288D01*
X6673Y-21250D01*
X6692Y-21230D01*
X6730Y-21211D01*
X7035Y-21345D02*
X7035Y-21745D01*
X7226Y-21554D02*
X7245Y-21592D01*
X7283Y-21611D01*
X7035Y-21554D02*
X7054Y-21592D01*
X7092Y-21611D01*
X7169Y-21611D01*
X7207Y-21592D01*
X7226Y-21554D01*
X7226Y-21345D01*
X7588Y-21402D02*
X7454Y-21402D01*
X7454Y-21611D02*
X7454Y-21211D01*
X7645Y-21211D01*
X61911Y-55795D02*
X61511Y-55795D01*
X61511Y-55699D01*
X61530Y-55642D01*
X61569Y-55604D01*
X61607Y-55585D01*
X61683Y-55566D01*
X61740Y-55566D01*
X61816Y-55585D01*
X61854Y-55604D01*
X61892Y-55642D01*
X61911Y-55699D01*
X61911Y-55795D01*
X61550Y-55414D02*
X61530Y-55395D01*
X61511Y-55357D01*
X61511Y-55261D01*
X61530Y-55223D01*
X61550Y-55204D01*
X61588Y-55185D01*
X61626Y-55185D01*
X61683Y-55204D01*
X61911Y-55433D01*
X61911Y-55185D01*
X60661Y-55795D02*
X60261Y-55795D01*
X60261Y-55699D01*
X60280Y-55642D01*
X60319Y-55604D01*
X60357Y-55585D01*
X60433Y-55566D01*
X60490Y-55566D01*
X60566Y-55585D01*
X60604Y-55604D01*
X60642Y-55642D01*
X60661Y-55699D01*
X60661Y-55795D01*
X60661Y-55185D02*
X60661Y-55414D01*
X60661Y-55299D02*
X60261Y-55299D01*
X60319Y-55338D01*
X60357Y-55376D01*
X60376Y-55414D01*
M02*
