G04 (created by PCBNEW (2013-07-07 BZR 4022)-stable) date 07/01/2023 15:27:14*
%MOIN*%
G04 Gerber Fmt 3.4, Leading zero omitted, Abs format*
%FSLAX34Y34*%
G01*
G70*
G90*
G04 APERTURE LIST*
%ADD10C,0.00590551*%
%ADD11C,0.00393701*%
G04 APERTURE END LIST*
G54D10*
G54D11*
X8000Y-45750D02*
X8000Y-47750D01*
X10000Y-45750D02*
X8000Y-45750D01*
X10000Y-47750D02*
X10000Y-45750D01*
X8000Y-47750D02*
X10000Y-47750D01*
X8500Y-54000D02*
X0Y-54000D01*
X9500Y-54000D02*
X10750Y-54000D01*
X9500Y-51000D02*
X9500Y-54000D01*
X8500Y-51000D02*
X9500Y-51000D01*
X8500Y-54000D02*
X8500Y-51000D01*
X88500Y-1250D02*
X88500Y-25500D01*
X67000Y-1250D02*
X88500Y-1250D01*
X67000Y0D02*
X67000Y-1250D01*
X47750Y0D02*
X67000Y0D01*
X46500Y0D02*
X2000Y0D01*
X47750Y-3750D02*
X47750Y0D01*
X46500Y-3750D02*
X47750Y-3750D01*
X46500Y0D02*
X46500Y-3750D01*
X0Y-2000D02*
X2000Y0D01*
X0Y-54000D02*
X0Y-2000D01*
X10750Y-62000D02*
X10750Y-54000D01*
X79750Y-62000D02*
X10750Y-62000D01*
X82750Y-25500D02*
X88500Y-25500D01*
X82750Y-54000D02*
X82750Y-25500D01*
X79750Y-54000D02*
X82750Y-54000D01*
X79750Y-62000D02*
X79750Y-54000D01*
M02*
