M48
;DRILL file {Pcbnew (2013-07-07 BZR 4022)-stable} date 27/12/2022 09:25:52
;FORMAT={-:-/ absolute / inch / decimal}
FMAT,2
INCH,TZ
T1C0.020
T2C0.059
T3C0.120
%
G90
G05
M72
T1
X0.395Y-0.695
X0.495Y-0.695
X0.595Y-0.695
X0.695Y-0.695
X0.795Y-0.695
X0.895Y-0.695
X1.095Y-0.695
X1.195Y-0.695
X1.295Y-0.695
X1.395Y-0.695
X1.495Y-0.695
X1.595Y-0.695
X1.695Y-0.695
T2
X0.195Y-0.52
X0.195Y-1.12
X0.295Y-0.52
X0.295Y-1.12
X0.395Y-0.52
X0.395Y-1.12
X0.495Y-0.52
X0.495Y-1.12
X0.595Y-0.52
X0.595Y-1.12
X0.695Y-0.52
X0.695Y-1.12
X0.795Y-0.52
X0.795Y-1.12
X0.895Y-0.52
X0.895Y-1.12
X0.995Y-0.52
X0.995Y-1.12
X1.095Y-0.52
X1.095Y-1.12
X1.195Y-0.52
X1.195Y-1.12
X1.295Y-0.52
X1.295Y-1.12
X1.395Y-0.52
X1.395Y-1.12
X1.495Y-0.52
X1.495Y-1.12
X1.595Y-0.52
X1.595Y-1.12
X1.695Y-0.52
X1.695Y-1.12
T3
X0.245Y-0.26
X0.945Y-0.26
X1.645Y-0.26
T0
M30
