G04 (created by PCBNEW (2013-07-07 BZR 4022)-stable) date 27/12/2022 09:25:50*
%MOIN*%
G04 Gerber Fmt 3.4, Leading zero omitted, Abs format*
%FSLAX34Y34*%
G01*
G70*
G90*
G04 APERTURE LIST*
%ADD10C,0.00590551*%
%ADD11C,0.00393701*%
%ADD12C,0.011811*%
%ADD13C,0.015*%
%ADD14C,0.012*%
%ADD15C,0.00787402*%
G04 APERTURE END LIST*
G54D10*
G54D11*
X0Y-17000D02*
X350Y-17400D01*
X18550Y-17400D02*
X350Y-17400D01*
G54D12*
X11297Y-2689D02*
X10959Y-2689D01*
X11128Y-2689D02*
X11128Y-2098D01*
X11072Y-2182D01*
X11015Y-2239D01*
X10959Y-2267D01*
X11859Y-2689D02*
X11521Y-2689D01*
X11690Y-2689D02*
X11690Y-2098D01*
X11634Y-2182D01*
X11578Y-2239D01*
X11521Y-2267D01*
X12112Y-2464D02*
X12562Y-2464D01*
X12815Y-2154D02*
X12843Y-2126D01*
X12899Y-2098D01*
X13040Y-2098D01*
X13096Y-2126D01*
X13124Y-2154D01*
X13153Y-2210D01*
X13153Y-2267D01*
X13124Y-2351D01*
X12787Y-2689D01*
X13153Y-2689D01*
X13518Y-2098D02*
X13574Y-2098D01*
X13631Y-2126D01*
X13659Y-2154D01*
X13687Y-2210D01*
X13715Y-2323D01*
X13715Y-2464D01*
X13687Y-2576D01*
X13659Y-2632D01*
X13631Y-2660D01*
X13574Y-2689D01*
X13518Y-2689D01*
X13462Y-2660D01*
X13434Y-2632D01*
X13406Y-2576D01*
X13378Y-2464D01*
X13378Y-2323D01*
X13406Y-2210D01*
X13434Y-2154D01*
X13462Y-2126D01*
X13518Y-2098D01*
X13940Y-2154D02*
X13968Y-2126D01*
X14024Y-2098D01*
X14165Y-2098D01*
X14221Y-2126D01*
X14249Y-2154D01*
X14277Y-2210D01*
X14277Y-2267D01*
X14249Y-2351D01*
X13912Y-2689D01*
X14277Y-2689D01*
X14840Y-2689D02*
X14502Y-2689D01*
X14671Y-2689D02*
X14671Y-2098D01*
X14615Y-2182D01*
X14559Y-2239D01*
X14502Y-2267D01*
G54D11*
X18900Y-17000D02*
X18900Y-150D01*
X0Y-17000D02*
X0Y-150D01*
X18900Y-17000D02*
X18550Y-17400D01*
X18750Y0D02*
X18900Y-150D01*
X150Y0D02*
X18750Y0D01*
X0Y-150D02*
X150Y0D01*
G54D12*
X4768Y-2379D02*
X4572Y-2379D01*
X4572Y-2689D02*
X4572Y-2098D01*
X4853Y-2098D01*
X5078Y-2689D02*
X5078Y-2295D01*
X5078Y-2407D02*
X5106Y-2351D01*
X5134Y-2323D01*
X5190Y-2295D01*
X5246Y-2295D01*
X5668Y-2660D02*
X5612Y-2689D01*
X5500Y-2689D01*
X5443Y-2660D01*
X5415Y-2604D01*
X5415Y-2379D01*
X5443Y-2323D01*
X5500Y-2295D01*
X5612Y-2295D01*
X5668Y-2323D01*
X5696Y-2379D01*
X5696Y-2435D01*
X5415Y-2492D01*
X6203Y-2689D02*
X6203Y-2098D01*
X6203Y-2660D02*
X6146Y-2689D01*
X6034Y-2689D01*
X5978Y-2660D01*
X5950Y-2632D01*
X5921Y-2576D01*
X5921Y-2407D01*
X5950Y-2351D01*
X5978Y-2323D01*
X6034Y-2295D01*
X6146Y-2295D01*
X6203Y-2323D01*
X6428Y-2098D02*
X6821Y-2098D01*
X6568Y-2689D01*
X7018Y-2154D02*
X7046Y-2126D01*
X7102Y-2098D01*
X7243Y-2098D01*
X7299Y-2126D01*
X7327Y-2154D01*
X7356Y-2210D01*
X7356Y-2267D01*
X7327Y-2351D01*
X6990Y-2689D01*
X7356Y-2689D01*
X3247Y-882D02*
X3219Y-910D01*
X3135Y-939D01*
X3078Y-939D01*
X2994Y-910D01*
X2938Y-854D01*
X2910Y-798D01*
X2882Y-685D01*
X2882Y-601D01*
X2910Y-489D01*
X2938Y-432D01*
X2994Y-376D01*
X3078Y-348D01*
X3135Y-348D01*
X3219Y-376D01*
X3247Y-404D01*
X3472Y-770D02*
X3753Y-770D01*
X3416Y-939D02*
X3613Y-348D01*
X3810Y-939D01*
X4344Y-939D02*
X4147Y-657D01*
X4006Y-939D02*
X4006Y-348D01*
X4231Y-348D01*
X4288Y-376D01*
X4316Y-404D01*
X4344Y-460D01*
X4344Y-545D01*
X4316Y-601D01*
X4288Y-629D01*
X4231Y-657D01*
X4006Y-657D01*
X4513Y-348D02*
X4850Y-348D01*
X4681Y-939D02*
X4681Y-348D01*
X5159Y-348D02*
X5272Y-348D01*
X5328Y-376D01*
X5384Y-432D01*
X5412Y-545D01*
X5412Y-742D01*
X5384Y-854D01*
X5328Y-910D01*
X5272Y-939D01*
X5159Y-939D01*
X5103Y-910D01*
X5047Y-854D01*
X5019Y-742D01*
X5019Y-545D01*
X5047Y-432D01*
X5103Y-376D01*
X5159Y-348D01*
X5666Y-348D02*
X5666Y-826D01*
X5694Y-882D01*
X5722Y-910D01*
X5778Y-939D01*
X5891Y-939D01*
X5947Y-910D01*
X5975Y-882D01*
X6003Y-826D01*
X6003Y-348D01*
X6622Y-882D02*
X6594Y-910D01*
X6509Y-939D01*
X6453Y-939D01*
X6369Y-910D01*
X6312Y-854D01*
X6284Y-798D01*
X6256Y-685D01*
X6256Y-601D01*
X6284Y-489D01*
X6312Y-432D01*
X6369Y-376D01*
X6453Y-348D01*
X6509Y-348D01*
X6594Y-376D01*
X6622Y-404D01*
X6875Y-939D02*
X6875Y-348D01*
X6875Y-629D02*
X7212Y-629D01*
X7212Y-939D02*
X7212Y-348D01*
X7493Y-629D02*
X7690Y-629D01*
X7775Y-939D02*
X7493Y-939D01*
X7493Y-348D01*
X7775Y-348D01*
X8450Y-404D02*
X8478Y-376D01*
X8534Y-348D01*
X8675Y-348D01*
X8731Y-376D01*
X8759Y-404D01*
X8787Y-460D01*
X8787Y-517D01*
X8759Y-601D01*
X8421Y-939D01*
X8787Y-939D01*
X9321Y-348D02*
X9040Y-348D01*
X9012Y-629D01*
X9040Y-601D01*
X9096Y-573D01*
X9237Y-573D01*
X9293Y-601D01*
X9321Y-629D01*
X9349Y-685D01*
X9349Y-826D01*
X9321Y-882D01*
X9293Y-910D01*
X9237Y-939D01*
X9096Y-939D01*
X9040Y-910D01*
X9012Y-882D01*
X9856Y-348D02*
X9743Y-348D01*
X9687Y-376D01*
X9659Y-404D01*
X9603Y-489D01*
X9574Y-601D01*
X9574Y-826D01*
X9603Y-882D01*
X9631Y-910D01*
X9687Y-939D01*
X9799Y-939D01*
X9856Y-910D01*
X9884Y-882D01*
X9912Y-826D01*
X9912Y-685D01*
X9884Y-629D01*
X9856Y-601D01*
X9799Y-573D01*
X9687Y-573D01*
X9631Y-601D01*
X9603Y-629D01*
X9574Y-685D01*
X10165Y-939D02*
X10165Y-348D01*
X10502Y-939D02*
X10249Y-601D01*
X10502Y-348D02*
X10165Y-685D01*
X11205Y-714D02*
X11655Y-714D01*
X12302Y-348D02*
X12499Y-939D01*
X12696Y-348D01*
X12893Y-939D02*
X12893Y-348D01*
X13118Y-348D01*
X13174Y-376D01*
X13202Y-404D01*
X13230Y-460D01*
X13230Y-545D01*
X13202Y-601D01*
X13174Y-629D01*
X13118Y-657D01*
X12893Y-657D01*
X13793Y-939D02*
X13455Y-939D01*
X13624Y-939D02*
X13624Y-348D01*
X13568Y-432D01*
X13511Y-489D01*
X13455Y-517D01*
X14299Y-545D02*
X14299Y-939D01*
X14158Y-320D02*
X14018Y-742D01*
X14383Y-742D01*
X14721Y-348D02*
X14777Y-348D01*
X14833Y-376D01*
X14861Y-404D01*
X14889Y-460D01*
X14917Y-573D01*
X14917Y-714D01*
X14889Y-826D01*
X14861Y-882D01*
X14833Y-910D01*
X14777Y-939D01*
X14721Y-939D01*
X14664Y-910D01*
X14636Y-882D01*
X14608Y-826D01*
X14580Y-714D01*
X14580Y-573D01*
X14608Y-460D01*
X14636Y-404D01*
X14664Y-376D01*
X14721Y-348D01*
G54D13*
X950Y-5700D02*
X17950Y-5700D01*
X17950Y-5700D02*
X17950Y-10700D01*
X17950Y-10700D02*
X950Y-10700D01*
X950Y-10700D02*
X950Y-5700D01*
X950Y-8700D02*
X1450Y-8700D01*
X1450Y-8700D02*
X1450Y-7700D01*
X1450Y-7700D02*
X950Y-7700D01*
G54D10*
X50Y-13350D02*
X50Y-17350D01*
X18850Y-13350D02*
X18850Y-17350D01*
G54D13*
X3350Y-2600D02*
G75*
G03X3350Y-2600I-900J0D01*
G74*
G01*
X17350Y-2600D02*
G75*
G03X17350Y-2600I-900J0D01*
G74*
G01*
X10350Y-2600D02*
G75*
G03X10350Y-2600I-900J0D01*
G74*
G01*
G54D14*
X1666Y-6433D02*
X1666Y-7000D01*
X1700Y-7066D01*
X1733Y-7100D01*
X1800Y-7133D01*
X1933Y-7133D01*
X2000Y-7100D01*
X2033Y-7066D01*
X2066Y-7000D01*
X2066Y-6433D01*
X2766Y-7133D02*
X2366Y-7133D01*
X2566Y-7133D02*
X2566Y-6433D01*
X2500Y-6533D01*
X2433Y-6600D01*
X2366Y-6633D01*
X7316Y-9100D02*
X7350Y-9066D01*
X7416Y-9033D01*
X7583Y-9033D01*
X7650Y-9066D01*
X7683Y-9100D01*
X7716Y-9166D01*
X7716Y-9233D01*
X7683Y-9333D01*
X7283Y-9733D01*
X7716Y-9733D01*
X7950Y-9033D02*
X8416Y-9033D01*
X8116Y-9733D01*
X9083Y-9666D02*
X9050Y-9700D01*
X8950Y-9733D01*
X8883Y-9733D01*
X8783Y-9700D01*
X8716Y-9633D01*
X8683Y-9566D01*
X8650Y-9433D01*
X8650Y-9333D01*
X8683Y-9200D01*
X8716Y-9133D01*
X8783Y-9066D01*
X8883Y-9033D01*
X8950Y-9033D01*
X9050Y-9066D01*
X9083Y-9100D01*
X9516Y-9033D02*
X9583Y-9033D01*
X9650Y-9066D01*
X9683Y-9100D01*
X9716Y-9166D01*
X9750Y-9300D01*
X9750Y-9466D01*
X9716Y-9600D01*
X9683Y-9666D01*
X9650Y-9700D01*
X9583Y-9733D01*
X9516Y-9733D01*
X9450Y-9700D01*
X9416Y-9666D01*
X9383Y-9600D01*
X9350Y-9466D01*
X9350Y-9300D01*
X9383Y-9166D01*
X9416Y-9100D01*
X9450Y-9066D01*
X9516Y-9033D01*
X10016Y-9100D02*
X10050Y-9066D01*
X10116Y-9033D01*
X10283Y-9033D01*
X10350Y-9066D01*
X10383Y-9100D01*
X10416Y-9166D01*
X10416Y-9233D01*
X10383Y-9333D01*
X9983Y-9733D01*
X10416Y-9733D01*
X10850Y-9033D02*
X10916Y-9033D01*
X10983Y-9066D01*
X11016Y-9100D01*
X11050Y-9166D01*
X11083Y-9300D01*
X11083Y-9466D01*
X11050Y-9600D01*
X11016Y-9666D01*
X10983Y-9700D01*
X10916Y-9733D01*
X10850Y-9733D01*
X10783Y-9700D01*
X10750Y-9666D01*
X10716Y-9600D01*
X10683Y-9466D01*
X10683Y-9300D01*
X10716Y-9166D01*
X10750Y-9100D01*
X10783Y-9066D01*
X10850Y-9033D01*
G54D10*
X18131Y-12598D02*
X18375Y-12598D01*
X18243Y-12823D01*
X18300Y-12823D01*
X18337Y-12851D01*
X18356Y-12879D01*
X18375Y-12935D01*
X18375Y-13076D01*
X18356Y-13132D01*
X18337Y-13160D01*
X18300Y-13189D01*
X18187Y-13189D01*
X18150Y-13160D01*
X18131Y-13132D01*
X18712Y-12598D02*
X18637Y-12598D01*
X18599Y-12626D01*
X18581Y-12654D01*
X18543Y-12739D01*
X18524Y-12851D01*
X18524Y-13076D01*
X18543Y-13132D01*
X18562Y-13160D01*
X18599Y-13189D01*
X18674Y-13189D01*
X18712Y-13160D01*
X18731Y-13132D01*
X18749Y-13076D01*
X18749Y-12935D01*
X18731Y-12879D01*
X18712Y-12851D01*
X18674Y-12823D01*
X18599Y-12823D01*
X18562Y-12851D01*
X18543Y-12879D01*
X18524Y-12935D01*
G54D15*
X387Y-12754D02*
X406Y-12726D01*
X443Y-12698D01*
X537Y-12698D01*
X574Y-12726D01*
X593Y-12754D01*
X612Y-12810D01*
X612Y-12867D01*
X593Y-12951D01*
X368Y-13289D01*
X612Y-13289D01*
M02*
