G04 (created by PCBNEW (2013-07-07 BZR 4022)-stable) date 27/12/2022 09:25:50*
%MOIN*%
G04 Gerber Fmt 3.4, Leading zero omitted, Abs format*
%FSLAX34Y34*%
G01*
G70*
G90*
G04 APERTURE LIST*
%ADD10C,0.00590551*%
%ADD11C,0.00393701*%
%ADD12R,0.0708661X0.11811*%
%ADD13O,0.0629921X0.11811*%
%ADD14O,0.0787402X0.11811*%
%ADD15O,0.0511811X0.354331*%
%ADD16C,0.16*%
%ADD17R,0.06X0.08*%
G04 APERTURE END LIST*
G54D10*
G54D11*
X0Y-17000D02*
X350Y-17400D01*
X18550Y-17400D02*
X350Y-17400D01*
X18900Y-17000D02*
X18900Y-150D01*
X0Y-17000D02*
X0Y-150D01*
X18900Y-17000D02*
X18550Y-17400D01*
X18750Y0D02*
X18900Y-150D01*
X150Y0D02*
X18750Y0D01*
X0Y-150D02*
X150Y0D01*
G54D12*
X1950Y-11200D03*
G54D13*
X2950Y-11200D03*
X3950Y-11200D03*
X4950Y-11200D03*
X5950Y-11200D03*
X6950Y-11200D03*
X7950Y-11200D03*
X8950Y-11200D03*
X9950Y-11200D03*
X10950Y-11200D03*
X11950Y-11200D03*
X12950Y-11200D03*
X13950Y-11200D03*
X14950Y-11200D03*
X15950Y-11200D03*
X16950Y-11200D03*
G54D14*
X16950Y-5200D03*
X15950Y-5200D03*
X14950Y-5200D03*
X13950Y-5200D03*
X12950Y-5200D03*
X11950Y-5200D03*
X10950Y-5200D03*
X9950Y-5200D03*
X8950Y-5200D03*
X7950Y-5200D03*
X6950Y-5200D03*
X5950Y-5200D03*
X4950Y-5200D03*
X3950Y-5200D03*
X2950Y-5200D03*
X1950Y-5200D03*
G54D15*
X1950Y-15450D03*
X2950Y-15450D03*
X3950Y-15450D03*
X4950Y-15450D03*
X5950Y-15450D03*
X6950Y-15450D03*
X7950Y-15450D03*
X950Y-15450D03*
X8950Y-15450D03*
X9950Y-15450D03*
X10950Y-15450D03*
X11950Y-15450D03*
X12950Y-15450D03*
X13950Y-15450D03*
X14950Y-15450D03*
X15950Y-15450D03*
X16950Y-15450D03*
X17950Y-15450D03*
G54D16*
X2450Y-2600D03*
X16450Y-2600D03*
G54D17*
X2050Y-9200D03*
X3350Y-9200D03*
G54D16*
X9450Y-2600D03*
M02*
