G04 (created by PCBNEW (2013-07-07 BZR 4022)-stable) date 27/12/2022 09:25:50*
%MOIN*%
G04 Gerber Fmt 3.4, Leading zero omitted, Abs format*
%FSLAX34Y34*%
G01*
G70*
G90*
G04 APERTURE LIST*
%ADD10C,0.00590551*%
%ADD11C,0.00393701*%
%ADD12C,0.005*%
G04 APERTURE END LIST*
G54D10*
G54D11*
X0Y-17000D02*
X350Y-17400D01*
X18550Y-17400D02*
X350Y-17400D01*
X18900Y-17000D02*
X18900Y-150D01*
X0Y-17000D02*
X0Y-150D01*
X18900Y-17000D02*
X18550Y-17400D01*
X18750Y0D02*
X18900Y-150D01*
X150Y0D02*
X18750Y0D01*
X0Y-150D02*
X150Y0D01*
G54D12*
X1700Y-9650D02*
X1700Y-8750D01*
X1700Y-8750D02*
X2350Y-8750D01*
X3050Y-9650D02*
X3700Y-9650D01*
X3700Y-9650D02*
X3700Y-8750D01*
X3700Y-8750D02*
X3050Y-8750D01*
X2350Y-9650D02*
X1700Y-9650D01*
X2750Y-9292D02*
X2764Y-9307D01*
X2807Y-9321D01*
X2835Y-9321D01*
X2878Y-9307D01*
X2907Y-9278D01*
X2921Y-9250D01*
X2935Y-9192D01*
X2935Y-9150D01*
X2921Y-9092D01*
X2907Y-9064D01*
X2878Y-9035D01*
X2835Y-9021D01*
X2807Y-9021D01*
X2764Y-9035D01*
X2750Y-9050D01*
X2464Y-9321D02*
X2635Y-9321D01*
X2550Y-9321D02*
X2550Y-9021D01*
X2578Y-9064D01*
X2607Y-9092D01*
X2635Y-9107D01*
M02*
