G04 (created by PCBNEW (2013-07-07 BZR 4022)-stable) date 27/12/2022 09:25:50*
%MOIN*%
G04 Gerber Fmt 3.4, Leading zero omitted, Abs format*
%FSLAX34Y34*%
G01*
G70*
G90*
G04 APERTURE LIST*
%ADD10C,0.00590551*%
%ADD11C,0.00393701*%
%ADD12R,0.0708661X0.11811*%
%ADD13O,0.0629921X0.11811*%
%ADD14O,0.0787402X0.11811*%
%ADD15O,0.0511811X0.354331*%
%ADD16C,0.16*%
%ADD17C,0.0629921*%
%ADD18C,0.015748*%
%ADD19C,0.0275591*%
G04 APERTURE END LIST*
G54D10*
G54D11*
X0Y-17000D02*
X350Y-17400D01*
X18550Y-17400D02*
X350Y-17400D01*
X18900Y-17000D02*
X18900Y-150D01*
X0Y-17000D02*
X0Y-150D01*
X18900Y-17000D02*
X18550Y-17400D01*
X18750Y0D02*
X18900Y-150D01*
X150Y0D02*
X18750Y0D01*
X0Y-150D02*
X150Y0D01*
G54D12*
X1950Y-11200D03*
G54D13*
X2950Y-11200D03*
X3950Y-11200D03*
X4950Y-11200D03*
X5950Y-11200D03*
X6950Y-11200D03*
X7950Y-11200D03*
X8950Y-11200D03*
X9950Y-11200D03*
X10950Y-11200D03*
X11950Y-11200D03*
X12950Y-11200D03*
X13950Y-11200D03*
X14950Y-11200D03*
X15950Y-11200D03*
X16950Y-11200D03*
G54D14*
X16950Y-5200D03*
X15950Y-5200D03*
X14950Y-5200D03*
X13950Y-5200D03*
X12950Y-5200D03*
X11950Y-5200D03*
X10950Y-5200D03*
X9950Y-5200D03*
X8950Y-5200D03*
X7950Y-5200D03*
X6950Y-5200D03*
X5950Y-5200D03*
X4950Y-5200D03*
X3950Y-5200D03*
X2950Y-5200D03*
X1950Y-5200D03*
G54D15*
X950Y-15450D03*
X1950Y-15450D03*
X2950Y-15450D03*
X3950Y-15450D03*
X4950Y-15450D03*
X5950Y-15450D03*
X6950Y-15450D03*
X7950Y-15450D03*
X8950Y-15450D03*
X9950Y-15450D03*
X10950Y-15450D03*
X11950Y-15450D03*
X12950Y-15450D03*
X13950Y-15450D03*
X14950Y-15450D03*
X15950Y-15450D03*
X16950Y-15450D03*
X17950Y-15450D03*
G54D16*
X2450Y-2600D03*
X16450Y-2600D03*
X9450Y-2600D03*
G54D17*
X16950Y-6950D03*
X15950Y-6950D03*
X14950Y-6950D03*
X13950Y-6950D03*
X12950Y-6950D03*
X10950Y-6950D03*
X8950Y-6950D03*
X5950Y-6950D03*
X4950Y-6950D03*
X3950Y-6950D03*
X6950Y-6950D03*
X7950Y-6950D03*
X11950Y-6950D03*
G54D18*
X16450Y-10450D02*
X16450Y-11950D01*
G54D19*
X16950Y-9450D02*
X16450Y-9950D01*
X16450Y-9950D02*
X16450Y-10450D01*
X16950Y-6950D02*
X16950Y-9450D01*
X15950Y-12700D02*
X16450Y-12200D01*
X16450Y-12200D02*
X16450Y-11950D01*
X15950Y-12700D02*
X15950Y-15450D01*
G54D18*
X15450Y-10450D02*
X15450Y-11950D01*
G54D19*
X15950Y-9450D02*
X15450Y-9950D01*
X15450Y-9950D02*
X15450Y-10450D01*
X15950Y-6950D02*
X15950Y-9450D01*
X14950Y-12700D02*
X15450Y-12200D01*
X15450Y-12200D02*
X15450Y-11950D01*
X14950Y-12700D02*
X14950Y-15450D01*
G54D18*
X14450Y-10450D02*
X14450Y-11950D01*
G54D19*
X14950Y-9450D02*
X14450Y-9950D01*
X14450Y-9950D02*
X14450Y-10450D01*
X14950Y-6950D02*
X14950Y-9450D01*
X13950Y-12700D02*
X14450Y-12200D01*
X14450Y-12200D02*
X14450Y-11950D01*
X13950Y-12700D02*
X13950Y-15450D01*
G54D18*
X13450Y-11950D02*
X13450Y-10450D01*
G54D19*
X13950Y-9450D02*
X13450Y-9950D01*
X13450Y-9950D02*
X13450Y-10450D01*
X13950Y-6950D02*
X13950Y-9450D01*
X12950Y-12700D02*
X13450Y-12200D01*
X13450Y-12200D02*
X13450Y-11950D01*
X12950Y-12700D02*
X12950Y-15450D01*
G54D18*
X12450Y-11950D02*
X12450Y-10450D01*
G54D19*
X12950Y-9450D02*
X12450Y-9950D01*
X12450Y-9950D02*
X12450Y-10450D01*
X12950Y-6950D02*
X12950Y-9450D01*
X11950Y-12700D02*
X12450Y-12200D01*
X12450Y-12200D02*
X12450Y-11950D01*
X11950Y-12700D02*
X11950Y-15450D01*
G54D18*
X10450Y-11950D02*
X10450Y-10450D01*
G54D19*
X10950Y-9450D02*
X10450Y-9950D01*
X10450Y-9950D02*
X10450Y-10450D01*
X10950Y-6950D02*
X10950Y-9450D01*
X9950Y-12700D02*
X10450Y-12200D01*
X10450Y-12200D02*
X10450Y-11950D01*
X9950Y-12700D02*
X9950Y-15450D01*
G54D18*
X8450Y-10450D02*
X8450Y-11950D01*
G54D19*
X7950Y-12700D02*
X8450Y-12200D01*
X8450Y-12200D02*
X8450Y-11950D01*
X7950Y-15450D02*
X7950Y-12700D01*
X8950Y-9450D02*
X8950Y-6950D01*
X8450Y-9950D02*
X8450Y-10450D01*
X8950Y-9450D02*
X8450Y-9950D01*
G54D18*
X5450Y-10450D02*
X5450Y-11950D01*
G54D19*
X4950Y-15450D02*
X4950Y-12700D01*
X4950Y-12700D02*
X5450Y-12200D01*
X5450Y-11950D02*
X5450Y-12200D01*
X5450Y-9950D02*
X5450Y-10450D01*
X5950Y-9450D02*
X5950Y-6950D01*
X5950Y-9450D02*
X5450Y-9950D01*
G54D18*
X4450Y-10450D02*
X4450Y-11950D01*
G54D19*
X3950Y-15450D02*
X3950Y-12700D01*
X3950Y-12700D02*
X4450Y-12200D01*
X4450Y-11950D02*
X4450Y-12200D01*
X4450Y-9950D02*
X4450Y-10450D01*
X4950Y-9450D02*
X4950Y-6950D01*
X4950Y-9450D02*
X4450Y-9950D01*
G54D18*
X3450Y-10450D02*
X3450Y-11950D01*
G54D19*
X3950Y-9450D02*
X3450Y-9950D01*
X3950Y-9450D02*
X3950Y-6950D01*
X3450Y-9950D02*
X3450Y-10450D01*
X3450Y-11950D02*
X3450Y-12200D01*
X2950Y-12700D02*
X3450Y-12200D01*
X2950Y-15450D02*
X2950Y-12700D01*
G54D18*
X6450Y-12200D02*
X6450Y-10450D01*
G54D19*
X6450Y-9950D02*
X6450Y-10450D01*
X6950Y-9450D02*
X6950Y-6950D01*
X6950Y-9450D02*
X6450Y-9950D01*
X6450Y-11950D02*
X6450Y-12200D01*
X5950Y-12700D02*
X6450Y-12200D01*
X5950Y-12700D02*
X5950Y-15450D01*
G54D18*
X7450Y-10450D02*
X7450Y-11950D01*
G54D19*
X6950Y-15450D02*
X6950Y-12700D01*
X6950Y-12700D02*
X7450Y-12200D01*
X7450Y-11950D02*
X7450Y-12200D01*
X7450Y-9950D02*
X7450Y-10450D01*
X7950Y-9450D02*
X7950Y-6950D01*
X7950Y-9450D02*
X7450Y-9950D01*
G54D18*
X11450Y-11950D02*
X11450Y-10450D01*
G54D19*
X11950Y-9450D02*
X11450Y-9950D01*
X11450Y-9950D02*
X11450Y-10450D01*
X11950Y-6950D02*
X11950Y-9450D01*
X10950Y-12700D02*
X11450Y-12200D01*
X11450Y-12200D02*
X11450Y-11950D01*
X10950Y-12700D02*
X10950Y-15450D01*
M02*
