G04 (created by PCBNEW (2013-07-07 BZR 4022)-stable) date 03/07/2022 17:26:58*
%MOIN*%
G04 Gerber Fmt 3.4, Leading zero omitted, Abs format*
%FSLAX34Y34*%
G01*
G70*
G90*
G04 APERTURE LIST*
%ADD10C,0.00590551*%
%ADD11C,0.00393701*%
%ADD12O,0.1X0.0629921*%
%ADD13R,0.0984252X0.0787402*%
%ADD14O,0.0984252X0.0787402*%
%ADD15C,0.16*%
%ADD16C,0.0708661*%
%ADD17C,0.0275591*%
%ADD18C,0.0472441*%
G04 APERTURE END LIST*
G54D10*
G54D11*
X-11500Y0D02*
X-17150Y0D01*
X-2950Y-26350D02*
X-8550Y-26350D01*
X6000Y-1750D02*
X0Y-1750D01*
X6000Y-1750D02*
X6000Y-22200D01*
X0Y0D02*
X-12000Y0D01*
X0Y-1750D02*
X0Y0D01*
X-8550Y-26350D02*
X-10400Y-30000D01*
X-50Y-26350D02*
X-3450Y-26350D01*
X-50Y-22200D02*
X-50Y-26350D01*
X5950Y-22200D02*
X-50Y-22200D01*
X-12750Y-44700D02*
X-10850Y-44300D01*
X-12300Y-46900D02*
X-12750Y-44700D01*
X-30400Y-50750D02*
X-12300Y-46900D01*
X-30850Y-48550D02*
X-30400Y-50750D01*
X-32850Y-49000D02*
X-30850Y-48550D01*
X-12050Y-39900D02*
X-10400Y-30000D01*
X-10850Y-44300D02*
X-12050Y-39100D01*
X-34150Y-43800D02*
X-34150Y-28500D01*
X-32850Y-49000D02*
X-34150Y-43000D01*
X-34150Y-28500D02*
X-17150Y0D01*
X-21650Y-7500D02*
X-34150Y-28500D01*
G54D10*
G36*
X-29075Y-50274D02*
X-29525Y-48156D01*
X-28870Y-48017D01*
X-28420Y-50135D01*
X-29075Y-50274D01*
X-29075Y-50274D01*
G37*
G36*
X-28096Y-50066D02*
X-28547Y-47948D01*
X-27892Y-47809D01*
X-27442Y-49927D01*
X-28096Y-50066D01*
X-28096Y-50066D01*
G37*
G36*
X-27118Y-49858D02*
X-27569Y-47740D01*
X-26914Y-47601D01*
X-26464Y-49719D01*
X-27118Y-49858D01*
X-27118Y-49858D01*
G37*
G36*
X-26140Y-49651D02*
X-26590Y-47533D01*
X-25936Y-47393D01*
X-25486Y-49511D01*
X-26140Y-49651D01*
X-26140Y-49651D01*
G37*
G36*
X-25162Y-49443D02*
X-25612Y-47325D01*
X-24958Y-47185D01*
X-24507Y-49303D01*
X-25162Y-49443D01*
X-25162Y-49443D01*
G37*
G36*
X-24184Y-49235D02*
X-24634Y-47117D01*
X-23979Y-46978D01*
X-23529Y-49096D01*
X-24184Y-49235D01*
X-24184Y-49235D01*
G37*
G36*
X-23206Y-49027D02*
X-23656Y-46909D01*
X-23001Y-46770D01*
X-22551Y-48888D01*
X-23206Y-49027D01*
X-23206Y-49027D01*
G37*
G36*
X-22228Y-48819D02*
X-22678Y-46701D01*
X-22023Y-46562D01*
X-21573Y-48680D01*
X-22228Y-48819D01*
X-22228Y-48819D01*
G37*
G36*
X-21249Y-48611D02*
X-21700Y-46493D01*
X-21045Y-46354D01*
X-20595Y-48472D01*
X-21249Y-48611D01*
X-21249Y-48611D01*
G37*
G36*
X-20271Y-48403D02*
X-20721Y-46285D01*
X-20067Y-46146D01*
X-19617Y-48264D01*
X-20271Y-48403D01*
X-20271Y-48403D01*
G37*
G36*
X-19293Y-48195D02*
X-19743Y-46077D01*
X-19089Y-45938D01*
X-18638Y-48056D01*
X-19293Y-48195D01*
X-19293Y-48195D01*
G37*
G36*
X-18315Y-47987D02*
X-18765Y-45869D01*
X-18111Y-45730D01*
X-17660Y-47848D01*
X-18315Y-47987D01*
X-18315Y-47987D01*
G37*
G36*
X-17337Y-47779D02*
X-17787Y-45661D01*
X-17132Y-45522D01*
X-16682Y-47640D01*
X-17337Y-47779D01*
X-17337Y-47779D01*
G37*
G36*
X-16359Y-47571D02*
X-16809Y-45453D01*
X-16154Y-45314D01*
X-15704Y-47432D01*
X-16359Y-47571D01*
X-16359Y-47571D01*
G37*
G36*
X-15381Y-47364D02*
X-15831Y-45245D01*
X-15176Y-45106D01*
X-14726Y-47224D01*
X-15381Y-47364D01*
X-15381Y-47364D01*
G37*
G36*
X-14402Y-47156D02*
X-14853Y-45038D01*
X-14198Y-44898D01*
X-13748Y-47016D01*
X-14402Y-47156D01*
X-14402Y-47156D01*
G37*
G36*
X-13424Y-46948D02*
X-13874Y-44830D01*
X-13220Y-44691D01*
X-12770Y-46809D01*
X-13424Y-46948D01*
X-13424Y-46948D01*
G37*
G36*
X-30053Y-50482D02*
X-30503Y-48364D01*
X-29848Y-48225D01*
X-29398Y-50343D01*
X-30053Y-50482D01*
X-30053Y-50482D01*
G37*
G54D12*
X4350Y-3450D03*
X2350Y-3450D03*
X4350Y-4450D03*
X2350Y-4450D03*
X4350Y-5450D03*
X2350Y-5450D03*
X4350Y-6450D03*
X2350Y-6450D03*
X4350Y-7450D03*
X2350Y-7450D03*
X4350Y-8450D03*
X2350Y-8450D03*
X4350Y-9450D03*
X2350Y-9450D03*
X4350Y-10450D03*
X2350Y-10450D03*
X4350Y-11450D03*
X2350Y-11450D03*
X4350Y-12450D03*
X2350Y-12450D03*
X4350Y-13450D03*
X2350Y-13450D03*
X4350Y-14450D03*
X4350Y-15450D03*
X2350Y-14450D03*
X2350Y-15450D03*
X4350Y-16450D03*
X2350Y-16450D03*
X4350Y-17450D03*
X2350Y-17450D03*
X4350Y-18450D03*
X2350Y-18450D03*
X4350Y-19450D03*
X2350Y-19450D03*
X4350Y-20450D03*
X2350Y-20450D03*
G54D13*
X-11900Y-26450D03*
G54D14*
X-11900Y-27450D03*
X-11900Y-28450D03*
G54D13*
X-16900Y-13450D03*
G54D14*
X-16900Y-14450D03*
G54D15*
X-3950Y-23400D03*
X-3950Y-2500D03*
G54D16*
X-14900Y-35700D03*
X-14400Y-33200D03*
X-22150Y-31700D03*
X-22650Y-35200D03*
X-14150Y-13450D03*
X-14150Y-7700D03*
X-19750Y-37950D03*
X-15900Y-30950D03*
X-19800Y-36500D03*
X-17650Y-11700D03*
X-22150Y-30450D03*
X-28650Y-24950D03*
X-29650Y-39450D03*
X-24150Y-22450D03*
X-25650Y-41950D03*
X-25150Y-43700D03*
X-24900Y-42700D03*
X-5400Y-17200D03*
X-31150Y-31450D03*
X-30400Y-29200D03*
X-2650Y-18200D03*
X-9400Y-19600D03*
X-27650Y-24950D03*
X-12150Y-21700D03*
X-27900Y-28450D03*
X-27150Y-27450D03*
X-7400Y-17950D03*
X-11650Y-19700D03*
X-24150Y-24950D03*
X-9400Y-16700D03*
X-24150Y-23450D03*
X-15900Y-32700D03*
X-22150Y-32700D03*
X-11150Y-13450D03*
X-12150Y-13450D03*
X-13150Y-13450D03*
X-11400Y-6950D03*
X-18900Y-16700D03*
X-15400Y-7200D03*
X-19650Y-13700D03*
X-2400Y-20450D03*
X-13650Y-43950D03*
X-30400Y-47200D03*
G54D17*
X-17650Y-44950D02*
X-17235Y-46651D01*
X-16400Y-37200D02*
X-16400Y-43200D01*
X-17650Y-44450D02*
X-17650Y-44950D01*
X-16400Y-43200D02*
X-17650Y-44450D01*
X-14900Y-35700D02*
X-16400Y-37200D01*
X-18650Y-45200D02*
X-18213Y-46859D01*
X-17150Y-36700D02*
X-17150Y-42450D01*
X-17150Y-42450D02*
X-18650Y-43950D01*
X-18650Y-43950D02*
X-18650Y-45200D01*
X-14400Y-33950D02*
X-14400Y-33200D01*
X-17150Y-36700D02*
X-14400Y-33950D01*
X-23350Y-32900D02*
X-22150Y-31700D01*
X-23350Y-47652D02*
X-23103Y-47898D01*
X-23350Y-32900D02*
X-23350Y-47652D01*
X-22550Y-45700D02*
X-22125Y-47690D01*
X-22550Y-45700D02*
X-22550Y-35300D01*
X-22550Y-35300D02*
X-22650Y-35200D01*
X-14150Y-7700D02*
X-14150Y-13450D01*
X-21147Y-39347D02*
X-19750Y-37950D01*
X-21147Y-47482D02*
X-21147Y-39347D01*
X-17900Y-41700D02*
X-18150Y-41700D01*
X-19400Y-42950D02*
X-19400Y-45450D01*
X-18150Y-41700D02*
X-19400Y-42950D01*
X-19191Y-47067D02*
X-19400Y-45450D01*
X-17900Y-41700D02*
X-17900Y-35950D01*
X-17900Y-35950D02*
X-15150Y-33200D01*
X-15900Y-30950D02*
X-15150Y-31450D01*
X-15150Y-31450D02*
X-15150Y-33200D01*
X-20169Y-39669D02*
X-20119Y-39669D01*
X-20169Y-47274D02*
X-20169Y-39669D01*
X-20119Y-39669D02*
X-18750Y-38300D01*
X-18750Y-38300D02*
X-18750Y-37000D01*
X-18750Y-37000D02*
X-19250Y-36500D01*
X-19250Y-36500D02*
X-19800Y-36500D01*
X-17650Y-11700D02*
X-18400Y-12450D01*
X-18400Y-12450D02*
X-18400Y-15200D01*
X-18400Y-15200D02*
X-17900Y-15700D01*
X-29650Y-24700D02*
X-29650Y-25950D01*
X-29650Y-25950D02*
X-31900Y-28200D01*
X-31900Y-28200D02*
X-31900Y-40700D01*
X-31900Y-40700D02*
X-29400Y-43200D01*
X-29650Y-24700D02*
X-25900Y-20950D01*
X-17900Y-19950D02*
X-18900Y-20950D01*
X-18900Y-20950D02*
X-25900Y-20950D01*
X-17900Y-15700D02*
X-17900Y-19950D01*
X-29400Y-43200D02*
X-29400Y-47200D01*
X-29400Y-47200D02*
X-28972Y-49146D01*
X-28400Y-47200D02*
X-27994Y-48938D01*
X-28400Y-42450D02*
X-28400Y-47200D01*
X-28650Y-33200D02*
X-24900Y-33200D01*
X-28650Y-33200D02*
X-30650Y-35200D01*
X-30650Y-35200D02*
X-30650Y-40200D01*
X-30650Y-40200D02*
X-28400Y-42450D01*
X-24900Y-33200D02*
X-22150Y-30450D01*
X-27400Y-41700D02*
X-27400Y-46950D01*
X-27400Y-46950D02*
X-27016Y-48730D01*
X-27400Y-41700D02*
X-29650Y-39450D01*
X-24150Y-22450D02*
X-26150Y-22450D01*
X-26150Y-22450D02*
X-28650Y-24950D01*
X-26400Y-46950D02*
X-26038Y-48522D01*
X-26400Y-43450D02*
X-26400Y-46950D01*
X-25650Y-41950D02*
X-25650Y-42700D01*
X-25650Y-42700D02*
X-26400Y-43450D01*
X-25400Y-46700D02*
X-25060Y-48314D01*
X-25150Y-43700D02*
X-25150Y-44700D01*
X-25400Y-44950D02*
X-25400Y-46700D01*
X-25150Y-44700D02*
X-25400Y-44950D01*
X-24400Y-46450D02*
X-24082Y-48106D01*
X-24400Y-43200D02*
X-24400Y-46450D01*
X-24400Y-43200D02*
X-24900Y-42700D01*
X-8900Y-20450D02*
X-8400Y-19950D01*
X-8400Y-19950D02*
X-8400Y-17950D01*
X-8900Y-20450D02*
X-12900Y-20450D01*
X-12900Y-20450D02*
X-15400Y-22950D01*
X-5400Y-17200D02*
X-7650Y-17200D01*
X-8400Y-17950D02*
X-7650Y-17200D01*
X-20400Y-22950D02*
X-23650Y-26200D01*
X-15400Y-22950D02*
X-20400Y-22950D01*
X-31150Y-31450D02*
X-31150Y-28450D01*
X-28900Y-26200D02*
X-23650Y-26200D01*
X-31150Y-28450D02*
X-28900Y-26200D01*
X-8150Y-21450D02*
X-10650Y-21450D01*
X-13900Y-24700D02*
X-19650Y-24700D01*
X-10650Y-21450D02*
X-13900Y-24700D01*
X-8150Y-21450D02*
X-4900Y-18200D01*
X-4900Y-18200D02*
X-2650Y-18200D01*
X-25400Y-27700D02*
X-22650Y-27700D01*
X-22650Y-27700D02*
X-19650Y-24700D01*
X-26900Y-29200D02*
X-30400Y-29200D01*
X-25400Y-27700D02*
X-26900Y-29200D01*
X-13150Y-18950D02*
X-10900Y-18950D01*
X-10250Y-19600D02*
X-9400Y-19600D01*
X-10900Y-18950D02*
X-10250Y-19600D01*
X-16150Y-21950D02*
X-13150Y-18950D01*
X-21150Y-21950D02*
X-23400Y-24200D01*
X-16150Y-21950D02*
X-21150Y-21950D01*
X-26900Y-24200D02*
X-23400Y-24200D01*
X-26900Y-24200D02*
X-27650Y-24950D01*
X-19650Y-23950D02*
X-22900Y-27200D01*
X-14400Y-23950D02*
X-19650Y-23950D01*
X-12150Y-21700D02*
X-14400Y-23950D01*
X-25650Y-27200D02*
X-22900Y-27200D01*
X-25650Y-27200D02*
X-26900Y-28450D01*
X-26900Y-28450D02*
X-27900Y-28450D01*
X-12400Y-20950D02*
X-8650Y-20950D01*
X-8650Y-20950D02*
X-7400Y-19700D01*
X-7400Y-19700D02*
X-7400Y-17950D01*
X-12400Y-20950D02*
X-14900Y-23450D01*
X-27150Y-27450D02*
X-26400Y-26700D01*
X-23400Y-26700D02*
X-20150Y-23450D01*
X-20150Y-23450D02*
X-14900Y-23450D01*
X-26400Y-26700D02*
X-23400Y-26700D01*
X-11650Y-19700D02*
X-13150Y-19700D01*
X-13150Y-19700D02*
X-15900Y-22450D01*
X-20900Y-22450D02*
X-15900Y-22450D01*
X-23400Y-24950D02*
X-20900Y-22450D01*
X-24150Y-24950D02*
X-23400Y-24950D01*
X-16650Y-21450D02*
X-11900Y-16700D01*
X-11900Y-16700D02*
X-9400Y-16700D01*
X-23400Y-23450D02*
X-24150Y-23450D01*
X-21400Y-21450D02*
X-23400Y-23450D01*
X-16650Y-21450D02*
X-21400Y-21450D01*
X-22150Y-32700D02*
X-15900Y-32700D01*
X-8850Y-6900D02*
X-11150Y-9200D01*
X-8850Y-6900D02*
X450Y-6900D01*
X-11150Y-13450D02*
X-11150Y-9200D01*
X1000Y-7450D02*
X2350Y-7450D01*
X450Y-6900D02*
X1000Y-7450D01*
X700Y-6050D02*
X-9250Y-6050D01*
X-9250Y-6050D02*
X-12150Y-8950D01*
X-12150Y-13450D02*
X-12150Y-8950D01*
X2350Y-6450D02*
X1100Y-6450D01*
X1100Y-6450D02*
X700Y-6050D01*
X-13150Y-13450D02*
X-13150Y-8700D01*
X-13150Y-8700D02*
X-11400Y-6950D01*
X-18900Y-16700D02*
X-18900Y-10700D01*
X-18900Y-10700D02*
X-15400Y-7200D01*
X2350Y-5450D02*
X-14900Y-5450D01*
X-14900Y-5450D02*
X-19650Y-10200D01*
X-19650Y-13700D02*
X-19650Y-10200D01*
X-14650Y-43700D02*
X-14650Y-44200D01*
X-14650Y-44200D02*
X-14300Y-46027D01*
X-14300Y-37350D02*
X-14300Y-43350D01*
X-14300Y-43350D02*
X-14650Y-43700D01*
X-11900Y-28450D02*
X-11900Y-34950D01*
X-11900Y-34950D02*
X-14300Y-37350D01*
G54D18*
X-2400Y-20450D02*
X-1400Y-19450D01*
X-1400Y-19450D02*
X-1400Y-17200D01*
X-1400Y-17200D02*
X-2900Y-15700D01*
X-2900Y-15700D02*
X-14650Y-15700D01*
X-14650Y-15700D02*
X-15900Y-14450D01*
X-15900Y-14450D02*
X-16900Y-14450D01*
G54D17*
X-15650Y-44450D02*
X-15278Y-46235D01*
X-15278Y-37328D02*
X-15278Y-43328D01*
X-15650Y-43700D02*
X-15650Y-44450D01*
X-15278Y-43328D02*
X-15650Y-43700D01*
X-12650Y-27450D02*
X-11900Y-27450D01*
X-13150Y-27950D02*
X-12650Y-27450D01*
X-13150Y-35200D02*
X-13150Y-27950D01*
X-15278Y-37328D02*
X-13150Y-35200D01*
G54D18*
X3350Y-21450D02*
X1100Y-21450D01*
X1100Y-21450D02*
X-150Y-20200D01*
X-13322Y-45819D02*
X-13650Y-43950D01*
X-11900Y-26450D02*
X-11900Y-26200D01*
X-11900Y-26200D02*
X-7150Y-21450D01*
X-7150Y-21450D02*
X-1400Y-21450D01*
X-1400Y-21450D02*
X-150Y-20200D01*
X-16900Y-13450D02*
X-15650Y-13450D01*
X-15650Y-13450D02*
X-14150Y-14950D01*
X-14150Y-14950D02*
X-2400Y-14950D01*
X-2400Y-14950D02*
X-150Y-17200D01*
X-150Y-17200D02*
X-150Y-20200D01*
X3350Y-21450D02*
X4350Y-20450D01*
X850Y-2450D02*
X300Y-2450D01*
X-15700Y-4500D02*
X-19050Y-7850D01*
X-1750Y-4500D02*
X-15700Y-4500D01*
X300Y-2450D02*
X-1750Y-4500D01*
X850Y-2450D02*
X3850Y-2450D01*
X-19050Y-7850D02*
X-23900Y-12700D01*
X3850Y-2450D02*
X4350Y-2950D01*
X4350Y-2950D02*
X4350Y-3450D01*
X-27900Y-21200D02*
X-27900Y-19450D01*
X-27900Y-19450D02*
X-23900Y-15450D01*
X-23900Y-15450D02*
X-23900Y-12700D01*
X-32650Y-27200D02*
X-30400Y-24950D01*
X-32650Y-41700D02*
X-32650Y-27200D01*
X-30400Y-43950D02*
X-32650Y-41700D01*
X-30400Y-47200D02*
X-30400Y-43950D01*
X-30400Y-23700D02*
X-30400Y-24950D01*
X-27900Y-21200D02*
X-30400Y-23700D01*
X-30400Y-47200D02*
X-29951Y-49354D01*
M02*
