G04 (created by PCBNEW (2013-07-07 BZR 4022)-stable) date 03/07/2022 17:26:58*
%MOIN*%
G04 Gerber Fmt 3.4, Leading zero omitted, Abs format*
%FSLAX34Y34*%
G01*
G70*
G90*
G04 APERTURE LIST*
%ADD10C,0.00590551*%
%ADD11C,0.011811*%
%ADD12C,0.00393701*%
%ADD13C,0.015*%
%ADD14C,0.01*%
%ADD15C,0.0108*%
%ADD16C,0.008*%
G04 APERTURE END LIST*
G54D10*
G54D11*
X-16946Y-348D02*
X-16749Y-939D01*
X-16552Y-348D01*
X-16355Y-939D02*
X-16355Y-348D01*
X-16130Y-348D01*
X-16074Y-376D01*
X-16046Y-404D01*
X-16018Y-460D01*
X-16018Y-545D01*
X-16046Y-601D01*
X-16074Y-629D01*
X-16130Y-657D01*
X-16355Y-657D01*
X-15455Y-939D02*
X-15793Y-939D01*
X-15624Y-939D02*
X-15624Y-348D01*
X-15680Y-432D01*
X-15736Y-489D01*
X-15793Y-517D01*
X-14949Y-545D02*
X-14949Y-939D01*
X-15090Y-320D02*
X-15230Y-742D01*
X-14865Y-742D01*
X-14527Y-348D02*
X-14471Y-348D01*
X-14415Y-376D01*
X-14387Y-404D01*
X-14358Y-460D01*
X-14330Y-573D01*
X-14330Y-714D01*
X-14358Y-826D01*
X-14387Y-882D01*
X-14415Y-910D01*
X-14471Y-939D01*
X-14527Y-939D01*
X-14583Y-910D01*
X-14612Y-882D01*
X-14640Y-826D01*
X-14668Y-714D01*
X-14668Y-573D01*
X-14640Y-460D01*
X-14612Y-404D01*
X-14583Y-376D01*
X-14527Y-348D01*
X-13627Y-714D02*
X-13177Y-714D01*
X-12249Y-629D02*
X-12446Y-629D01*
X-12446Y-939D02*
X-12446Y-348D01*
X-12165Y-348D01*
X-11603Y-939D02*
X-11799Y-657D01*
X-11940Y-939D02*
X-11940Y-348D01*
X-11715Y-348D01*
X-11659Y-376D01*
X-11631Y-404D01*
X-11603Y-460D01*
X-11603Y-545D01*
X-11631Y-601D01*
X-11659Y-629D01*
X-11715Y-657D01*
X-11940Y-657D01*
X-11349Y-629D02*
X-11153Y-629D01*
X-11068Y-939D02*
X-11349Y-939D01*
X-11349Y-348D01*
X-11068Y-348D01*
X-10815Y-939D02*
X-10815Y-348D01*
X-10675Y-348D01*
X-10590Y-376D01*
X-10534Y-432D01*
X-10506Y-489D01*
X-10478Y-601D01*
X-10478Y-685D01*
X-10506Y-798D01*
X-10534Y-854D01*
X-10590Y-910D01*
X-10675Y-939D01*
X-10815Y-939D01*
X-10281Y-348D02*
X-9887Y-348D01*
X-10140Y-939D01*
X-9690Y-404D02*
X-9662Y-376D01*
X-9606Y-348D01*
X-9465Y-348D01*
X-9409Y-376D01*
X-9381Y-404D01*
X-9353Y-460D01*
X-9353Y-517D01*
X-9381Y-601D01*
X-9718Y-939D01*
X-9353Y-939D01*
X-8340Y-939D02*
X-8678Y-939D01*
X-8509Y-939D02*
X-8509Y-348D01*
X-8565Y-432D01*
X-8622Y-489D01*
X-8678Y-517D01*
X-7778Y-939D02*
X-8115Y-939D01*
X-7947Y-939D02*
X-7947Y-348D01*
X-8003Y-432D01*
X-8059Y-489D01*
X-8115Y-517D01*
X-7103Y-320D02*
X-7609Y-1079D01*
X-6934Y-404D02*
X-6906Y-376D01*
X-6850Y-348D01*
X-6709Y-348D01*
X-6653Y-376D01*
X-6625Y-404D01*
X-6597Y-460D01*
X-6597Y-517D01*
X-6625Y-601D01*
X-6962Y-939D01*
X-6597Y-939D01*
X-6231Y-348D02*
X-6175Y-348D01*
X-6119Y-376D01*
X-6091Y-404D01*
X-6063Y-460D01*
X-6034Y-573D01*
X-6034Y-714D01*
X-6063Y-826D01*
X-6091Y-882D01*
X-6119Y-910D01*
X-6175Y-939D01*
X-6231Y-939D01*
X-6288Y-910D01*
X-6316Y-882D01*
X-6344Y-826D01*
X-6372Y-714D01*
X-6372Y-573D01*
X-6344Y-460D01*
X-6316Y-404D01*
X-6288Y-376D01*
X-6231Y-348D01*
X-5810Y-404D02*
X-5781Y-376D01*
X-5725Y-348D01*
X-5585Y-348D01*
X-5528Y-376D01*
X-5500Y-404D01*
X-5472Y-460D01*
X-5472Y-517D01*
X-5500Y-601D01*
X-5838Y-939D01*
X-5472Y-939D01*
X-4910Y-939D02*
X-5247Y-939D01*
X-5078Y-939D02*
X-5078Y-348D01*
X-5135Y-432D01*
X-5191Y-489D01*
X-5247Y-517D01*
G54D12*
X-11500Y0D02*
X-17150Y0D01*
X-2950Y-26350D02*
X-8550Y-26350D01*
X6000Y-1750D02*
X0Y-1750D01*
X6000Y-1750D02*
X6000Y-22200D01*
X0Y0D02*
X-12000Y0D01*
X0Y-1750D02*
X0Y0D01*
X-8550Y-26350D02*
X-10400Y-30000D01*
X-50Y-26350D02*
X-3450Y-26350D01*
X-50Y-22200D02*
X-50Y-26350D01*
X5950Y-22200D02*
X-50Y-22200D01*
X-12750Y-44700D02*
X-10850Y-44300D01*
X-12300Y-46900D02*
X-12750Y-44700D01*
X-30400Y-50750D02*
X-12300Y-46900D01*
X-30850Y-48550D02*
X-30400Y-50750D01*
X-32850Y-49000D02*
X-30850Y-48550D01*
X-12050Y-39900D02*
X-10400Y-30000D01*
X-10850Y-44300D02*
X-12050Y-39100D01*
X-34150Y-43800D02*
X-34150Y-28500D01*
X-32850Y-49000D02*
X-34150Y-43000D01*
X-34150Y-28500D02*
X-17150Y0D01*
X-21650Y-7500D02*
X-34150Y-28500D01*
G54D11*
X-30424Y-50732D02*
X-30892Y-48531D01*
X-12796Y-44685D02*
X-10840Y-44269D01*
X-10840Y-44269D02*
X-10944Y-43780D01*
X-12796Y-44685D02*
X-12329Y-46886D01*
X-30892Y-48531D02*
X-32848Y-48947D01*
X-32848Y-48947D02*
X-32952Y-48458D01*
X4350Y-4450D02*
X2350Y-4450D01*
X4350Y-5450D02*
X2350Y-5450D01*
X2350Y-6450D02*
X4350Y-6450D01*
X4350Y-7450D02*
X2350Y-7450D01*
X2350Y-8450D02*
X4350Y-8450D01*
X4350Y-11450D02*
X2350Y-11450D01*
X4350Y-12450D02*
X2350Y-12450D01*
X2350Y-9450D02*
X4350Y-9450D01*
X4350Y-10450D02*
X2350Y-10450D01*
X2350Y-13450D02*
X4350Y-13450D01*
X4350Y-14450D02*
X2350Y-14450D01*
X2350Y-15450D02*
X4350Y-15450D01*
X4350Y-16450D02*
X2350Y-16450D01*
X2350Y-17450D02*
X4350Y-17450D01*
X4350Y-18450D02*
X2350Y-18450D01*
X2350Y-19450D02*
X4350Y-19450D01*
X4350Y-20450D02*
X2350Y-20450D01*
X4350Y-3450D02*
X2350Y-3450D01*
X4100Y-1950D02*
X4100Y-2450D01*
X4100Y-2450D02*
X4350Y-2450D01*
X4350Y-2450D02*
X4350Y-21450D01*
X4350Y-21450D02*
X4100Y-21450D01*
X4100Y-21450D02*
X4100Y-21950D01*
X6100Y-22200D02*
X10100Y-22200D01*
X6100Y-21950D02*
X4100Y-21950D01*
X6100Y-1700D02*
X10100Y-1700D01*
X6100Y-1950D02*
X4100Y-1950D01*
X6100Y-1700D02*
X6100Y-22200D01*
X10100Y-1700D02*
X10100Y-22200D01*
G54D13*
X-3050Y-23400D02*
G75*
G03X-3050Y-23400I-900J0D01*
G74*
G01*
X-3050Y-2500D02*
G75*
G03X-3050Y-2500I-900J0D01*
G74*
G01*
G54D14*
X-30028Y-48002D02*
X-30112Y-47611D01*
X-29963Y-47579D01*
X-29921Y-47590D01*
X-29899Y-47605D01*
X-29872Y-47638D01*
X-29860Y-47694D01*
X-29871Y-47735D01*
X-29886Y-47758D01*
X-29919Y-47784D01*
X-30068Y-47816D01*
X-29432Y-47875D02*
X-29656Y-47923D01*
X-29544Y-47899D02*
X-29627Y-47508D01*
X-29653Y-47572D01*
X-29682Y-47617D01*
X-29715Y-47643D01*
G54D15*
G54D16*
X-22752Y-46241D02*
X-22622Y-46214D01*
X-22522Y-46407D02*
X-22709Y-46446D01*
X-22792Y-46055D01*
X-22605Y-46015D01*
X-22475Y-45988D02*
X-22131Y-46324D01*
X-22214Y-45932D02*
X-22392Y-46379D01*
X-21982Y-46292D02*
X-22065Y-45901D01*
X-21916Y-45869D01*
X-21875Y-45880D01*
X-21852Y-45894D01*
X-21826Y-45928D01*
X-21814Y-45983D01*
X-21825Y-46025D01*
X-21839Y-46047D01*
X-21873Y-46074D01*
X-22022Y-46106D01*
X-21633Y-46101D02*
X-21447Y-46061D01*
X-21647Y-46221D02*
X-21599Y-45802D01*
X-21386Y-46165D01*
X-21255Y-46137D02*
X-21339Y-45746D01*
X-21032Y-46090D01*
X-21115Y-45699D01*
X-20868Y-46036D02*
X-20808Y-46042D01*
X-20715Y-46023D01*
X-20682Y-45996D01*
X-20667Y-45973D01*
X-20656Y-45932D01*
X-20664Y-45895D01*
X-20691Y-45862D01*
X-20713Y-45847D01*
X-20755Y-45836D01*
X-20833Y-45833D01*
X-20874Y-45823D01*
X-20897Y-45808D01*
X-20924Y-45775D01*
X-20931Y-45738D01*
X-20921Y-45696D01*
X-20906Y-45674D01*
X-20873Y-45647D01*
X-20780Y-45627D01*
X-20720Y-45634D01*
X-20473Y-45971D02*
X-20556Y-45580D01*
X-20295Y-45524D02*
X-20221Y-45509D01*
X-20179Y-45519D01*
X-20134Y-45549D01*
X-20100Y-45619D01*
X-20072Y-45750D01*
X-20075Y-45828D01*
X-20104Y-45873D01*
X-20138Y-45900D01*
X-20212Y-45916D01*
X-20253Y-45905D01*
X-20298Y-45876D01*
X-20333Y-45805D01*
X-20361Y-45675D01*
X-20358Y-45596D01*
X-20329Y-45551D01*
X-20295Y-45524D01*
X-19877Y-45844D02*
X-19960Y-45453D01*
X-19653Y-45797D01*
X-19736Y-45406D01*
M02*
