M48
;DRILL file {Pcbnew (2013-07-07 BZR 4022)-stable} date 03/07/2022 17:27:01
;FORMAT={-:-/ absolute / inch / decimal}
FMAT,2
INCH,TZ
T1C0.024
T2C0.039
T3C0.040
T4C0.120
%
G90
G05
M72
T1
X-3.115Y-3.145
X-3.04Y-2.92
X-3.04Y-4.72
X-2.965Y-3.945
X-2.865Y-2.495
X-2.79Y-2.845
X-2.765Y-2.495
X-2.715Y-2.745
X-2.565Y-4.195
X-2.515Y-4.37
X-2.49Y-4.27
X-2.415Y-2.245
X-2.415Y-2.345
X-2.415Y-2.495
X-2.265Y-3.52
X-2.215Y-3.045
X-2.215Y-3.17
X-2.215Y-3.27
X-1.98Y-3.65
X-1.975Y-3.795
X-1.965Y-1.37
X-1.89Y-1.67
X-1.765Y-1.17
X-1.59Y-3.095
X-1.59Y-3.27
X-1.54Y-0.72
X-1.49Y-3.57
X-1.44Y-3.32
X-1.415Y-0.77
X-1.415Y-1.345
X-1.365Y-4.395
X-1.315Y-1.345
X-1.215Y-1.345
X-1.215Y-2.17
X-1.165Y-1.97
X-1.14Y-0.695
X-1.115Y-1.345
X-0.94Y-1.67
X-0.94Y-1.96
X-0.74Y-1.795
X-0.54Y-1.72
X-0.265Y-1.82
X-0.24Y-2.045
T2
X0.235Y-0.345
X0.235Y-0.445
X0.235Y-0.545
X0.235Y-0.645
X0.235Y-0.745
X0.235Y-0.845
X0.235Y-0.945
X0.235Y-1.045
X0.235Y-1.145
X0.235Y-1.245
X0.235Y-1.345
X0.235Y-1.445
X0.235Y-1.545
X0.235Y-1.645
X0.235Y-1.745
X0.235Y-1.845
X0.235Y-1.945
X0.235Y-2.045
X0.435Y-0.345
X0.435Y-0.445
X0.435Y-0.545
X0.435Y-0.645
X0.435Y-0.745
X0.435Y-0.845
X0.435Y-0.945
X0.435Y-1.045
X0.435Y-1.145
X0.435Y-1.245
X0.435Y-1.345
X0.435Y-1.445
X0.435Y-1.545
X0.435Y-1.645
X0.435Y-1.745
X0.435Y-1.845
X0.435Y-1.945
X0.435Y-2.045
T3
X-1.69Y-1.345
X-1.69Y-1.445
X-1.19Y-2.645
X-1.19Y-2.745
X-1.19Y-2.845
T4
X-0.395Y-0.25
X-0.395Y-2.34
T0
M30
